#N canvas 140 22 475 550 10;
#X obj 128 124 vsl 15 128 0 255 0 0 empty empty empty 0 -9 0 10 -262144
-1 -1 0 1;
#X obj 128 270 t f b;
#X obj 155 297 \$1;
#X obj 155 351 s index;
#X obj 128 418 s value;
#X obj 128 383 i;
#X obj 155 324 + 4;
#X obj 128 53 r toto;
#X connect 0 0 1 0;
#X connect 1 0 5 0;
#X connect 1 1 2 0;
#X connect 2 0 6 0;
#X connect 5 0 4 0;
#X connect 6 0 3 0;
#X connect 7 0 0 0;
#X coords 0 -1 1 1 70 160 1 100 100;
