#N canvas 472 48 534 231 10;
#X obj 56 134 comport;
#X msg 75 98 ports;
#X msg 56 67 open \$1;
#X obj 56 35 hradio 15 1 0 8 empty empty empty 0 -8 0 10 -262144 -1
-1 3;
#N canvas 0 25 1364 653 Construction 0;
#X obj 235 279 until;
#X obj 235 316 counter;
#X msg 471 466 clear;
#X obj 235 381 * 80;
#X obj 235 483 s pd-Console;
#X floatatom 250 114 5 0 0 0 - - -;
#X obj 235 205 f;
#X obj 250 140 bng 10 250 50 0 empty empty empty 17 7 0 10 -262144
-1 -1;
#X obj 235 252 t f b b;
#X obj 235 353 t f f;
#X obj 235 412 pack f f;
#X msg 235 444 obj \$1 0 DMXlider \$2;
#X obj 388 235 init 10;
#X obj 280 370 + 1;
#X obj -103 74 list-replace;
#N canvas 0 25 341 328 list-creation 0;
#X obj 234 215 l;
#X obj 118 -15 t b b b;
#X obj 137 198 list append;
#X msg 236 81 231;
#X obj 137 85 until;
#X msg 137 119 0;
#X msg 38 82 126 6 1 2;
#X obj 137 235 outlet;
#X obj 118 -42 loadbang;
#X msg 137 53 513;
#X connect 0 0 2 1;
#X connect 1 0 6 0;
#X connect 1 1 9 0;
#X connect 1 2 3 0;
#X connect 2 0 0 0;
#X connect 2 0 7 0;
#X connect 3 0 2 0;
#X connect 4 0 5 0;
#X connect 5 0 2 0;
#X connect 6 0 2 0;
#X connect 8 0 1 0;
#X connect 9 0 4 0;
#X restore 44 57 pd list-creation;
#X obj 0 91 l;
#X obj -103 10 r value;
#X obj -69 37 r index;
#X obj -103 110 resample 25;
#X text -92 130 DMX steam is at 40 Hz;
#X obj -103 174 spigot;
#X obj 250 164 tgl 10 0 empty empty empty 17 7 0 10 -262144 -1 -1 1
1;
#X text 126 112 Nombre de tranche :;
#X text 120 136 Créer les tranches :;
#X text 108 160 Activer les tranches :;
#X obj 39 333 outlet;
#N canvas 31 385 921 171 Console 1;
#X obj 0 0 DMXlider 1;
#X obj 80 0 DMXlider 2;
#X obj 160 0 DMXlider 3;
#X obj 240 0 DMXlider 4;
#X obj 320 0 DMXlider 5;
#X obj 400 0 DMXlider 6;
#X obj 480 0 DMXlider 7;
#X obj 560 0 DMXlider 8;
#X obj 640 0 DMXlider 9;
#X obj 720 0 DMXlider 10;
#X restore 383 128 pd Console;
#X obj 250 185 bng 10 250 50 0 empty empty empty 17 7 0 10 -262144
-1 -1;
#X text 138 182 Voir la console :;
#X msg 516 195 \; pd-Console vis 1;
#X connect 0 0 1 0;
#X connect 1 0 9 0;
#X connect 2 0 4 0;
#X connect 3 0 10 0;
#X connect 5 0 6 1;
#X connect 6 0 8 0;
#X connect 7 0 6 0;
#X connect 8 0 0 0;
#X connect 8 1 1 2;
#X connect 8 2 2 0;
#X connect 9 0 3 0;
#X connect 9 1 13 0;
#X connect 10 0 11 0;
#X connect 11 0 4 0;
#X connect 12 0 5 0;
#X connect 12 0 8 0;
#X connect 13 0 10 1;
#X connect 14 0 16 0;
#X connect 14 0 19 0;
#X connect 15 0 14 2;
#X connect 16 0 14 2;
#X connect 17 0 14 0;
#X connect 18 0 14 1;
#X connect 19 0 21 0;
#X connect 21 0 26 0;
#X connect 22 0 21 1;
#X connect 28 0 30 0;
#X coords 0 -1 1 1 200 105 2 100 100;
#X restore 263 29 pd Construction;
#X obj 95 169 route ports;
#X obj 95 198 print Ports;
#X text 59 19 0;
#X text 90 19 2;
#X text 119 19 4;
#X text 74 19 1;
#X text 105 19 3;
#X text 134 19 5;
#X text 149 19 6;
#X text 165 19 7;
#X connect 0 1 5 0;
#X connect 1 0 0 0;
#X connect 2 0 0 0;
#X connect 3 0 2 0;
#X connect 4 0 0 0;
#X connect 5 0 6 0;
