#N canvas 116 23 1360 696 12;
#X declare -path else;
#X obj 258 236 ddsp~;
#X obj 133 82 bng 15 250 50 0 empty empty empty 17 7 0 10 -262144 -1
-1;
#X obj 133 106 openpanel;
#X msg 133 135 load \$1;
#X obj 257 190 mtof;
#X obj 254 617 dac~;
#X obj 254 588 *~ 0;
#X obj 1219 202 bng 15 250 50 0 empty empty empty 17 7 0 10 -262144
-1 -1;
#X obj 1219 226 openpanel;
#X msg 1219 255 open \$1 \, start;
#X obj 1139 404 ddsp~;
#X obj 1265 482 table impulse;
#X obj 1139 433 bsaylor/partconv~ impulse 2048;
#X obj 985 238 bng 15 250 50 0 empty empty empty 17 7 0 10 -262144
-1 -1;
#X obj 985 262 openpanel;
#X msg 985 291 load \$1;
#X obj 1349 236 bng 15 250 50 0 empty empty empty 17 7 0 10 -262144
-1 -1;
#X obj 1349 260 openpanel;
#X msg 1349 289 read -resize \$1 impulse;
#X obj 1349 318 soundfiler;
#X obj 1349 347 t b;
#X msg 1349 376 set impulse;
#X obj 1139 462 clip~ -1 1;
#X obj 1054 387 vsl 15 128 0 100 0 0 empty empty empty 0 -9 0 10 -257982
-1 -1 0 1;
#X obj 1054 529 dbtorms;
#X obj 1139 520 dac~;
#X obj 1139 491 *~ 0;
#X obj 1098 247 mtof;
#X obj 461 49 bng 15 250 50 0 empty empty empty 17 7 0 10 -262144 -1
-1;
#X obj 461 73 openpanel;
#X msg 461 102 read -resize \$1 impulse;
#X obj 461 131 soundfiler;
#X obj 461 160 t b;
#X msg 461 189 set impulse;
#X floatatom 360 198 5 0 0 0 - - -;
#X floatatom 287 152 5 0 0 0 - - -;
#X obj 250 280 bsaylor/partconv~ impulse 2048;
#X obj 233 318 clip~ -1 1;
#X floatatom 276 -35 5 0 0 0 - - -;
#X obj 276 21 line;
#X obj 276 -159 tgl 15 0 empty empty empty 17 7 0 10 -262144 -1 -1
0 1;
#X obj 303 -135 + 500;
#X obj 276 -84 bng 15 250 50 0 empty empty empty 17 7 0 10 -262144
-1 -1;
#X floatatom 276 47 5 0 0 0 - - -;
#X obj 276 -60 random 127;
#X obj 303 -160 random 15000;
#X obj 276 -107 metro 15000;
#X obj 609 -93 random 12;
#X floatatom 609 -66 5 0 0 0 - - -;
#X obj 609 -39 + 48;
#X floatatom 609 -11 5 0 0 0 - - -;
#X obj 609 -146 tgl 15 0 empty empty empty 17 7 0 10 -262144 -1 -1
1 1;
#X floatatom 650 -9 5 0 0 0 - - -;
#X msg 653 -33 50;
#X obj 659 -61 loadbang;
#X text 639 -147 stream 1 with pattern;
#X obj 609 -120 metro 40;
#X msg 687 -118 100;
#X floatatom 606 46 5 0 0 0 - - -;
#X obj 647 105 line;
#X floatatom 647 131 5 0 0 0 - - -;
#X floatatom 1210 378 5 0 0 0 - - -;
#X floatatom 1093 209 5 0 0 0 - - -;
#X msg 1260 366 240;
#X msg 426 225 60;
#X msg 1266 394 70;
#X floatatom 696 220 5 0 0 0 - - -;
#X floatatom 696 286 5 0 0 0 - - -;
#X floatatom 827 98 5 0 0 0 - - -;
#X obj 829 41 expr pow(($f1) \, 5)/10000000;
#X obj 609 15 expr 3*cos($f1) + (2*$f2)/2;
#X obj 817 -102 random 12;
#X floatatom 817 -75 5 0 0 0 - - -;
#X obj 817 -48 + 48;
#X floatatom 817 -20 5 0 0 0 - - -;
#X obj 817 -155 tgl 15 0 empty empty empty 17 7 0 10 -262144 -1 -1
1 1;
#X obj 817 -129 metro 40;
#X msg 727 -116 500;
#X msg 709 -91 40;
#X obj 1133 182 * 0.9;
#X obj 696 254 expr pow(($f1) \, 6)/10000000000;
#X msg 647 77 \$1 500;
#X obj 725 82 * 1.4;
#X obj 679 190 expr 180 - $f1;
#X msg 276 -7 \$1 1500;
#X msg -174 -97 load /Users/lisek/ddsp_pytorch-master/patchs/ddsp_pretrained_saxophone/pretrained.ts
;
#X floatatom 295 591 5 0 0 0 - - -;
#X msg 326 562 0.5;
#X msg -171 -26 load /Users/lisek/ddsp_pytorch-master/patchs/ddsp_pretrained_saxophone/ddsp_debug_impulse.wav
;
#X obj 500 453 hsl 128 15 -0.999 0.999 0 0 empty feedback empty -2
-6 0 8 -228856 -1 -1 11753 1;
#X text 531 452 feedback;
#X floatatom 497 475 0 0 0 0 - - -;
#X obj 259 527 fbdelay~ 200 -gain;
#X obj 265 400 osc~ 0.1;
#X floatatom 265 366 5 0 0 0 - - -;
#X floatatom 412 446 5 0 1000 0 - - -;
#X floatatom 346 394 5 1 100 0 - - -;
#X obj 268 344 hsl 128 15 0.01 3 1 0 empty rate empty -2 -8 0 10 -228856
-1 -1 6670 1;
#X text 230 367 rate;
#X obj 415 423 hsl 128 15 60 200 1 0 empty depth empty -2 -8 0 10 -228856
-1 -1 5388 1;
#X obj 349 370 hsl 128 15 0 50 0 0 empty delay empty -2 -8 0 10 -228856
-1 -1 5080 1;
#X obj 320 481 rescale~;
#X obj 497 498 f2s~ 10;
#X obj 346 418 f2s~ 10;
#X obj 412 469 f2s~ 10;
#X text 386 393 delay min.;
#X text 716 411 max;
#X obj 89 320 loadbang;
#X msg 89 347 \; rate 0.2 \; depth 100 \; delay 20 \; feedback 0.85
;
#X msg 89 432 \; rate 0.1 \; depth 30 \; delay 10 \; feedback -0.75
;
#X msg 89 517 \; rate 0.05 \; depth 15 \; delay 5 \; feedback 0.91
;
#X msg 363 562 0;
#X obj 454 -103 declare -path else;
#X connect 0 0 36 0;
#X connect 1 0 2 0;
#X connect 2 0 3 0;
#X connect 3 0 0 0;
#X connect 4 0 0 0;
#X connect 6 0 5 0;
#X connect 6 0 5 1;
#X connect 7 0 8 0;
#X connect 8 0 9 0;
#X connect 10 0 12 0;
#X connect 12 0 22 0;
#X connect 13 0 14 0;
#X connect 14 0 15 0;
#X connect 15 0 10 0;
#X connect 16 0 17 0;
#X connect 17 0 18 0;
#X connect 18 0 19 0;
#X connect 19 0 20 0;
#X connect 20 0 21 0;
#X connect 21 0 12 0;
#X connect 22 0 26 0;
#X connect 23 0 24 0;
#X connect 24 0 26 1;
#X connect 26 0 25 0;
#X connect 26 0 25 1;
#X connect 27 0 10 0;
#X connect 28 0 29 0;
#X connect 29 0 30 0;
#X connect 30 0 31 0;
#X connect 31 0 32 0;
#X connect 32 0 33 0;
#X connect 33 0 36 0;
#X connect 34 0 0 1;
#X connect 35 0 4 0;
#X connect 36 0 37 0;
#X connect 37 0 92 0;
#X connect 38 0 84 0;
#X connect 39 0 43 0;
#X connect 40 0 46 0;
#X connect 41 0 46 1;
#X connect 42 0 44 0;
#X connect 43 0 35 0;
#X connect 44 0 38 0;
#X connect 45 0 41 0;
#X connect 46 0 42 0;
#X connect 46 0 45 0;
#X connect 47 0 48 0;
#X connect 48 0 49 0;
#X connect 49 0 50 0;
#X connect 50 0 70 0;
#X connect 51 0 56 0;
#X connect 52 0 70 1;
#X connect 53 0 52 0;
#X connect 54 0 53 0;
#X connect 56 0 47 0;
#X connect 57 0 56 1;
#X connect 58 0 69 0;
#X connect 58 0 82 0;
#X connect 59 0 60 0;
#X connect 60 0 35 0;
#X connect 60 0 79 0;
#X connect 60 0 83 0;
#X connect 61 0 10 1;
#X connect 62 0 27 0;
#X connect 63 0 61 0;
#X connect 64 0 34 0;
#X connect 65 0 61 0;
#X connect 66 0 80 0;
#X connect 67 0 34 0;
#X connect 69 0 68 0;
#X connect 70 0 58 0;
#X connect 71 0 72 0;
#X connect 72 0 73 0;
#X connect 73 0 74 0;
#X connect 74 0 70 1;
#X connect 75 0 76 0;
#X connect 76 0 71 0;
#X connect 77 0 56 1;
#X connect 78 0 56 1;
#X connect 79 0 62 0;
#X connect 80 0 67 0;
#X connect 81 0 59 0;
#X connect 82 0 81 0;
#X connect 83 0 66 0;
#X connect 84 0 39 0;
#X connect 85 0 0 0;
#X connect 86 0 6 1;
#X connect 87 0 86 0;
#X connect 88 0 30 0;
#X connect 89 0 91 0;
#X connect 91 0 102 0;
#X connect 92 0 6 0;
#X connect 93 0 101 0;
#X connect 94 0 93 0;
#X connect 95 0 104 0;
#X connect 96 0 103 0;
#X connect 97 0 94 0;
#X connect 99 0 95 0;
#X connect 100 0 96 0;
#X connect 101 0 92 1;
#X connect 102 0 92 2;
#X connect 103 0 101 1;
#X connect 104 0 101 2;
#X connect 107 0 108 0;
#X connect 111 0 86 0;
