#N canvas 246 144 1360 696 12;
#X declare -path else;
#X obj 258 236 ddsp~;
#X obj 133 82 bng 15 250 50 0 empty empty empty 17 7 0 10 -262144 -1
-1;
#X obj 133 106 openpanel;
#X msg 133 135 load \$1;
#X obj 257 190 mtof;
#X obj 461 49 bng 15 250 50 0 empty empty empty 17 7 0 10 -262144 -1
-1;
#X obj 461 73 openpanel;
#X msg 461 102 read -resize \$1 impulse;
#X obj 461 131 soundfiler;
#X obj 461 160 t b;
#X msg 461 189 set impulse;
#X floatatom 360 198 5 0 0 0 - - -;
#X floatatom 287 152 5 0 0 0 - - -;
#X obj 250 280 bsaylor/partconv~ impulse 2048;
#X obj 233 318 clip~ -1 1;
#X floatatom 276 -35 5 0 0 0 - - -;
#X obj 276 21 line;
#X obj 276 -159 tgl 15 0 empty empty empty 17 7 0 10 -262144 -1 -1
0 1;
#X obj 303 -135 + 500;
#X obj 276 -84 bng 15 250 50 0 empty empty empty 17 7 0 10 -262144
-1 -1;
#X floatatom 276 47 5 0 0 0 - - -;
#X obj 276 -60 random 127;
#X obj 303 -160 random 15000;
#X obj 276 -107 metro 15000;
#X floatatom 840 -60 5 0 0 0 - - -;
#X floatatom 840 -5 5 0 0 0 - - -;
#X obj 840 -140 tgl 15 0 empty empty empty 17 7 0 10 -262144 -1 -1
0 1;
#X floatatom 881 -3 5 0 0 0 - - -;
#X msg 884 -27 50;
#X obj 890 -55 loadbang;
#X text 870 -141 stream 1 with pattern;
#X obj 840 -114 metro 40;
#X msg 918 -112 100;
#X floatatom 769 31 5 0 0 0 - - -;
#X obj 878 111 line;
#X floatatom 878 137 5 0 0 0 - - -;
#X msg 426 225 60;
#X floatatom 612 346 5 0 0 0 - - -;
#X floatatom 612 412 5 0 0 0 - - -;
#X obj 840 21 expr 3*cos($f1) + (2*$f2)/2;
#X obj 1048 -96 random 12;
#X floatatom 1048 -69 5 0 0 0 - - -;
#X obj 1048 -42 + 48;
#X floatatom 1048 -14 5 0 0 0 - - -;
#X obj 1048 -149 tgl 15 0 empty empty empty 17 7 0 10 -262144 -1 -1
1 1;
#X obj 1048 -123 metro 40;
#X msg 958 -110 500;
#X msg 940 -85 40;
#X obj 612 380 expr pow(($f1) \, 6)/10000000000;
#X msg 878 83 \$1 500;
#X obj 828 76 * 1.4;
#X obj 595 316 expr 180 - $f1;
#X msg 276 -7 \$1 1500;
#X floatatom 876 56 5 0 0 0 - - -;
#X obj -44 510 loadbang;
#X obj 488 494 hsl 128 15 -0.999 0.999 0 0 empty feedback empty -2
-6 0 8 -228856 -1 -1 12134 1;
#X text 526 517 feedback;
#X floatatom 485 516 0 0 0 0 - - -;
#X obj 247 568 fbdelay~ 200 -gain;
#X obj 253 441 osc~ 0.1;
#X floatatom 253 407 5 0 0 0 - - -;
#X floatatom 400 487 5 0 1000 0 - - -;
#X floatatom 334 435 5 1 100 0 - - -;
#X obj 256 385 hsl 128 15 0.01 3 1 0 empty rate empty -2 -8 0 10 -228856
-1 -1 3584 1;
#X text 218 408 rate;
#X obj 403 464 hsl 128 15 60 200 1 0 empty depth empty -2 -8 0 10 -228856
-1 -1 0 1;
#X obj 337 411 hsl 128 15 0 50 0 0 empty delay empty -2 -8 0 10 -228856
-1 -1 1270 1;
#X obj 308 522 rescale~;
#X obj 485 539 f2s~ 10;
#X obj 334 459 f2s~ 10;
#X obj 400 510 f2s~ 10;
#X text 374 434 delay min.;
#X text 442 486 max;
#X msg 86 420 \; rate 0.2 \; depth 100 \; delay 20 \; feedback 0.85
;
#X msg 86 505 \; rate 0.1 \; depth 30 \; delay 10 \; feedback -0.75
;
#X msg 86 590 \; rate 0.05 \; depth 15 \; delay 5 \; feedback 0.91
;
#X obj 261 678 dac~;
#X obj 840 -33 + 38;
#X obj 840 -87 random 20;
#X obj 511 -136 declare -path else;
#X msg 291 592 0.5;
#X msg 297 615 0;
#X msg -176 -58 load Users/lisek/ddsp_pytorch-master/patchs/ddsp_pretrained_violin/ddsp_debug_pretrained.ts
;
#X msg 388 -71 load /Users/lisek/ddsp_pytorch-master/patchs/ddsp_pretrained_violin/ddsp_debug_impulse.wav
;
#X text 1090 -148 Click ONLY THIS;
#X obj 261 649 *~ 0.5;
#X text 204 -159 Click;
#X msg 357 165 loadbang;
#X msg 347 113 50;
#X obj 284 94 + 28;
#X connect 0 0 13 0;
#X connect 1 0 2 0;
#X connect 2 0 3 0;
#X connect 3 0 0 0;
#X connect 4 0 0 0;
#X connect 5 0 6 0;
#X connect 6 0 7 0;
#X connect 7 0 8 0;
#X connect 8 0 9 0;
#X connect 9 0 10 0;
#X connect 10 0 13 0;
#X connect 11 0 0 1;
#X connect 12 0 4 0;
#X connect 13 0 14 0;
#X connect 14 0 58 0;
#X connect 15 0 52 0;
#X connect 16 0 20 0;
#X connect 17 0 23 0;
#X connect 18 0 23 1;
#X connect 19 0 21 0;
#X connect 20 0 89 0;
#X connect 21 0 15 0;
#X connect 22 0 18 0;
#X connect 23 0 19 0;
#X connect 23 0 22 0;
#X connect 24 0 77 0;
#X connect 25 0 39 0;
#X connect 26 0 31 0;
#X connect 27 0 39 1;
#X connect 28 0 27 0;
#X connect 29 0 28 0;
#X connect 31 0 78 0;
#X connect 32 0 31 1;
#X connect 33 0 50 0;
#X connect 34 0 35 0;
#X connect 35 0 12 0;
#X connect 35 0 51 0;
#X connect 36 0 11 0;
#X connect 37 0 48 0;
#X connect 38 0 11 0;
#X connect 39 0 33 0;
#X connect 40 0 41 0;
#X connect 41 0 42 0;
#X connect 42 0 43 0;
#X connect 43 0 39 1;
#X connect 44 0 45 0;
#X connect 45 0 40 0;
#X connect 46 0 31 1;
#X connect 47 0 31 1;
#X connect 48 0 38 0;
#X connect 49 0 34 0;
#X connect 50 0 49 0;
#X connect 51 0 37 0;
#X connect 52 0 16 0;
#X connect 53 0 50 1;
#X connect 54 0 75 0;
#X connect 55 0 57 0;
#X connect 57 0 68 0;
#X connect 58 0 85 0;
#X connect 59 0 67 0;
#X connect 60 0 59 0;
#X connect 61 0 70 0;
#X connect 62 0 69 0;
#X connect 63 0 60 0;
#X connect 65 0 61 0;
#X connect 66 0 62 0;
#X connect 67 0 58 1;
#X connect 68 0 58 2;
#X connect 69 0 67 1;
#X connect 70 0 67 2;
#X connect 77 0 25 0;
#X connect 78 0 24 0;
#X connect 80 0 85 1;
#X connect 81 0 85 1;
#X connect 82 0 0 0;
#X connect 83 0 7 0;
#X connect 85 0 76 0;
#X connect 85 0 76 1;
#X connect 87 0 11 0;
#X connect 88 0 12 0;
#X connect 89 0 12 0;
