#N canvas 862 204 956 792 12;
#X declare -path else;
#X obj 119 93 sel 0;
#X msg 120 128 reset;
#X obj 193 95 metro 1;
#X obj 266 99 / 100;
#X obj 276 133 count 0 99;
#X obj 189 173 array get grid 0 1;
#X obj 416 87 metro 100;
#X obj 413 164 pd_neuralcell;
#X msg 459 131 new_conv;
#X msg 537 131 new_gen;
#X obj 415 331 array set grid;
#X obj 419 368 array define -yrange -1.1 1.1 grid 100;
#X msg 650 129 upd_point \$1;
#X floatatom 651 95 5 0 0 0 - - -;
#X obj 219 351 dac~;
#X obj 192 209 sig~;
#X obj 209 296 *~ 0.5;
#X obj 249 32 tgl 15 0 empty empty empty 17 7 0 10 -262144 -1 -1 1
1;
#X floatatom 341 33 5 0 0 0 - - -;
#X msg 433 33 100;
#X obj 53 308 mod 99;
#X obj 309 352 out~;
#X obj 844 195 f;
#X obj 893 195 + 1;
#X obj 846 163 bng 15 250 50 0 empty empty empty 17 7 0 10 -262144
-1 -1;
#X floatatom 843 228 5 0 0 0 - - -;
#X floatatom 842 284 5 0 0 0 - - -;
#X obj 842 258 mod 100;
#X obj 126 336 else;
#X obj 57 32 declare -path else;
#X obj 58 240 else count 0 100;
#X msg 706 74 0;
#X msg 702 49 1;
#X msg 646 57 23;
#X msg 756 71 99;
#X floatatom 268 270 5 0 0 0 - - -;
#X connect 0 0 1 0;
#X connect 1 0 24 0;
#X connect 2 0 24 0;
#X connect 3 0 2 1;
#X connect 5 0 15 0;
#X connect 6 0 7 0;
#X connect 7 0 10 0;
#X connect 8 0 7 0;
#X connect 9 0 7 0;
#X connect 12 0 7 0;
#X connect 13 0 12 0;
#X connect 15 0 16 0;
#X connect 16 0 14 0;
#X connect 16 0 14 1;
#X connect 17 0 0 0;
#X connect 17 0 2 0;
#X connect 17 0 6 0;
#X connect 18 0 3 0;
#X connect 18 0 6 1;
#X connect 19 0 18 0;
#X connect 22 0 23 0;
#X connect 22 0 25 0;
#X connect 23 0 22 1;
#X connect 24 0 22 0;
#X connect 25 0 27 0;
#X connect 26 0 5 0;
#X connect 27 0 26 0;
#X connect 31 0 13 0;
#X connect 32 0 13 0;
#X connect 33 0 13 0;
#X connect 34 0 13 0;
#X connect 35 0 16 1;
