#N canvas 463 113 1232 774 12;
#X declare -path else;
#X obj 119 93 sel 0;
#X msg 120 128 reset;
#X obj 193 95 metro 1;
#X obj 266 99 / 100;
#X obj 239 139 count 0 99;
#X obj 113 169 array get grid 0 1;
#X obj 413 87 metro 100;
#X obj 413 164 pd_neuralcell;
#X msg 496 78 new_conv;
#X msg 546 108 new_gen;
#X obj 415 331 array set grid;
#X obj 419 368 array define -yrange -1.1 1.1 grid 100;
#X msg 729 122 upd_point \$1;
#X floatatom 730 88 5 0 0 0 - - -;
#X obj 354 662 dac~;
#X obj 396 507 sig~;
#X obj 359 614 *~ 0.5;
#X obj 249 32 tgl 15 0 empty empty empty 17 7 0 10 -262144 -1 -1 0
1;
#X floatatom 341 33 5 0 0 0 - - -;
#X msg 433 33 100;
#X obj 53 308 mod 99;
#X obj 430 627 out~;
#X obj 844 195 f;
#X obj 893 195 + 1;
#X obj 846 163 bng 15 250 50 0 empty empty empty 17 7 0 10 -262144
-1 -1;
#X floatatom 843 228 5 0 0 0 - - -;
#X floatatom 842 284 5 0 0 0 - - -;
#X obj 842 258 mod 100;
#X obj 126 336 else;
#X obj 57 32 declare -path else;
#X obj 58 240 else count 0 100;
#X msg 785 67 0;
#X msg 781 42 1;
#X msg 725 50 23;
#X msg 835 64 99;
#X floatatom 403 581 5 0 0 0 - - -;
#X floatatom 249 494 5 0 0 0 - - -;
#X obj 199 539 * 100;
#X msg 286 448 200;
#X msg 246 449 100;
#X obj 258 580 osc~;
#X text 229 172 activation function* -->;
#X text 264 192 slope [0.01 \, 10] -->;
#X text 278 212 phase [-9 \, 9] -->;
#X text 51 658 2 - Sigmoid: 1/(1 + e^(-x));
#X text 51 675 3 - Tanh Function: 2/(1 + e^(-2x)) - 1;
#X text 51 642 1 - Linear: a * x;
#X text 51 691 4 - Sine;
#X text 51 707 5 - x^2;
#X text 51 723 6 - x^3;
#X text 44 626 *0 - Binary: if x <= 0 \, -1 else 1;
#X text 564 76 new convolution filter;
#X text 603 106 new generation;
#X text 823 122 update starting point [0 \, 99];
#X obj 585 522 count;
#X msg 396 17 140;
#X text 971 170 counter ale reset nie dziala;
#X connect 0 0 1 0;
#X connect 1 0 4 0;
#X connect 2 0 4 0;
#X connect 3 0 2 1;
#X connect 4 0 5 0;
#X connect 5 0 15 0;
#X connect 5 0 37 0;
#X connect 6 0 7 0;
#X connect 7 0 10 0;
#X connect 8 0 7 0;
#X connect 9 0 7 0;
#X connect 12 0 7 0;
#X connect 13 0 12 0;
#X connect 15 0 16 0;
#X connect 16 0 14 0;
#X connect 16 0 14 1;
#X connect 17 0 0 0;
#X connect 17 0 2 0;
#X connect 17 0 6 0;
#X connect 18 0 3 0;
#X connect 18 0 6 1;
#X connect 19 0 18 0;
#X connect 22 0 23 0;
#X connect 22 0 25 0;
#X connect 23 0 22 1;
#X connect 24 0 22 0;
#X connect 25 0 27 0;
#X connect 27 0 26 0;
#X connect 31 0 13 0;
#X connect 32 0 13 0;
#X connect 33 0 13 0;
#X connect 34 0 13 0;
#X connect 35 0 16 1;
#X connect 36 0 37 1;
#X connect 37 0 40 0;
#X connect 38 0 36 0;
#X connect 39 0 36 0;
#X connect 55 0 18 0;
