#N canvas 22 22 1258 642 10;
#X obj 55 372 osc~;
#X obj 55 324 mtof;
#X floatatom 55 350 5 0 0 0 - - -;
#X obj 34 114 tgl 15 0 empty empty empty 0 -6 0 8 -262144 -1 -1 1 1
;
#X text 54 110 start;
#X obj 55 299 + 60;
#X obj 55 268 random 40;
#X obj 55 234 metro;
#X obj 125 91 random 100;
#X obj 125 153 bng 15 250 50 0 empty empty empty 0 -6 0 8 -262144 -1
-1;
#X obj 184 170 bng 15 250 50 0 empty empty empty 0 -6 0 8 -262144 -1
-1;
#X obj 243 170 bng 15 250 50 0 empty empty empty 0 -6 0 8 -262144 -1
-1;
#X msg 118 201 1500;
#X msg 197 201 100;
#X msg 158 201 500;
#X obj 125 118 moses 5;
#X obj 184 145 moses 15;
#X text 158 281 glissando duration (ms);
#X obj 313 333 phasor~;
#X floatatom 313 304 5 0 0 0 - - -;
#X floatatom 428 295 5 0 0 0 - - -;
#X obj 428 324 osc~;
#X obj 538 326 line~;
#X obj 538 301 pack 0 50;
#X obj 538 277 / 100;
#X floatatom 538 250 5 0 0 0 - - -;
#X obj 429 372 *~;
#X obj 313 407 +~;
#X obj 312 461 cos~;
#X obj 311 498 *~ 0.5;
#X obj 311 536 dac~;
#X text 313 260 Carrier;
#X text 315 280 Frequency;
#X text 424 271 Frequency;
#X text 422 252 Modulation;
#X text 529 219 in Hundredths;
#X floatatom 382 468 5 0 0 0 - - -;
#X obj 614 437 osc~;
#X obj 614 382 mtof;
#X floatatom 614 408 5 0 0 0 - - -;
#X obj 589 41 tgl 15 0 empty empty empty 0 -6 0 8 -262144 -1 -1 1 1
;
#X text 609 37 start;
#X obj 614 357 + 60;
#X obj 614 326 random 40;
#X obj 614 292 metro;
#X obj 684 149 random 100;
#X obj 684 211 bng 15 250 50 0 empty empty empty 0 -6 0 8 -262144 -1
-1;
#X obj 743 228 bng 15 250 50 0 empty empty empty 0 -6 0 8 -262144 -1
-1;
#X obj 802 228 bng 15 250 50 0 empty empty empty 0 -6 0 8 -262144 -1
-1;
#X msg 677 259 1500;
#X msg 756 259 100;
#X msg 717 259 500;
#X obj 684 176 moses 5;
#X obj 743 203 moses 15;
#X obj 893 169 line;
#X obj 785 152 line;
#X obj 701 77 sel 1;
#X floatatom 786 178 5 0 0 0 - - -;
#X floatatom 894 199 5 0 0 0 - - -;
#X msg 785 129 0 \, 50 35000;
#X msg 893 146 0 \, 80 35000;
#X obj 987 483 osc~;
#X obj 987 435 mtof;
#X floatatom 987 461 5 0 0 0 - - -;
#X obj 968 13 tgl 15 0 empty empty empty 0 -6 0 8 -262144 -1 -1 1 1
;
#X text 988 9 start;
#X obj 987 410 + 60;
#X obj 987 379 random 40;
#X obj 987 345 metro;
#X obj 1063 121 random 100;
#X obj 1063 183 bng 15 250 50 0 empty empty empty 0 -6 0 8 -262144
-1 -1;
#X obj 1122 200 bng 15 250 50 0 empty empty empty 0 -6 0 8 -262144
-1 -1;
#X obj 1181 200 bng 15 250 50 0 empty empty empty 0 -6 0 8 -262144
-1 -1;
#X obj 1063 148 moses 5;
#X obj 1122 175 moses 15;
#X obj 1272 141 line;
#X obj 1164 124 line;
#X obj 1080 49 sel 1;
#X floatatom 1165 150 5 0 0 0 - - -;
#X floatatom 1273 171 5 0 0 0 - - -;
#X msg 1164 101 0 \, 50 35000;
#X msg 1272 118 0 \, 80 35000;
#X obj 1040 252 random 100;
#X obj 1040 277 + 1450;
#X floatatom 1040 301 5 0 0 0 - - -;
#X obj 1130 251 random 100;
#X floatatom 1130 300 5 0 0 0 - - -;
#X obj 1130 276 + 450;
#X obj 1221 250 random 100;
#X floatatom 1221 299 5 0 0 0 - - -;
#X obj 1221 275 + 50;
#X connect 0 0 27 0;
#X connect 1 0 2 0;
#X connect 2 0 0 0;
#X connect 3 0 7 0;
#X connect 5 0 1 0;
#X connect 6 0 5 0;
#X connect 7 0 6 0;
#X connect 7 0 8 0;
#X connect 8 0 15 0;
#X connect 9 0 12 0;
#X connect 10 0 14 0;
#X connect 11 0 13 0;
#X connect 12 0 7 1;
#X connect 13 0 7 1;
#X connect 14 0 7 1;
#X connect 15 0 9 0;
#X connect 15 1 16 0;
#X connect 16 0 10 0;
#X connect 16 1 11 0;
#X connect 18 0 27 0;
#X connect 19 0 18 0;
#X connect 20 0 21 0;
#X connect 21 0 26 0;
#X connect 22 0 26 1;
#X connect 23 0 22 0;
#X connect 24 0 23 0;
#X connect 25 0 24 0;
#X connect 26 0 27 1;
#X connect 27 0 28 0;
#X connect 28 0 29 0;
#X connect 29 0 30 0;
#X connect 29 0 30 1;
#X connect 36 0 29 1;
#X connect 37 0 27 0;
#X connect 38 0 39 0;
#X connect 39 0 37 0;
#X connect 40 0 44 0;
#X connect 40 0 56 0;
#X connect 42 0 38 0;
#X connect 43 0 42 0;
#X connect 44 0 43 0;
#X connect 44 0 45 0;
#X connect 45 0 52 0;
#X connect 46 0 49 0;
#X connect 47 0 51 0;
#X connect 48 0 50 0;
#X connect 49 0 44 1;
#X connect 50 0 44 1;
#X connect 51 0 44 1;
#X connect 52 0 46 0;
#X connect 52 1 53 0;
#X connect 53 0 47 0;
#X connect 53 1 48 0;
#X connect 54 0 53 1;
#X connect 54 0 58 0;
#X connect 55 0 52 1;
#X connect 55 0 57 0;
#X connect 56 0 59 0;
#X connect 56 0 60 0;
#X connect 59 0 55 0;
#X connect 60 0 54 0;
#X connect 61 0 27 0;
#X connect 62 0 63 0;
#X connect 63 0 61 0;
#X connect 64 0 68 0;
#X connect 64 0 77 0;
#X connect 66 0 62 0;
#X connect 67 0 66 0;
#X connect 68 0 67 0;
#X connect 68 0 69 0;
#X connect 69 0 73 0;
#X connect 70 0 82 0;
#X connect 71 0 85 0;
#X connect 72 0 88 0;
#X connect 73 0 70 0;
#X connect 73 1 74 0;
#X connect 74 0 71 0;
#X connect 74 1 72 0;
#X connect 75 0 74 1;
#X connect 75 0 79 0;
#X connect 76 0 73 1;
#X connect 76 0 78 0;
#X connect 77 0 80 0;
#X connect 77 0 81 0;
#X connect 80 0 76 0;
#X connect 81 0 75 0;
#X connect 82 0 83 0;
#X connect 83 0 84 0;
#X connect 84 0 68 1;
#X connect 85 0 87 0;
#X connect 86 0 68 1;
#X connect 87 0 86 0;
#X connect 88 0 90 0;
#X connect 89 0 68 1;
#X connect 90 0 89 0;
