#N canvas 193 60 843 551 10;
#X obj 99 78 random 100;
#X obj 197 80 random 100;
#X obj 99 21 bng 15 250 50 0 empty empty empty 17 7 0 10 -262144 -1
-1;
#X obj 197 23 tgl 15 0 empty empty empty 17 7 0 10 -262144 -1 -1 1
1;
#X floatatom 99 127 5 0 0 0 - - -;
#X obj 197 51 metro 1000;
#X floatatom 197 125 5 0 0 0 - - -;
#X obj 297 81 random 100;
#X obj 297 24 tgl 15 0 empty empty empty 17 7 0 10 -262144 -1 -1 1
1;
#X obj 297 52 metro 1000;
#X floatatom 297 126 5 0 0 0 - - -;
#X msg 391 17 seed 17;
#X obj 196 167 tgl 15 0 empty empty empty 17 7 0 10 -262144 -1 -1 1
1;
#X obj 196 195 metro 1000;
#X floatatom 196 269 5 0 0 0 - - -;
#X obj 196 224 randomF 1;
#X obj 298 164 tgl 15 0 empty empty empty 17 7 0 10 -262144 -1 -1 1
1;
#X obj 298 192 metro 1000;
#X floatatom 299 284 5 0 0 0 - - -;
#X obj 299 252 unpack f f f;
#X floatatom 341 284 5 0 0 0 - - -;
#X floatatom 385 284 5 0 0 0 - - -;
#X obj 299 221 tripleRand 10 5 33;
#X msg 428 187 4 6 666;
#X obj 511 168 tgl 15 0 empty empty empty 17 7 0 10 -262144 -1 -1 1
1;
#X obj 511 196 metro 1000;
#X floatatom 511 270 5 0 0 0 - - -;
#X obj 511 245 drunk 10;
#X msg 586 211 30;
#X msg 629 228 5;
#X text 612 210 granica gorna;
#X text 657 227 step;
#X obj 308 371 unpack f f f f;
#X obj 308 486 *~;
#X obj 301 515 dac~;
#X obj 308 456 osc~;
#X floatatom 365 486 5 0 0 0 - - -;
#X floatatom 308 404 5 0 0 0 - - -;
#X floatatom 354 404 5 0 0 0 - - -;
#X floatatom 397 405 5 0 0 0 - - -;
#X floatatom 442 406 5 0 0 0 - - -;
#X msg 309 340 164 166 173 195;
#X obj 354 454 osc~;
#X obj 397 453 osc~;
#X obj 443 451 osc~;
#X msg 417 341 254 256 263 275;
#X connect 0 0 4 0;
#X connect 1 0 6 0;
#X connect 2 0 0 0;
#X connect 3 0 5 0;
#X connect 5 0 1 0;
#X connect 7 0 10 0;
#X connect 8 0 9 0;
#X connect 9 0 7 0;
#X connect 11 0 7 0;
#X connect 12 0 13 0;
#X connect 13 0 15 0;
#X connect 15 0 14 0;
#X connect 16 0 17 0;
#X connect 17 0 22 0;
#X connect 19 0 18 0;
#X connect 19 1 20 0;
#X connect 19 2 21 0;
#X connect 22 0 19 0;
#X connect 24 0 25 0;
#X connect 25 0 27 0;
#X connect 27 0 26 0;
#X connect 28 0 27 1;
#X connect 29 0 27 2;
#X connect 32 0 37 0;
#X connect 32 1 38 0;
#X connect 32 2 39 0;
#X connect 32 3 40 0;
#X connect 33 0 34 0;
#X connect 33 0 34 1;
#X connect 35 0 33 0;
#X connect 36 0 33 1;
#X connect 37 0 35 0;
#X connect 38 0 42 0;
#X connect 39 0 43 0;
#X connect 40 0 44 0;
#X connect 41 0 32 0;
#X connect 42 0 33 0;
#X connect 43 0 33 0;
#X connect 44 0 33 0;
#X connect 45 0 32 0;
