#N canvas 91 160 1647 869 12;
#X obj 32 359 list prepend add;
#X obj 75 497 print mapped;
#X obj 210 469 print info;
#X msg 12 80 train;
#X obj 269 319 list prepend map;
#X msg 50 275 1 0 1;
#X msg 109 280 2 1 0;
#X msg 309 244 0 1;
#X msg 373 246 1 0;
#X obj 33 384 list trim;
#X msg 345 216 0.5 0.5;
#X msg 201 300 help;
#X floatatom 85 452 5 0 0 0 - - -;
#X obj 392 360 list trim;
#X obj 392 333 list prepend add;
#X obj 685 137 - 100;
#X obj 657 106 t a a;
#X obj 657 59 line;
#X msg 724 82 0;
#X msg 618 10 100 1000;
#X msg 746 144 1;
#X msg 785 146 2;
#X obj 672 246 print;
#X msg 716 56 100 0;
#X obj 340 182 list prepend map;
#X msg 172 159 0 1;
#X msg 236 161 1 0;
#X msg 208 131 0.5 0.5;
#X msg 770 9 200 1000;
#X obj 60 409 ml.svm;
#X msg 59 140 clear;
#X msg 510 66 120 123;
#X obj 657 177 pack f f 1;
#X msg 504 29 180 184;
#X msg 657 205 \$3 \$1 \$2;
#X msg 371 36 70.5 30.6;
#X msg 373 61 190.6 188.4;
#X obj 695 386 random 200;
#X obj 699 336 metro 500;
#X obj 704 307 tgl 15 0 empty empty empty 17 7 0 10 -262144 -1 -1 0
1;
#X floatatom 700 434 5 0 0 0 - - -;
#X obj 860 587 print;
#X obj 797 515 pack f f;
#X msg 797 543 \$1 \$2;
#X obj 814 390 random 200;
#X floatatom 819 438 5 0 0 0 - - -;
#X text 784 319 Random Test;
#X text 363 114 Testing;
#X text 56 82 click it after adding streams;
#X text 80 588 write/read trained model;
#X text 857 44 TRAINING two streams;
#X obj 649 356 bng 15 250 50 0 empty empty empty 17 7 0 10 -262144
-1 -1;
#X text 470 185 MAP;
#X obj 259 703 moses 69;
#X floatatom 259 670 5 0 0 0 - - -;
#X obj 300 741 bng 15 250 50 0 empty empty empty 17 7 0 10 -262144
-1 -1;
#X obj 259 737 bng 15 250 50 0 empty empty empty 17 7 0 10 -262144
-1 -1;
#X msg 259 799 1;
#X msg 302 801 2;
#X obj 259 765 t b;
#X obj 301 770 t b;
#X obj 1063 231 tgl 15 0 empty empty empty 17 7 0 10 -262144 -1 -1
0 1;
#X floatatom 1064 332 5 0 0 0 - - -;
#X obj 1110 397 bng 15 250 50 0 empty empty empty 17 7 0 10 -262144
-1 -1;
#X obj 1064 399 bng 15 250 50 0 empty empty empty 17 7 0 10 -262144
-1 -1;
#X msg 1064 458 1;
#X msg 1110 458 2;
#X obj 1064 427 t b;
#X obj 1110 426 t b;
#X obj 1064 305 random 3;
#X obj 1064 365 moses 1;
#X msg 567 305 130 30;
#X msg 546 119 15 88;
#X msg 548 147 56 46;
#X obj 1335 481 bng 15 250 50 0 empty empty empty 17 7 0 10 -262144
-1 -1;
#X obj 1267 481 bng 15 250 50 0 empty empty empty 17 7 0 10 -262144
-1 -1;
#X msg 1267 540 1;
#X msg 1336 542 2;
#X obj 1267 509 t b;
#X obj 1336 510 t b;
#X obj 1266 336 unpack;
#X floatatom 1266 364 0 0 0 0 - - -;
#X floatatom 1337 361 0 0 0 0 - - -;
#X obj 1201 304 fiddle~ 1024 1 20 3;
#X obj 1201 244 adc~;
#X obj 1254 272 tgl 15 0 empty empty empty 17 7 0 10 -262144 -1 -1
0 1;
#X obj 1201 275 *~;
#X obj 1349 271 tgl 15 0 empty empty empty 17 7 0 10 -262144 -1 -1
0 1;
#X obj 1296 274 *~;
#X obj 1296 243 noise~;
#X obj 1469 318 lop~;
#X text 1377 365 maybe better connect to loudnes;
#X text 1509 323 more stable ?;
#X msg 542 225 99.9967 0.00326538;
#X msg 525 201 100 0.039585;
#X obj 1064 280 metro 150;
#X obj 701 810 noteout 1;
#X obj 701 775 makenote 127 250;
#X obj 384 757 bng 15 250 50 0 empty empty empty 17 7 0 10 -262144
-1 -1;
#X obj 432 757 bng 15 250 50 0 empty empty empty 17 7 0 10 -262144
-1 -1;
#X msg 432 807 0;
#X floatatom 385 700 5 0 0 0 - - -;
#X obj 385 727 moses 2;
#X msg 567 278 180 184;
#X obj 383 780 t b;
#X obj 431 780 t b;
#X msg 57 565 write /Users/lisek/Desktop/model03;
#X msg 36 612 read /Users/lisek/Desktop/model03;
#X obj 1184 669 random 200;
#X obj 1184 638 metro 500;
#X obj 1184 612 tgl 15 0 empty empty empty 17 7 0 10 -262144 -1 -1
0 1;
#X floatatom 1184 699 5 0 0 0 - - -;
#X obj 1184 734 pack f f;
#X msg 1184 762 \$1 \$2;
#X obj 1282 662 random 200;
#X floatatom 1284 695 5 0 0 0 - - -;
#X text 1328 632 Random Test;
#X msg 1245 599 300;
#X msg 1221 583 70;
#X text 627 295 main test;
#X msg 1271 621 150;
#X text 1333 448 choose corect number for ON/OFF!;
#X obj 756 675 bng 15 250 50 0 empty empty empty 17 7 0 10 -262144
-1 -1;
#X obj 795 676 bng 15 250 50 0 empty empty empty 17 7 0 10 -262144
-1 -1;
#X msg 795 730 0;
#X floatatom 756 622 5 0 0 0 - - -;
#X obj 756 698 t b;
#X obj 795 699 t b;
#X obj 756 648 select;
#X obj 756 597 - 1;
#X msg 741 729 100;
#X msg 383 807 100;
#X text 812 172 1 when you hear sound from mic and 2 when you dont
have sound;
#X obj 515 773 spigot;
#X obj 439 576 bng 15 250 50 0 empty empty empty 17 7 0 10 -262144
-1 -1;
#X obj 478 577 bng 15 250 50 0 empty empty empty 17 7 0 10 -262144
-1 -1;
#X msg 487 638 0;
#X floatatom 439 523 5 0 0 0 - - -;
#X obj 439 599 t b;
#X obj 478 600 t b;
#X obj 439 549 select;
#X obj 439 498 - 1;
#X msg 439 631 1;
#X floatatom 516 814 5 0 0 0 - - -;
#X floatatom 1304 836 5 0 0 0 - - -;
#X msg 1288 583 1000;
#X obj 1301 796 unpack f f;
#X floatatom 1378 829 5 0 0 0 - - -;
#X floatatom 1191 811 5 0 0 0 - - -;
#X msg 1171 567 40;
#X floatatom 1334 745 5 0 0 0 - - -;
#X msg 1127 581 10;
#X obj 872 767 pack 0 1000;
#X obj 872 791 line 50 10;
#X floatatom 851 665 5 0 0 0 - - -;
#X obj 851 721 line;
#X msg 851 693 \$1 100;
#X text 907 695 < you can add [line] between!;
#X floatatom 642 663 5 0 0 0 - - -;
#X obj 642 719 line;
#X msg 642 691 50 100;
#X floatatom 829 758 5 0 0 0 - - -;
#X floatatom 604 745 5 0 0 0 - - -;
#X obj 1264 389 lop~ 1;
#X obj 1471 579 snapshot~;
#X floatatom 1472 604 0 0 0 0 - - -;
#X obj 1471 489 loadbang;
#X msg 1480 513 \; pd dsp 1;
#X obj 1267 447 moses 80;
#X obj 1471 553 metro 200;
#X text 1361 395 by lop~ it is more stable;
#X connect 0 0 9 0;
#X connect 3 0 29 0;
#X connect 4 0 9 0;
#X connect 5 0 0 0;
#X connect 6 0 0 0;
#X connect 7 0 4 0;
#X connect 8 0 4 0;
#X connect 9 0 29 0;
#X connect 10 0 4 0;
#X connect 11 0 29 0;
#X connect 12 0 141 0;
#X connect 12 0 129 0;
#X connect 13 0 29 0;
#X connect 14 0 13 0;
#X connect 15 0 32 1;
#X connect 16 0 32 0;
#X connect 16 1 15 0;
#X connect 17 0 16 0;
#X connect 18 0 17 0;
#X connect 19 0 17 0;
#X connect 20 0 32 2;
#X connect 21 0 32 2;
#X connect 23 0 17 0;
#X connect 24 0 9 0;
#X connect 25 0 24 0;
#X connect 26 0 24 0;
#X connect 27 0 24 0;
#X connect 28 0 17 0;
#X connect 29 0 1 0;
#X connect 29 0 12 0;
#X connect 29 1 2 0;
#X connect 30 0 29 0;
#X connect 31 0 24 0;
#X connect 32 0 34 0;
#X connect 33 0 24 0;
#X connect 34 0 14 0;
#X connect 34 0 22 0;
#X connect 35 0 24 0;
#X connect 36 0 24 0;
#X connect 37 0 40 0;
#X connect 38 0 37 0;
#X connect 38 0 44 0;
#X connect 39 0 38 0;
#X connect 40 0 42 0;
#X connect 42 0 43 0;
#X connect 43 0 24 0;
#X connect 44 0 45 0;
#X connect 45 0 42 1;
#X connect 51 0 37 0;
#X connect 51 0 44 0;
#X connect 53 0 56 0;
#X connect 53 1 55 0;
#X connect 54 0 53 0;
#X connect 55 0 60 0;
#X connect 56 0 59 0;
#X connect 59 0 57 0;
#X connect 60 0 58 0;
#X connect 61 0 19 0;
#X connect 61 0 95 0;
#X connect 61 0 28 0;
#X connect 62 0 70 0;
#X connect 63 0 68 0;
#X connect 64 0 67 0;
#X connect 65 0 32 2;
#X connect 66 0 32 2;
#X connect 67 0 65 0;
#X connect 68 0 66 0;
#X connect 69 0 62 0;
#X connect 70 0 64 0;
#X connect 70 1 63 0;
#X connect 71 0 24 0;
#X connect 72 0 24 0;
#X connect 73 0 24 0;
#X connect 74 0 79 0;
#X connect 75 0 78 0;
#X connect 78 0 76 0;
#X connect 79 0 77 0;
#X connect 80 0 81 0;
#X connect 80 1 82 0;
#X connect 81 0 163 0;
#X connect 83 2 80 0;
#X connect 84 0 86 0;
#X connect 85 0 86 1;
#X connect 86 0 83 0;
#X connect 87 0 88 1;
#X connect 88 0 83 0;
#X connect 89 0 88 0;
#X connect 93 0 24 0;
#X connect 94 0 24 0;
#X connect 95 0 69 0;
#X connect 97 0 96 0;
#X connect 97 1 96 1;
#X connect 98 0 104 0;
#X connect 99 0 105 0;
#X connect 101 0 102 0;
#X connect 102 0 98 0;
#X connect 102 1 99 0;
#X connect 103 0 24 0;
#X connect 104 0 131 0;
#X connect 105 0 100 0;
#X connect 106 0 29 0;
#X connect 107 0 29 0;
#X connect 108 0 111 0;
#X connect 109 0 108 0;
#X connect 109 0 114 0;
#X connect 110 0 109 0;
#X connect 111 0 112 0;
#X connect 111 0 133 0;
#X connect 112 0 113 0;
#X connect 112 0 146 0;
#X connect 112 0 150 0;
#X connect 113 0 24 0;
#X connect 113 0 148 0;
#X connect 114 0 115 0;
#X connect 115 0 112 1;
#X connect 115 0 133 0;
#X connect 117 0 109 1;
#X connect 117 0 110 0;
#X connect 118 0 109 1;
#X connect 118 0 110 0;
#X connect 120 0 110 0;
#X connect 120 0 109 1;
#X connect 122 0 126 0;
#X connect 123 0 127 0;
#X connect 124 0 97 1;
#X connect 125 0 128 0;
#X connect 126 0 130 0;
#X connect 126 0 160 0;
#X connect 127 0 124 0;
#X connect 128 0 122 0;
#X connect 128 1 123 0;
#X connect 129 0 125 0;
#X connect 133 0 143 0;
#X connect 134 0 138 0;
#X connect 135 0 139 0;
#X connect 136 0 133 1;
#X connect 137 0 140 0;
#X connect 138 0 142 0;
#X connect 139 0 136 0;
#X connect 140 0 134 0;
#X connect 140 1 135 0;
#X connect 141 0 137 0;
#X connect 142 0 133 1;
#X connect 143 0 97 0;
#X connect 145 0 110 0;
#X connect 145 0 109 1;
#X connect 146 0 144 0;
#X connect 146 1 147 0;
#X connect 149 0 110 0;
#X connect 149 0 109 1;
#X connect 151 0 110 0;
#X connect 151 0 109 1;
#X connect 152 0 153 0;
#X connect 154 0 156 0;
#X connect 156 0 155 0;
#X connect 158 0 160 0;
#X connect 159 0 97 1;
#X connect 159 0 162 0;
#X connect 160 0 159 0;
#X connect 161 0 97 2;
#X connect 163 0 164 0;
#X connect 164 0 165 0;
#X connect 164 0 165 0;
#X connect 165 0 168 0;
#X connect 166 0 167 0;
#X connect 166 0 169 0;
#X connect 168 0 75 0;
#X connect 168 1 74 0;
#X connect 169 0 164 0;
