#N canvas 488 23 1014 821 10;
#X msg 574 21 \; pd dsp 0;
#X obj 456 64 s start;
#X obj 456 23 loadbang;
#X obj 456 45 bng 15 250 50 0 empty empty empty 20 8 0 8 -24198 -1
-1;
#X obj 147 70 openpanel;
#X obj 147 51 bng 15 250 50 0 empty empty empty 20 8 0 8 -24198 -1
-1;
#X symbolatom 147 92 40 0 0 0 - - -;
#X obj 126 73 bng 15 250 50 0 empty empty empty 20 8 0 8 -262144 -1
-1;
#X obj 762 410 s bpm;
#X floatatom 762 382 5 0 0 0 - - -;
#X msg 762 360 120;
#N canvas 0 22 298 306 bpm-to-playrate 0;
#X obj 122 33 r samplesize;
#X obj 38 34 r bpm;
#X obj 74 32 r bpbar;
#X obj 130 104 samplerate~;
#X obj 106 6 r start;
#X obj 50 108 /;
#X obj 50 86 t b f;
#X obj 122 128 /;
#X msg 92 130 60;
#X obj 110 174 /;
#X obj 112 152 t b f;
#X floatatom 108 198 5 0 0 0 - - -;
#X floatatom 50 132 5 0 0 0 - - -;
#X obj 90 244 /;
#X obj 96 222 t b f;
#X obj 91 273 outlet;
#X msg 92 57 4;
#X text 132 55 <-- assumes 4 beats per bar here;
#X connect 0 0 7 0;
#X connect 1 0 5 0;
#X connect 2 0 6 0;
#X connect 3 0 7 1;
#X connect 4 0 3 0;
#X connect 4 0 8 0;
#X connect 4 0 16 0;
#X connect 5 0 12 0;
#X connect 6 0 5 0;
#X connect 6 1 5 1;
#X connect 7 0 10 0;
#X connect 8 0 9 0;
#X connect 9 0 11 0;
#X connect 10 0 9 0;
#X connect 10 1 9 1;
#X connect 11 0 14 0;
#X connect 12 0 13 0;
#X connect 13 0 15 0;
#X connect 14 0 13 0;
#X connect 14 1 13 1;
#X connect 16 0 6 0;
#X restore 764 464 pd bpm-to-playrate;
#X floatatom 764 486 5 0 0 0 - - -;
#X obj 764 515 s playrate;
#N canvas 0 22 274 288 tap-bpm 0;
#X obj 47 26 inlet;
#X obj 45 68 bng 15 250 50 0 empty empty empty 20 8 0 8 -262144 -1
-1;
#X obj 47 104 timer;
#X floatatom 47 128 5 0 0 0 - - -;
#X obj 67 154 mavg;
#X msg 91 105 3;
#X obj 51 179 /;
#X msg 25 155 60000;
#X obj 51 247 outlet;
#X connect 0 0 1 0;
#X connect 1 0 2 1;
#X connect 1 0 2 0;
#X connect 1 0 5 0;
#X connect 1 0 7 0;
#X connect 2 0 3 0;
#X connect 3 0 4 0;
#X connect 4 0 6 1;
#X connect 5 0 4 1;
#X connect 6 0 8 0;
#X connect 7 0 6 0;
#X restore 818 361 pd tap-bpm;
#X obj 818 341 bng 15 250 50 0 empty empty empty 20 8 0 8 -24198 -1
-1;
#X obj 816 411 s bpm;
#X floatatom 817 383 5 0 0 0 - - -;
#X obj 456 100 bng 15 250 50 0 empty empty empty 0 -6 0 8 -24198 -1
-1;
#X obj 456 118 s retrigger;
#X msg 29 73 funkyd.wav;
#N canvas 710 149 654 782 silo 0;
#X obj 54 143 vsl 15 400 0 1 0 0 empty empty grain-position -24 -32
0 8 -241291 -258699 -143491 0 0;
#X obj 79 144 vsl 15 400 0 1 0 0 empty empty empty 20 8 0 8 -44926
-258699 -1 0 1;
#N canvas 694 22 568 482 autoplaycontrol 0;
#X obj 30 355 phasor~;
#X obj 30 331 /;
#X obj 30 377 snapshot~;
#X obj 132 195 /;
#X obj 132 265 * 1000;
#X obj 160 151 samplerate~;
#X obj 80 333 tgl 15 0 empty empty empty 20 8 0 8 -262144 -1 -1 1 1
;
#X obj 146 173 *;
#X obj 132 309 /;
#X obj 132 287 t b f;
#X obj 88 311 != 0;
#X obj 30 438 outlet;
#X obj 132 242 /;
#X obj 132 218 t b f;
#X msg 68 210 0;
#X obj 132 330 abs;
#X obj 142 440 outlet;
#X obj 30 269 t b f;
#X text 157 341 <-- milliseconds per grain position update at the current
set of parameters;
#X obj 117 124 t b b;
#X obj 160 125 t b f;
#X obj 80 354 metro 100;
#X obj 70 54 r grainsize;
#X obj 124 31 r start;
#X obj 44 31 r samplesize;
#X obj 144 54 r playrate;
#X obj 176 31 r play-grain-density;
#X obj 215 54 r graintranspose;
#X obj 106 8 r retrigger;
#X obj 144 397 tgl 15 0 empty empty empty 20 8 0 8 -262144 -1 -1 0
1;
#X obj 142 416 metro 100;
#X obj 152 375 == 0;
#X obj 30 398 spigot;
#X obj 254 193 /;
#X obj 254 263 * 1000;
#X obj 282 149 samplerate~;
#X obj 268 171 *;
#X obj 254 307 /;
#X obj 254 285 t b f;
#X obj 254 240 /;
#X obj 254 216 t b f;
#X obj 254 328 abs;
#X obj 245 122 t b b;
#X obj 282 123 t b f;
#X msg 281 100 1;
#X text 225 70 repeat of whole rate calculator for the stationary rate
(random grain play);
#X connect 0 0 2 0;
#X connect 1 0 0 0;
#X connect 2 0 32 0;
#X connect 3 0 12 0;
#X connect 4 0 8 0;
#X connect 5 0 7 1;
#X connect 6 0 21 0;
#X connect 6 0 32 1;
#X connect 7 0 3 1;
#X connect 7 0 1 0;
#X connect 8 0 15 0;
#X connect 9 0 8 0;
#X connect 9 1 8 1;
#X connect 10 0 6 0;
#X connect 12 0 4 0;
#X connect 13 0 12 0;
#X connect 13 1 12 1;
#X connect 14 0 0 1;
#X connect 15 0 21 1;
#X connect 17 0 1 0;
#X connect 17 1 1 1;
#X connect 19 0 14 0;
#X connect 19 1 5 0;
#X connect 20 0 3 0;
#X connect 20 1 7 0;
#X connect 21 0 2 0;
#X connect 22 0 3 0;
#X connect 22 0 33 0;
#X connect 23 0 19 0;
#X connect 23 0 42 0;
#X connect 24 0 17 0;
#X connect 25 0 20 0;
#X connect 25 0 10 0;
#X connect 25 0 31 0;
#X connect 26 0 9 0;
#X connect 26 0 38 0;
#X connect 27 0 13 0;
#X connect 27 0 40 0;
#X connect 28 0 19 0;
#X connect 29 0 30 0;
#X connect 29 0 44 0;
#X connect 30 0 16 0;
#X connect 31 0 29 0;
#X connect 32 0 11 0;
#X connect 33 0 39 0;
#X connect 34 0 37 0;
#X connect 35 0 36 1;
#X connect 36 0 33 1;
#X connect 37 0 41 0;
#X connect 38 0 37 0;
#X connect 38 1 37 1;
#X connect 39 0 34 0;
#X connect 40 0 39 0;
#X connect 40 1 39 1;
#X connect 41 0 30 1;
#X connect 42 1 35 0;
#X connect 43 0 33 0;
#X connect 43 1 36 0;
#X connect 44 0 43 0;
#X restore 38 -3 pd autoplaycontrol;
#N canvas 508 22 306 212 grainpos-calc 0;
#X obj 40 22 inlet;
#X obj 102 22 inlet;
#X obj 132 81 tgl 15 0 empty empty empty 20 8 0 8 -262144 -1 -1 0 1
;
#X obj 45 146 s grainposition;
#X obj 132 59 > 0;
#X obj 143 23 r random-rate;
#N canvas 0 22 454 216 rand-ms 0;
#X obj 90 30 inlet;
#X obj 144 32 inlet;
#X obj 24 168 outlet;
#X obj 11 66 noise~;
#X obj 19 144 snapshot~;
#X obj 91 68 metro 100;
#X obj 11 88 /~ 2;
#X obj 11 110 +~ 0.5;
#X text 102 112 produces a random number between o and 1 every x milliseconds
where x is on the second inlet. defaults to 100ms per random value
;
#X connect 0 0 5 0;
#X connect 1 0 5 1;
#X connect 3 0 6 0;
#X connect 4 0 2 0;
#X connect 5 0 4 0;
#X connect 6 0 7 0;
#X connect 7 0 4 0;
#X restore 132 100 pd rand-ms;
#N canvas 0 22 456 306 range 0;
#X obj 20 22 inlet;
#X obj 78 22 inlet;
#X obj 132 22 inlet;
#X obj 96 134 +;
#X obj 78 44 / 2;
#X obj 44 134 -;
#X obj 78 66 t b f;
#X obj 36 234 outlet;
#X text 121 183 takes a centre float and a range float and a position
(0 to 1) and outputs a number proportionately within the range from
the centre figure;
#N canvas 0 22 506 302 from-to 0;
#X obj 91 150 *;
#X obj 61 120 -;
#X obj 45 94 t b f;
#X obj 91 120 t b f;
#X obj 131 120 t;
#X obj 81 178 +;
#X obj 10 20 inlet;
#X obj 194 20 inlet;
#X obj 76 262 outlet;
#X obj 54 20 inlet;
#X text 131 161 takes a left limit and a right limit and a position
(0 to 1) and outputs a number proportionally distanced between the
left and right limits;
#X connect 0 0 5 0;
#X connect 1 0 0 0;
#X connect 2 0 1 0;
#X connect 2 0 5 0;
#X connect 2 1 1 1;
#X connect 2 1 5 1;
#X connect 3 0 0 0;
#X connect 3 1 0 1;
#X connect 4 0 0 0;
#X connect 5 0 8 0;
#X connect 6 0 2 0;
#X connect 7 0 4 0;
#X connect 7 0 1 0;
#X connect 9 0 3 0;
#X restore 44 158 pd from-to;
#X connect 0 0 3 0;
#X connect 0 0 5 0;
#X connect 1 0 4 0;
#X connect 2 0 9 1;
#X connect 3 0 9 2;
#X connect 4 0 6 0;
#X connect 5 0 9 0;
#X connect 6 0 3 0;
#X connect 6 0 5 0;
#X connect 6 1 3 1;
#X connect 6 1 5 1;
#X connect 9 0 7 0;
#X restore 45 124 pd range;
#X connect 0 0 7 0;
#X connect 1 0 4 0;
#X connect 1 0 7 1;
#X connect 2 0 6 0;
#X connect 4 0 2 0;
#X connect 5 0 6 1;
#X connect 6 0 7 2;
#X connect 7 0 3 0;
#X restore 47 703 pd grainpos-calc;
#X obj 51 41 s random-rate;
#N canvas 536 24 454 304 bang-timer 0;
#X obj 47 26 inlet;
#X obj 45 68 bng 15 250 50 0 empty empty empty 20 8 0 8 -262144 -1
-1;
#X obj 47 104 timer;
#X obj 67 154 mavg;
#X msg 91 105 3;
#X obj 51 247 outlet;
#X connect 0 0 1 0;
#X connect 1 0 2 1;
#X connect 1 0 2 0;
#X connect 1 0 4 0;
#X connect 2 0 3 0;
#X connect 3 0 5 0;
#X connect 4 0 3 1;
#X restore 51 19 pd bang-timer;
#X obj 148 143 vsl 15 400 0.0001 1 1 0 empty empty grain-size -12 -16
0 8 -241291 -258699 -143491 4450 1;
#X obj 173 144 vsl 15 400 0 1 0 0 empty empty empty 20 8 0 8 -44926
-258699 -1 10300 1;
#X obj 198 -3 r start;
#N canvas 768 22 380 346 grainsize-calc 0;
#X obj 164 94 tgl 15 0 empty empty empty 20 8 0 8 -262144 -1 -1 1 1
;
#X obj 80 116 *;
#X obj 80 94 t b f;
#X obj 125 116 *;
#X obj 125 94 t b f;
#X obj 105 276 s grainsize;
#X obj 105 254 moses 1;
#X obj 164 72 > 0;
#X obj 80 27 inlet;
#X obj 136 25 inlet;
#X obj 18 25 inlet;
#X obj 106 65 / 2;
#X obj 185 27 r random-rate;
#N canvas 0 22 458 308 range 0;
#X obj 20 22 inlet;
#X obj 78 22 inlet;
#X obj 132 22 inlet;
#X obj 96 134 +;
#X obj 78 44 / 2;
#X obj 44 134 -;
#X obj 78 66 t b f;
#X obj 36 234 outlet;
#X text 121 183 takes a centre float and a range float and a position
(0 to 1) and outputs a number proportionately within the range from
the centre figure;
#N canvas 0 22 506 302 from-to 0;
#X obj 91 150 *;
#X obj 61 120 -;
#X obj 45 94 t b f;
#X obj 91 120 t b f;
#X obj 131 120 t;
#X obj 81 178 +;
#X obj 10 20 inlet;
#X obj 194 20 inlet;
#X obj 76 262 outlet;
#X obj 54 20 inlet;
#X text 131 161 takes a left limit and a right limit and a position
(0 to 1) and outputs a number proportionally distanced between the
left and right limits;
#X connect 0 0 5 0;
#X connect 1 0 0 0;
#X connect 2 0 1 0;
#X connect 2 0 5 0;
#X connect 2 1 1 1;
#X connect 2 1 5 1;
#X connect 3 0 0 0;
#X connect 3 1 0 1;
#X connect 4 0 0 0;
#X connect 5 0 8 0;
#X connect 6 0 2 0;
#X connect 7 0 4 0;
#X connect 7 0 1 0;
#X connect 9 0 3 0;
#X restore 44 158 pd from-to;
#X connect 0 0 3 0;
#X connect 0 0 5 0;
#X connect 1 0 4 0;
#X connect 2 0 9 1;
#X connect 3 0 9 2;
#X connect 4 0 6 0;
#X connect 5 0 9 0;
#X connect 6 0 3 0;
#X connect 6 0 5 0;
#X connect 6 1 3 1;
#X connect 6 1 5 1;
#X connect 9 0 7 0;
#X restore 103 230 pd range;
#N canvas 0 22 452 214 rand-ms 0;
#X obj 90 30 inlet;
#X obj 144 32 inlet;
#X obj 24 168 outlet;
#X obj 11 66 noise~;
#X obj 19 144 snapshot~;
#X obj 91 68 metro 100;
#X obj 11 88 /~ 2;
#X obj 11 110 +~ 0.5;
#X text 102 112 produces a random number between o and 1 every x milliseconds
where x is on the second inlet. defaults to 100ms per random value
;
#X connect 0 0 5 0;
#X connect 1 0 5 1;
#X connect 3 0 6 0;
#X connect 4 0 2 0;
#X connect 5 0 4 0;
#X connect 6 0 7 0;
#X connect 7 0 4 0;
#X restore 166 112 pd rand-ms;
#X connect 0 0 14 0;
#X connect 1 0 13 0;
#X connect 2 0 1 0;
#X connect 2 1 1 1;
#X connect 3 0 13 1;
#X connect 4 0 3 0;
#X connect 4 1 3 1;
#X connect 6 1 5 0;
#X connect 7 0 0 0;
#X connect 8 0 2 0;
#X connect 9 0 4 0;
#X connect 9 0 7 0;
#X connect 10 0 11 0;
#X connect 10 0 1 0;
#X connect 11 0 3 0;
#X connect 12 0 14 1;
#X connect 13 0 6 0;
#X connect 14 0 13 2;
#X restore 34 595 pd grainsize-calc;
#X obj 34 551 r samplesize;
#X obj 34 573 / 2;
#X obj 310 144 vsl 15 400 -5 5 0 0 empty empty play-rate -24 -16 0
8 -241291 -258699 -143491 23940 0;
#X obj 338 144 vsl 15 400 0.01 30 1 0 empty empty grain-density -24
-32 0 8 -241291 -258699 -143491 30971 0;
#X obj 282 715 s playrate;
#X obj 356 713 s play-grain-density;
#X msg 312 86 1;
#X obj 230 144 vsl 15 400 0.01 20 1 0 empty empty grain-transpose -24
-32 0 8 -241291 -258699 -143491 32374 1;
#X obj 259 144 vsl 15 400 0.01 1 1 0 empty empty empty 20 8 0 8 -44926
-258699 -1 0 1;
#X obj 396 418 vsl 15 128 0 1 0 0 empty empty grain-pan -12 -24 0 8
-241291 -258699 -143491 12700 1;
#X obj 421 418 vsl 15 128 0 1 0 0 empty empty empty 20 8 0 8 -44926
-258699 -1 0 1;
#X obj 452 356 r start;
#X obj 158 553 r start;
#X msg 396 394 0.5;
#N canvas 346 22 412 274 graintranspose-calc 0;
#X obj 32 15 inlet;
#X obj 158 17 inlet;
#X obj 192 104 tgl 15 0 empty empty empty 20 8 0 8 -262144 -1 -1 1
1;
#X obj 108 126 *;
#X obj 108 104 t b f;
#X obj 153 126 *;
#X obj 153 104 t b f;
#X obj 175 225 s graintranspose;
#X obj 175 203 moses 0.01;
#X obj 192 82 > 0;
#X obj 72 17 inlet;
#X obj 72 62 / 2;
#X obj 203 21 r random-rate;
#N canvas 0 22 454 216 rand-ms 0;
#X obj 90 30 inlet;
#X obj 144 32 inlet;
#X obj 24 168 outlet;
#X obj 11 66 noise~;
#X obj 19 144 snapshot~;
#X obj 91 68 metro 100;
#X obj 11 88 /~ 2;
#X obj 11 110 +~ 0.5;
#X text 102 112 produces a random number between o and 1 every x milliseconds
where x is on the second inlet. defaults to 100ms per random value
;
#X connect 0 0 5 0;
#X connect 1 0 5 1;
#X connect 3 0 6 0;
#X connect 4 0 2 0;
#X connect 5 0 4 0;
#X connect 6 0 7 0;
#X connect 7 0 4 0;
#X restore 192 124 pd rand-ms;
#N canvas 0 22 458 308 range 0;
#X obj 20 22 inlet;
#X obj 78 22 inlet;
#X obj 132 22 inlet;
#X obj 96 134 +;
#X obj 78 44 / 2;
#X obj 44 134 -;
#X obj 78 66 t b f;
#X obj 36 234 outlet;
#X text 121 183 takes a centre float and a range float and a position
(0 to 1) and outputs a number proportionately within the range from
the centre figure;
#N canvas 0 22 506 302 from-to 0;
#X obj 91 150 *;
#X obj 61 120 -;
#X obj 45 94 t b f;
#X obj 91 120 t b f;
#X obj 131 120 t;
#X obj 81 178 +;
#X obj 10 20 inlet;
#X obj 194 20 inlet;
#X obj 76 262 outlet;
#X obj 54 20 inlet;
#X text 131 161 takes a left limit and a right limit and a position
(0 to 1) and outputs a number proportionally distanced between the
left and right limits;
#X connect 0 0 5 0;
#X connect 1 0 0 0;
#X connect 2 0 1 0;
#X connect 2 0 5 0;
#X connect 2 1 1 1;
#X connect 2 1 5 1;
#X connect 3 0 0 0;
#X connect 3 1 0 1;
#X connect 4 0 0 0;
#X connect 5 0 8 0;
#X connect 6 0 2 0;
#X connect 7 0 4 0;
#X connect 7 0 1 0;
#X connect 9 0 3 0;
#X restore 44 158 pd from-to;
#X connect 0 0 3 0;
#X connect 0 0 5 0;
#X connect 1 0 4 0;
#X connect 2 0 9 1;
#X connect 3 0 9 2;
#X connect 4 0 6 0;
#X connect 5 0 9 0;
#X connect 6 0 3 0;
#X connect 6 0 5 0;
#X connect 6 1 3 1;
#X connect 6 1 5 1;
#X connect 9 0 7 0;
#X restore 173 178 pd range;
#X connect 0 0 3 0;
#X connect 0 0 11 0;
#X connect 1 0 6 0;
#X connect 1 0 9 0;
#X connect 2 0 13 0;
#X connect 3 0 14 0;
#X connect 4 0 3 0;
#X connect 4 1 3 1;
#X connect 5 0 14 1;
#X connect 6 0 5 0;
#X connect 6 1 5 1;
#X connect 8 1 7 0;
#X connect 9 0 2 0;
#X connect 10 0 4 0;
#X connect 11 0 5 0;
#X connect 12 0 13 1;
#X connect 13 0 14 2;
#X connect 14 0 8 0;
#X restore 158 593 pd graintranspose-calc;
#N canvas 0 22 294 278 grainpan 0;
#X obj 88 87 tgl 15 0 empty empty empty 20 8 0 8 -262144 -1 -1 0 1
;
#X obj 73 232 s grainpan;
#X obj 88 65 > 0;
#X obj 22 20 inlet;
#X obj 70 18 inlet;
#X obj 117 19 r random-rate;
#N canvas 0 22 454 304 range 0;
#X obj 20 22 inlet;
#X obj 78 22 inlet;
#X obj 132 22 inlet;
#X obj 96 134 +;
#X obj 78 44 / 2;
#X obj 44 134 -;
#X obj 78 66 t b f;
#X obj 36 234 outlet;
#X text 121 183 takes a centre float and a range float and a position
(0 to 1) and outputs a number proportionately within the range from
the centre figure;
#N canvas 0 22 506 302 from-to 0;
#X obj 91 150 *;
#X obj 61 120 -;
#X obj 45 94 t b f;
#X obj 91 120 t b f;
#X obj 131 120 t;
#X obj 81 178 +;
#X obj 10 20 inlet;
#X obj 194 20 inlet;
#X obj 76 262 outlet;
#X obj 54 20 inlet;
#X text 131 161 takes a left limit and a right limit and a position
(0 to 1) and outputs a number proportionally distanced between the
left and right limits;
#X connect 0 0 5 0;
#X connect 1 0 0 0;
#X connect 2 0 1 0;
#X connect 2 0 5 0;
#X connect 2 1 1 1;
#X connect 2 1 5 1;
#X connect 3 0 0 0;
#X connect 3 1 0 1;
#X connect 4 0 0 0;
#X connect 5 0 8 0;
#X connect 6 0 2 0;
#X connect 7 0 4 0;
#X connect 7 0 1 0;
#X connect 9 0 3 0;
#X restore 42 166 pd from-to;
#X connect 0 0 3 0;
#X connect 0 0 5 0;
#X connect 1 0 4 0;
#X connect 2 0 9 1;
#X connect 3 0 9 2;
#X connect 4 0 6 0;
#X connect 5 0 9 0;
#X connect 6 0 3 0;
#X connect 6 0 5 0;
#X connect 6 1 3 1;
#X connect 6 1 5 1;
#X connect 9 0 7 0;
#X restore 71 208 pd range;
#N canvas 0 22 452 214 rand-ms 0;
#X obj 90 30 inlet;
#X obj 144 32 inlet;
#X obj 24 168 outlet;
#X obj 11 66 noise~;
#X obj 19 144 snapshot~;
#X obj 91 68 metro 100;
#X obj 11 88 /~ 2;
#X obj 11 110 +~ 0.5;
#X text 102 112 produces a random number between o and 1 every x milliseconds
where x is on the second inlet. defaults to 100ms per random value
;
#X connect 0 0 5 0;
#X connect 1 0 5 1;
#X connect 3 0 6 0;
#X connect 4 0 2 0;
#X connect 5 0 4 0;
#X connect 6 0 7 0;
#X connect 7 0 4 0;
#X restore 90 108 pd rand-ms;
#X connect 0 0 7 0;
#X connect 2 0 0 0;
#X connect 3 0 6 0;
#X connect 4 0 2 0;
#X connect 4 0 6 1;
#X connect 5 0 7 1;
#X connect 6 0 1 0;
#X connect 7 0 6 2;
#X restore 396 553 pd grainpan;
#X obj 442 159 *;
#X obj 442 137 t b f;
#X obj 496 26 r grainposition;
#N canvas 0 22 414 318 up-or-dn 0;
#X obj 18 132 <;
#X obj 18 154 * -2;
#X obj 18 176 + 1;
#X obj 18 110 t f f;
#X obj 19 10 inlet;
#X obj 19 272 outlet;
#X text 56 39 this unit outputs a +1 if the current input is greater
than the previous input \, and outputs a -1 if the current input is
less than the previous input.;
#X connect 0 0 1 0;
#X connect 1 0 2 0;
#X connect 2 0 5 0;
#X connect 3 0 0 1;
#X connect 3 1 0 0;
#X connect 4 0 3 0;
#X restore 442 115 pd up-or-dn;
#X obj 422 26 r grainsize;
#N canvas 159 26 523 280 output 0;
#X obj 338 160 t b;
#X obj 338 110 f;
#X obj 338 60 inlet;
#X text 344 29 mute;
#X obj 338 185 f;
#X msg 425 178 0;
#X msg 338 85 bang;
#X obj 338 135 moses 1;
#X obj 425 153 t b f;
#X obj 397 114 moses 1;
#X obj 83 148 dbtorms;
#X obj 28 179 inlet~;
#X obj 199 41 inlet;
#X text 199 18 level;
#X msg 96 65 set \$1;
#X obj 96 90 outlet;
#X msg 214 65 \; pd dsp 1;
#X obj 83 198 line~;
#X obj 28 222 *~;
#X obj 83 173 pack 0 50;
#X text 96 114 show level;
#X obj -22 179 inlet~;
#X obj -22 222 *~;
#X obj -22 245 dac~;
#X text -22 156 left;
#X text 28 156 right;
#X obj 397 89 r \$0-master-lvl;
#X obj 338 210 s \$0-master-lvl;
#X obj 199 100 s \$0-master-lvl;
#X obj 83 42 r \$0-master-lvl;
#X connect 0 0 4 0;
#X connect 1 0 7 0;
#X connect 2 0 6 0;
#X connect 4 0 27 0;
#X connect 5 0 27 0;
#X connect 6 0 1 0;
#X connect 7 0 0 0;
#X connect 7 1 8 0;
#X connect 8 0 5 0;
#X connect 9 1 4 1;
#X connect 10 0 19 0;
#X connect 11 0 18 0;
#X connect 12 0 16 0;
#X connect 12 0 28 0;
#X connect 14 0 15 0;
#X connect 17 0 18 1;
#X connect 17 0 22 1;
#X connect 18 0 23 1;
#X connect 19 0 17 0;
#X connect 21 0 22 0;
#X connect 22 0 23 0;
#X connect 26 0 1 1;
#X connect 26 0 9 0;
#X connect 29 0 10 0;
#X connect 29 0 14 0;
#X restore 463 272 pd output;
#X msg 415 272 MUTE;
#X msg 415 202 94;
#X obj 522 1 r grainpan;
#X obj 418 2 r graintranspose;
#X obj 464 202 s samplesize;
#X obj 394 243 bng 15 250 50 0 empty empty empty 20 8 0 8 -24198 -258699
-42246;
#X obj 396 180 nm-poly-stereo-grain 15;
#X obj 369 1 inlet;
#X obj 394 274 bng 15 250 50 0 empty empty mute-unmute -16 24 0 8 -258699
-1 -143491;
#X obj 311 65 tgl 15 0 empty empty stop-start -16 -16 0 8 -241291 -258699
-143491 0 1;
#X obj 303 25 t b f;
#X msg 175 94 0;
#X msg 259 120 0;
#X msg 421 394 0;
#X msg 79 84 0;
#X obj 355 688 nbx 5 14 0.01 50 0 0 empty empty empty 0 -6 0 10 -241291
-1 -1 5.00029 256;
#X obj 415 242 nbx 5 14 0 110 0 0 empty empty output-level -32 -16
0 8 -24198 -1 -42246 94 256;
#X obj 53 63 bng 15 250 50 0 empty empty empty 0 -6 0 8 -241291 -1
-1;
#X obj 80 63 bng 15 250 50 0 empty empty empty 0 -6 0 8 -44926 -1 -1
;
#X obj 148 65 bng 15 250 50 0 empty empty empty 0 -6 0 8 -241291 -1
-1;
#X obj 174 65 bng 15 250 50 0 empty empty empty 0 -6 0 8 -44926 -1
-1;
#X obj 140 41 s retrigger;
#X obj 228 65 bng 15 250 50 0 empty empty empty 0 -6 0 8 -241291 -1
-1;
#X obj 258 65 bng 15 250 50 0 empty empty empty 0 -6 0 8 -44926 -1
-1;
#X obj 338 65 bng 15 250 50 0 empty empty empty 0 -6 0 8 -241291 -1
-1;
#X obj 396 357 bng 15 250 50 0 empty empty empty 0 -6 0 8 -241291 -1
-1;
#X obj 422 357 bng 15 250 50 0 empty empty empty 0 -6 0 8 -44926 -1
-1;
#X obj 370 604 cnv 15 220 30 empty empty blue-for-randomness-amount
20 12 0 8 -241291 -62784 0;
#X obj 372 53 cnv 15 230 30 empty empty <--buttons-reset-default-values
8 16 0 8 -241291 -1 0;
#X obj 144 662 r grainsize;
#X obj 229 686 nbx 5 14 0.01 50 0 0 empty empty empty 0 -6 0 10 -241291
-1 -1 4.76853 256;
#X obj 149 686 nbx 5 14 1 96000 0 0 empty empty empty 0 -6 0 10 -241291
-1 -1 70 256;
#X msg 158 573 1;
#X msg 230 120 1;
#X msg 340 86 5;
#X msg 134 96 0.01;
#X obj 297 688 nbx 5 14 -50 50 0 0 empty empty empty 0 -6 0 10 -241291
-1 -1 1 256;
#X connect 0 0 3 0;
#X connect 1 0 3 1;
#X connect 2 0 0 0;
#X connect 2 1 5 0;
#X connect 5 0 4 0;
#X connect 6 0 9 1;
#X connect 7 0 9 2;
#X connect 8 0 67 0;
#X connect 8 0 65 0;
#X connect 8 0 43 0;
#X connect 8 0 44 0;
#X connect 8 0 46 0;
#X connect 8 0 16 0;
#X connect 8 0 66 0;
#X connect 10 0 11 0;
#X connect 11 0 9 0;
#X connect 12 0 68 0;
#X connect 13 0 47 0;
#X connect 16 0 12 0;
#X connect 17 0 62 0;
#X connect 18 0 24 2;
#X connect 19 0 25 0;
#X connect 20 0 25 1;
#X connect 21 0 23 0;
#X connect 21 0 45 0;
#X connect 21 0 33 0;
#X connect 22 0 64 0;
#X connect 23 0 19 0;
#X connect 26 0 38 1;
#X connect 27 0 26 0;
#X connect 27 1 26 1;
#X connect 28 0 29 0;
#X connect 28 0 38 2;
#X connect 29 0 27 0;
#X connect 30 0 26 0;
#X connect 31 0 48 0;
#X connect 32 0 31 3;
#X connect 33 0 48 0;
#X connect 34 0 38 3;
#X connect 35 0 38 0;
#X connect 37 0 33 0;
#X connect 38 0 31 0;
#X connect 38 1 31 1;
#X connect 38 2 36 0;
#X connect 39 0 38 0;
#X connect 39 0 16 0;
#X connect 40 0 32 0;
#X connect 41 0 42 0;
#X connect 42 0 12 0;
#X connect 42 1 12 0;
#X connect 43 0 7 0;
#X connect 44 0 18 0;
#X connect 45 0 20 0;
#X connect 46 0 1 0;
#X connect 47 0 15 0;
#X connect 48 0 31 2;
#X connect 49 0 53 0;
#X connect 50 0 46 0;
#X connect 51 0 67 0;
#X connect 52 0 43 0;
#X connect 54 0 65 0;
#X connect 55 0 44 0;
#X connect 56 0 66 0;
#X connect 57 0 23 0;
#X connect 58 0 45 0;
#X connect 61 0 63 0;
#X connect 62 0 24 1;
#X connect 64 0 24 0;
#X connect 65 0 17 0;
#X connect 66 0 13 0;
#X connect 67 0 6 0;
#X connect 68 0 14 0;
#X coords 0 0 1 1 700 600 1;
#X restore 29 153 pd silo;
#X text 840 338 <-- tap bpm button;
#X text 181 50 <-- bang to open loop sample;
#X obj 756 336 r start;
#X text 755 262 some other fun tools to patch in to the play-rate parameter
;
#X obj 25 9 bng 15 250 50 0 empty empty empty 20 8 0 8 -24198 -1 -1
;
#X text 49 4 <-- 1 bang to open sample and start playback;
#X obj 62 43 noise~;
#X connect 2 0 3 0;
#X connect 3 0 1 0;
#X connect 4 0 6 0;
#X connect 5 0 4 0;
#X connect 6 0 21 0;
#X connect 7 0 6 0;
#X connect 10 0 9 0;
#X connect 11 0 12 0;
#X connect 14 0 17 0;
#X connect 15 0 14 0;
#X connect 18 0 19 0;
#X connect 20 0 21 0;
#X connect 24 0 10 0;
#X connect 26 0 20 0;
