#N canvas 74 0 1026 1026 10;
#X obj 365 26 inlet;
#X obj 28 833 hip~ 5;
#X obj 112 750 *~;
#X obj 611 55 inlet;
#X text 433 295 transpose value;
#X text 221 372 grainsize;
#X text 31 340 startpoint;
#X text 29 929 audio out;
#X obj 29 907 outlet~;
#X obj 627 245 s \$0-start;
#X obj 112 773 tabread4~ \$2;
#X obj 26 773 tabread4~ \$1;
#X obj 126 702 r \$0-window-size;
#X obj 725 226 s \$0-sample-size;
#X obj 833 226 s \$0-window-size;
#X obj 125 296 r \$0-sample-size;
#X obj 183 479 line~;
#X obj 183 456 pack f f;
#X text 138 340 start of line;
#X obj 112 368 t b f;
#X obj 183 433 +;
#X text 184 389 distance to the end of the line;
#X obj 183 502 -~;
#X obj 184 535 /~;
#X obj 418 345 *;
#X obj 433 316 samplerate~;
#X obj 402 390 /;
#X obj 402 413 * 1000;
#X text 376 477 time to traverse line (ms);
#X obj 112 345 *;
#X obj 227 37 r \$0-start;
#X obj 126 725 - 2;
#X obj 325 702 - 1;
#X obj 325 748 threshold~;
#X msg 325 725 set \$1 0 1 0;
#X obj 402 436 abs;
#X text 605 25 bang (initialise);
#X obj 199 907 outlet;
#X text 186 934 note finished bang;
#X msg 199 72 1;
#X obj 137 31 r \$0-start;
#X msg 109 66 2;
#X obj 55 31 r \$0-start;
#X msg 27 66 0;
#X obj 258 342 t b f;
#X obj 258 319 sel 0;
#X obj 392 315 sel 0;
#X obj 473 185 r \$0-start;
#X obj 418 368 t b f;
#X obj 211 433 t b f;
#X text 105 929 audio out;
#X obj 105 907 outlet~;
#X obj 119 855 -;
#X obj 43 871 *~;
#X obj 81 875 *~;
#X obj 365 49 unpack f f f f f f;
#X msg 107 831 1;
#X obj 135 832 t b f;
#X obj 28 810 *~;
#X connect 0 0 55 0;
#X connect 1 0 53 0;
#X connect 1 0 54 0;
#X connect 2 0 10 0;
#X connect 2 0 33 0;
#X connect 3 0 9 0;
#X connect 10 0 58 1;
#X connect 11 0 58 0;
#X connect 12 0 31 0;
#X connect 15 0 29 1;
#X connect 16 0 11 0;
#X connect 16 0 22 0;
#X connect 17 0 16 0;
#X connect 19 0 17 0;
#X connect 19 1 20 0;
#X connect 19 1 16 0;
#X connect 20 0 17 0;
#X connect 22 0 23 0;
#X connect 23 0 2 0;
#X connect 24 0 48 0;
#X connect 25 0 24 1;
#X connect 26 0 27 0;
#X connect 27 0 35 0;
#X connect 29 0 22 1;
#X connect 29 0 19 0;
#X connect 30 0 39 0;
#X connect 31 0 2 1;
#X connect 31 0 32 0;
#X connect 32 0 34 0;
#X connect 33 0 37 0;
#X connect 34 0 33 0;
#X connect 35 0 49 0;
#X connect 39 0 46 0;
#X connect 40 0 41 0;
#X connect 41 0 45 0;
#X connect 42 0 43 0;
#X connect 43 0 29 0;
#X connect 44 0 20 0;
#X connect 44 1 23 1;
#X connect 44 1 20 1;
#X connect 44 1 26 0;
#X connect 45 1 44 0;
#X connect 46 1 24 0;
#X connect 47 0 25 0;
#X connect 48 0 26 0;
#X connect 48 1 26 1;
#X connect 49 0 17 0;
#X connect 49 1 17 1;
#X connect 52 0 54 1;
#X connect 53 0 8 0;
#X connect 54 0 51 0;
#X connect 55 0 46 0;
#X connect 55 1 45 0;
#X connect 55 2 29 0;
#X connect 55 3 13 0;
#X connect 55 4 14 0;
#X connect 55 5 57 0;
#X connect 55 5 53 1;
#X connect 56 0 52 0;
#X connect 57 0 56 0;
#X connect 57 1 52 1;
#X connect 58 0 1 0;
