#N canvas 585 43 1015 641 10;
#X obj 142 254 loadbang;
#X obj 142 306 seq;
#X obj 91 318 bng 15 250 50 0 empty empty empty 17 7 0 10 -228856 -1
-1;
#X obj 157 339 spigot;
#X obj 190 314 tgl 15 0 empty loop empty 17 7 0 10 -228856 -1 -1 1
1;
#X text 208 313 loop;
#X obj 142 384 midiparse;
#N canvas 588 58 491 582 voice1 0;
#X obj 200 447 *~;
#X obj 215 409 vline~;
#X obj 105 242 mtof;
#X floatatom 105 272 5 0 0 0 - - -;
#X obj 271 293 t f f;
#X obj 271 348 pack;
#X obj 298 318 * 0.5;
#X obj 271 269 / 127;
#X obj 215 159 t f f;
#X obj 271 243 f;
#X obj 110 68 inlet;
#X floatatom 215 132 5 0 0 0 - - -;
#X floatatom 105 215 5 0 0 0 - - -;
#X obj 200 479 outlet~;
#X msg 215 364 0 10;
#X msg 271 374 \$1 10 \, \$2 40 10;
#X obj 105 298 phasor~;
#X obj 156 282 *~ 0.5;
#X obj 156 306 +~ 0.5;
#X obj 105 335 triangle~;
#X obj 156 258 osc~ 0.75;
#X obj 110 99 unpack float float;
#X obj 215 189 != 0;
#X obj 215 214 sel 0 1;
#X connect 0 0 13 0;
#X connect 1 0 0 1;
#X connect 2 0 3 0;
#X connect 3 0 16 0;
#X connect 4 0 5 0;
#X connect 4 1 6 0;
#X connect 5 0 15 0;
#X connect 6 0 5 1;
#X connect 7 0 4 0;
#X connect 8 0 22 0;
#X connect 8 1 9 1;
#X connect 9 0 7 0;
#X connect 10 0 21 0;
#X connect 11 0 8 0;
#X connect 12 0 2 0;
#X connect 14 0 1 0;
#X connect 15 0 1 0;
#X connect 16 0 19 0;
#X connect 17 0 18 0;
#X connect 18 0 19 1;
#X connect 19 0 0 0;
#X connect 20 0 17 0;
#X connect 21 0 12 0;
#X connect 21 1 11 0;
#X connect 22 0 23 0;
#X connect 23 0 14 0;
#X connect 23 1 9 0;
#X restore 104 508 pd voice1;
#N canvas 948 78 463 550 voice2 0;
#X obj 200 447 *~;
#X obj 215 409 vline~;
#X obj 103 242 mtof;
#X floatatom 103 272 5 0 0 0 - - -;
#X obj 271 293 t f f;
#X obj 271 348 pack;
#X obj 298 318 * 0.5;
#X obj 271 269 / 127;
#X obj 215 159 t f f;
#X obj 271 243 f;
#X obj 110 58 inlet;
#X floatatom 215 132 5 0 0 0 - - -;
#X floatatom 103 215 5 0 0 0 - - -;
#X obj 200 480 outlet~;
#X msg 271 374 \$1 10 \, \$2 40 10;
#X msg 215 364 0 10;
#X obj 103 298 phasor~;
#X obj 154 307 +~ 0.5;
#X obj 103 335 triangle~;
#X obj 154 283 *~ 0.25;
#X obj 154 259 osc~ 0.25;
#X obj 110 89 unpack float float;
#X obj 215 214 sel 0 1;
#X obj 215 189 != 0;
#X connect 0 0 13 0;
#X connect 1 0 0 1;
#X connect 2 0 3 0;
#X connect 3 0 16 0;
#X connect 4 0 5 0;
#X connect 4 1 6 0;
#X connect 5 0 14 0;
#X connect 6 0 5 1;
#X connect 7 0 4 0;
#X connect 8 0 23 0;
#X connect 8 1 9 1;
#X connect 9 0 7 0;
#X connect 10 0 21 0;
#X connect 11 0 8 0;
#X connect 12 0 2 0;
#X connect 14 0 1 0;
#X connect 15 0 1 0;
#X connect 16 0 18 0;
#X connect 17 0 18 1;
#X connect 18 0 0 0;
#X connect 19 0 17 0;
#X connect 20 0 19 0;
#X connect 21 0 12 0;
#X connect 21 1 11 0;
#X connect 22 0 15 0;
#X connect 22 1 9 0;
#X connect 23 0 22 0;
#X restore 167 508 pd voice2;
#X obj 142 472 route 1 2;
#X obj 142 417 poly 2 1;
#X obj 196 542 hsl 128 15 0 1 0 0 empty ganho empty -2 -6 0 10 -240877
-1 -1 0 0;
#N canvas 1142 164 419 353 output 0;
#X obj 146 200 *~;
#X obj 205 150 line~;
#X msg 205 124 \$1 10;
#X obj 205 98 pow 4;
#X obj 205 61 inlet;
#X obj 146 60 inlet~;
#X obj 89 201 *~;
#X obj 89 61 inlet~;
#X obj 105 282 dac~;
#X obj 89 101 /~ 2;
#X obj 146 99 /~ 2;
#N canvas 0 22 450 300 panning 0;
#X obj 68 176 pansig~;
#X obj 190 179 pansig~;
#X obj 133 223 +~;
#X obj 188 221 +~;
#X obj 229 106 osc~ 0.1;
#X obj 107 139 *~ 0.5;
#X obj 229 140 *~ 0.5;
#X obj 274 45 loadbang;
#X obj 68 19 inlet~;
#X obj 190 20 inlet~;
#X obj 188 261 outlet~;
#X obj 133 261 outlet~;
#X msg 152 77 0;
#X obj 107 103 osc~ 0.1;
#X msg 274 78 0.5;
#X connect 0 0 2 0;
#X connect 0 1 3 0;
#X connect 1 0 2 1;
#X connect 1 1 3 1;
#X connect 2 0 11 0;
#X connect 3 0 10 0;
#X connect 4 0 6 0;
#X connect 5 0 0 1;
#X connect 6 0 1 1;
#X connect 7 0 14 0;
#X connect 7 0 12 0;
#X connect 8 0 0 0;
#X connect 9 0 1 0;
#X connect 12 0 13 1;
#X connect 13 0 5 0;
#X connect 14 0 4 1;
#X restore 89 245 pd panning;
#X connect 0 0 11 1;
#X connect 1 0 0 1;
#X connect 1 0 6 1;
#X connect 2 0 1 0;
#X connect 3 0 2 0;
#X connect 4 0 3 0;
#X connect 5 0 10 0;
#X connect 6 0 11 0;
#X connect 7 0 9 0;
#X connect 9 0 6 0;
#X connect 10 0 0 0;
#X connect 11 0 8 0;
#X connect 11 1 8 1;
#X restore 142 569 pd output;
#X obj 142 443 pack f f f;
#X obj 260 379 loadbang;
#X obj 586 84 mrpeach/midifile;
#X msg 239 454 \; loop 1 \; ganho 0.8 \; pd dsp 1;
#X text 47 31 The [seq] object allows us to read a MIDI sequence on
the Pd. However \, it sends "raw" MIDI messages \, which means that
they are not separated into different types of messages.;
#X text 49 78 We use the object [midiparse] to read and route raw messages.
Open your help for more details.;
#X text 50 113 In this patch we use the left outlet which is the message
of MIDI notes \, which we use to control two voices. The [seq] sends
umbang to the right outlet when the sequence ends and we use that for
a loop.;
#X text 50 177 [Seq] also allows you to record MIDI streams from your
controller. Open help for more details.;
#X text 479 34 Another object that works with MIDI is the [midifile]
of the "mrpeach" library.;
#X obj 68 674 makenote 127 800;
#X text 144 658 duration in milliseconds;
#X floatatom 70 700 5 0 0 0 - - -;
#X floatatom 139 699 5 0 0 0 - - -;
#X obj 78 595 unpack f f;
#X floatatom 78 625 5 0 0 0 - - -;
#X floatatom 143 625 5 0 0 0 - - -;
#X text 77 641 pitch;
#X floatatom 200 406 5 0 0 0 - - -;
#X text 243 405 channel number;
#X text 188 628 velocity;
#X obj 87 726 noteout 1;
#X msg 142 280 read ./files/beethovenmoonlite.mid \, bang;
#X obj 601 360 tgl 15 0 empty empty empty 17 7 0 10 -262144 -1 -1 0
1;
#N canvas 702 94 431 469 markovPitchGenerate 0;
#X obj 87 33 inlet;
#X obj 96 92 bng 15 250 50 0 empty empty empty 17 7 0 10 -262144 -1
-1;
#X obj 94 136 f;
#X obj 90 174 t f f;
#X floatatom 157 129 5 0 0 0 - - -;
#X obj 153 35 inlet;
#X obj 206 46 r finished;
#X msg 154 68 next;
#X obj 29 225 length;
#X obj 29 249 t b f;
#X obj 29 276 random;
#X obj 20 301 + 1;
#X obj 88 329 pack;
#X msg 89 362 nth \$2 \$1;
#X floatatom 219 417 5 0 0 0 - - -;
#X obj 220 448 outlet;
#X obj 155 95 coll pitchMatrix01;
#C restore;
#X obj 29 200 coll pitchMatrix01;
#C restore;
#X obj 92 387 coll pitchMatrix01;
#C restore;
#X connect 0 0 1 0;
#X connect 1 0 2 0;
#X connect 2 0 3 0;
#X connect 3 0 17 0;
#X connect 3 1 12 1;
#X connect 4 0 2 1;
#X connect 5 0 7 0;
#X connect 6 0 7 0;
#X connect 7 0 16 0;
#X connect 8 0 9 0;
#X connect 9 0 10 0;
#X connect 9 1 10 1;
#X connect 10 0 11 0;
#X connect 11 0 12 0;
#X connect 12 0 13 0;
#X connect 13 0 18 0;
#X connect 14 0 2 1;
#X connect 14 0 15 0;
#X connect 16 0 4 0;
#X connect 17 0 8 0;
#X connect 18 0 14 0;
#X restore 452 484 pd markovPitchGenerate;
#X obj 594 458 bng 15 250 50 0 empty empty empty 17 7 0 10 -262144
-1 -1;
#X floatatom 453 518 5 0 0 0 - - -;
#X obj 454 676 noteout;
#X text 592 441 start new pitch;
#X floatatom 657 349 5 0 0 0 - - -;
#X msg 730 323 150;
#X obj 451 562 makenote 127 800;
#X obj 427 336 coll pitchMatrix01;
#C restore;
#N canvas 898 183 450 300 markovMIDIAnalysis01 0;
#X obj 66 54 inlet;
#N canvas 845 234 450 300 pair 0;
#X obj 59 46 inlet;
#X floatatom 61 86 5 0 0 0 - - -;
#X obj 60 126 t f b f;
#X obj 52 170 f;
#X obj 53 221 pack;
#X obj 54 261 outlet;
#X text 103 263 list of paired numebers out;
#X connect 0 0 1 0;
#X connect 1 0 2 0;
#X connect 2 0 3 1;
#X connect 2 1 3 0;
#X connect 2 2 4 1;
#X connect 3 0 4 0;
#X connect 4 0 5 0;
#X restore 65 107 pd pair;
#X msg 65 160 merge \$1 \$2;
#X obj 169 128 r resetMatrix;
#X msg 172 160 clear;
#X obj 65 207 coll pitchMatrix01;
#C restore;
#X connect 0 0 1 0;
#X connect 1 0 2 0;
#X connect 2 0 5 0;
#X connect 3 0 4 0;
#X connect 4 0 5 0;
#X restore 487 290 pd markovMIDIAnalysis01;
#N canvas 898 183 450 300 markovMIDIAnalysis02 0;
#X obj 66 54 inlet;
#N canvas 845 234 450 300 pair 0;
#X obj 59 46 inlet;
#X floatatom 61 86 5 0 0 0 - - -;
#X obj 60 126 t f b f;
#X obj 52 170 f;
#X obj 53 221 pack;
#X obj 54 261 outlet;
#X text 103 263 list of paired numebers out;
#X connect 0 0 1 0;
#X connect 1 0 2 0;
#X connect 2 0 3 1;
#X connect 2 1 3 0;
#X connect 2 2 4 1;
#X connect 3 0 4 0;
#X connect 4 0 5 0;
#X restore 65 107 pd pair;
#X msg 65 160 merge \$1 \$2;
#X obj 169 128 r resetMatrix;
#X msg 172 160 clear;
#X obj 65 207 coll pitchMatrix02;
#C restore;
#X connect 0 0 1 0;
#X connect 1 0 2 0;
#X connect 2 0 5 0;
#X connect 3 0 4 0;
#X connect 4 0 5 0;
#X restore 676 295 pd markovMIDIAnalysis02;
#N canvas 1007 76 431 469 markovPitchGenerate 0;
#X obj 87 33 inlet;
#X obj 96 92 bng 15 250 50 0 empty empty empty 17 7 0 10 -262144 -1
-1;
#X obj 94 136 f;
#X obj 90 174 t f f;
#X floatatom 157 129 5 0 0 0 - - -;
#X obj 153 35 inlet;
#X obj 206 46 r finished;
#X msg 154 68 next;
#X obj 29 225 length;
#X obj 29 249 t b f;
#X obj 29 276 random;
#X obj 20 301 + 1;
#X obj 88 329 pack;
#X msg 89 362 nth \$2 \$1;
#X floatatom 219 417 5 0 0 0 - - -;
#X obj 220 448 outlet;
#X obj 29 200 coll pitchMatrix02;
#C restore;
#X obj 92 387 coll pitchMatrix02;
#C restore;
#X obj 155 95 coll pitchMatrix02;
#C restore;
#X connect 0 0 1 0;
#X connect 1 0 2 0;
#X connect 2 0 3 0;
#X connect 3 0 16 0;
#X connect 3 1 12 1;
#X connect 4 0 2 1;
#X connect 5 0 7 0;
#X connect 6 0 7 0;
#X connect 7 0 18 0;
#X connect 8 0 9 0;
#X connect 9 0 10 0;
#X connect 9 1 10 1;
#X connect 10 0 11 0;
#X connect 11 0 12 0;
#X connect 12 0 13 0;
#X connect 13 0 17 0;
#X connect 14 0 2 1;
#X connect 14 0 15 0;
#X connect 16 0 8 0;
#X connect 17 0 14 0;
#X connect 18 0 4 0;
#X restore 750 496 pd markovPitchGenerate;
#X obj 892 470 bng 15 250 50 0 empty empty empty 17 7 0 10 -262144
-1 -1;
#X floatatom 751 530 5 0 0 0 - - -;
#X text 890 453 start new pitch;
#X obj 749 574 makenote 127 800;
#X msg 725 347 200;
#X msg 740 377 250;
#X obj 439 415 metro 200;
#X obj 737 427 metro 200;
#X msg 502 631 127;
#X obj 251 668 makenote 127 800;
#X text 327 652 duration in milliseconds;
#X floatatom 253 694 5 0 0 0 - - -;
#X floatatom 322 693 5 0 0 0 - - -;
#X obj 261 589 unpack f f;
#X floatatom 261 619 5 0 0 0 - - -;
#X floatatom 326 619 5 0 0 0 - - -;
#X text 260 635 pitch;
#X text 371 622 velocity;
#X obj 270 720 noteout 1;
#X connect 0 0 34 0;
#X connect 1 0 6 0;
#X connect 1 1 3 0;
#X connect 2 0 34 0;
#X connect 3 0 2 0;
#X connect 4 0 3 1;
#X connect 6 0 10 0;
#X connect 6 6 30 0;
#X connect 7 0 12 0;
#X connect 8 0 12 1;
#X connect 9 0 7 0;
#X connect 9 0 26 0;
#X connect 9 1 8 0;
#X connect 9 1 61 0;
#X connect 10 0 13 0;
#X connect 10 1 13 1;
#X connect 10 2 13 2;
#X connect 11 0 12 2;
#X connect 13 0 9 0;
#X connect 14 0 16 0;
#X connect 22 0 24 0;
#X connect 22 1 25 0;
#X connect 24 0 33 0;
#X connect 25 0 33 1;
#X connect 26 0 27 0;
#X connect 26 0 45 0;
#X connect 26 1 28 0;
#X connect 27 0 22 0;
#X connect 28 0 22 1;
#X connect 34 0 1 0;
#X connect 35 0 54 0;
#X connect 35 0 55 0;
#X connect 36 0 38 0;
#X connect 37 0 36 1;
#X connect 37 0 47 1;
#X connect 38 0 43 0;
#X connect 41 0 54 1;
#X connect 41 0 55 1;
#X connect 42 0 41 0;
#X connect 43 0 39 0;
#X connect 47 0 49 0;
#X connect 48 0 47 1;
#X connect 49 0 51 0;
#X connect 51 0 39 1;
#X connect 52 0 41 0;
#X connect 53 0 41 0;
#X connect 54 0 36 0;
#X connect 55 0 47 0;
#X connect 56 0 39 1;
#X connect 57 0 59 0;
#X connect 57 1 60 0;
#X connect 59 0 66 0;
#X connect 60 0 66 1;
#X connect 61 0 62 0;
#X connect 61 0 46 0;
#X connect 61 1 63 0;
#X connect 62 0 57 0;
#X connect 63 0 57 1;
