#N canvas 623 107 1276 1024 10;
#X obj 142 254 loadbang;
#X obj 142 306 seq;
#X obj 91 318 bng 15 250 50 0 empty empty empty 17 7 0 10 -228856 -1
-1;
#X obj 157 339 spigot;
#X obj 190 314 tgl 15 0 empty loop empty 17 7 0 10 -228856 -1 -1 1
1;
#X text 208 313 loop;
#X obj 142 384 midiparse;
#N canvas 588 58 491 582 voice1 0;
#X obj 200 447 *~;
#X obj 215 409 vline~;
#X obj 105 242 mtof;
#X floatatom 105 272 5 0 0 0 - - -;
#X obj 271 293 t f f;
#X obj 271 348 pack;
#X obj 298 318 * 0.5;
#X obj 271 269 / 127;
#X obj 215 159 t f f;
#X obj 271 243 f;
#X obj 110 68 inlet;
#X floatatom 215 132 5 0 0 0 - - -;
#X floatatom 105 215 5 0 0 0 - - -;
#X obj 200 479 outlet~;
#X msg 215 364 0 10;
#X msg 271 374 \$1 10 \, \$2 40 10;
#X obj 105 298 phasor~;
#X obj 156 282 *~ 0.5;
#X obj 156 306 +~ 0.5;
#X obj 105 335 triangle~;
#X obj 156 258 osc~ 0.75;
#X obj 110 99 unpack float float;
#X obj 215 189 != 0;
#X obj 215 214 sel 0 1;
#X connect 0 0 13 0;
#X connect 1 0 0 1;
#X connect 2 0 3 0;
#X connect 3 0 16 0;
#X connect 4 0 5 0;
#X connect 4 1 6 0;
#X connect 5 0 15 0;
#X connect 6 0 5 1;
#X connect 7 0 4 0;
#X connect 8 0 22 0;
#X connect 8 1 9 1;
#X connect 9 0 7 0;
#X connect 10 0 21 0;
#X connect 11 0 8 0;
#X connect 12 0 2 0;
#X connect 14 0 1 0;
#X connect 15 0 1 0;
#X connect 16 0 19 0;
#X connect 17 0 18 0;
#X connect 18 0 19 1;
#X connect 19 0 0 0;
#X connect 20 0 17 0;
#X connect 21 0 12 0;
#X connect 21 1 11 0;
#X connect 22 0 23 0;
#X connect 23 0 14 0;
#X connect 23 1 9 0;
#X restore 104 508 pd voice1;
#N canvas 948 78 463 550 voice2 0;
#X obj 200 447 *~;
#X obj 215 409 vline~;
#X obj 103 242 mtof;
#X floatatom 103 272 5 0 0 0 - - -;
#X obj 271 293 t f f;
#X obj 271 348 pack;
#X obj 298 318 * 0.5;
#X obj 271 269 / 127;
#X obj 215 159 t f f;
#X obj 271 243 f;
#X obj 110 58 inlet;
#X floatatom 215 132 5 0 0 0 - - -;
#X floatatom 103 215 5 0 0 0 - - -;
#X obj 200 480 outlet~;
#X msg 271 374 \$1 10 \, \$2 40 10;
#X msg 215 364 0 10;
#X obj 103 298 phasor~;
#X obj 154 307 +~ 0.5;
#X obj 103 335 triangle~;
#X obj 154 283 *~ 0.25;
#X obj 154 259 osc~ 0.25;
#X obj 110 89 unpack float float;
#X obj 215 214 sel 0 1;
#X obj 215 189 != 0;
#X connect 0 0 13 0;
#X connect 1 0 0 1;
#X connect 2 0 3 0;
#X connect 3 0 16 0;
#X connect 4 0 5 0;
#X connect 4 1 6 0;
#X connect 5 0 14 0;
#X connect 6 0 5 1;
#X connect 7 0 4 0;
#X connect 8 0 23 0;
#X connect 8 1 9 1;
#X connect 9 0 7 0;
#X connect 10 0 21 0;
#X connect 11 0 8 0;
#X connect 12 0 2 0;
#X connect 14 0 1 0;
#X connect 15 0 1 0;
#X connect 16 0 18 0;
#X connect 17 0 18 1;
#X connect 18 0 0 0;
#X connect 19 0 17 0;
#X connect 20 0 19 0;
#X connect 21 0 12 0;
#X connect 21 1 11 0;
#X connect 22 0 15 0;
#X connect 22 1 9 0;
#X connect 23 0 22 0;
#X restore 167 508 pd voice2;
#X obj 142 472 route 1 2;
#X obj 142 417 poly 2 1;
#X obj 196 542 hsl 128 15 0 1 0 0 empty ganho empty -2 -6 0 10 -240877
-1 -1 0 0;
#N canvas 232 59 419 353 output 0;
#X obj 146 200 *~;
#X obj 205 150 line~;
#X msg 205 124 \$1 10;
#X obj 205 98 pow 4;
#X obj 205 61 inlet;
#X obj 146 60 inlet~;
#X obj 89 201 *~;
#X obj 89 61 inlet~;
#X obj 105 282 dac~;
#X obj 89 101 /~ 2;
#X obj 146 99 /~ 2;
#N canvas 0 22 450 300 panning 0;
#X obj 68 176 pansig~;
#X obj 190 179 pansig~;
#X obj 133 223 +~;
#X obj 188 221 +~;
#X obj 229 106 osc~ 0.1;
#X obj 107 139 *~ 0.5;
#X obj 229 140 *~ 0.5;
#X obj 274 45 loadbang;
#X obj 68 19 inlet~;
#X obj 190 20 inlet~;
#X obj 188 261 outlet~;
#X obj 133 261 outlet~;
#X msg 152 77 0;
#X obj 107 103 osc~ 0.1;
#X msg 274 78 0.5;
#X connect 0 0 2 0;
#X connect 0 1 3 0;
#X connect 1 0 2 1;
#X connect 1 1 3 1;
#X connect 2 0 11 0;
#X connect 3 0 10 0;
#X connect 4 0 6 0;
#X connect 5 0 0 1;
#X connect 6 0 1 1;
#X connect 7 0 14 0;
#X connect 7 0 12 0;
#X connect 8 0 0 0;
#X connect 9 0 1 0;
#X connect 12 0 13 1;
#X connect 13 0 5 0;
#X connect 14 0 4 1;
#X restore 89 245 pd panning;
#X connect 0 0 11 1;
#X connect 1 0 0 1;
#X connect 1 0 6 1;
#X connect 2 0 1 0;
#X connect 3 0 2 0;
#X connect 4 0 3 0;
#X connect 5 0 10 0;
#X connect 6 0 11 0;
#X connect 7 0 9 0;
#X connect 9 0 6 0;
#X connect 10 0 0 0;
#X connect 11 0 8 0;
#X connect 11 1 8 1;
#X restore 142 569 pd output;
#X obj 142 443 pack f f f;
#X obj 260 379 loadbang;
#X obj 586 84 mrpeach/midifile;
#X msg 239 454 \; loop 1 \; ganho 0.8 \; pd dsp 1;
#X text 47 31 The [seq] object allows us to read a MIDI sequence on
the Pd. However \, it sends "raw" MIDI messages \, which means that
they are not separated into different types of messages.;
#X text 49 78 We use the object [midiparse] to read and route raw messages.
Open your help for more details.;
#X text 50 113 In this patch we use the left outlet which is the message
of MIDI notes \, which we use to control two voices. The [seq] sends
umbang to the right outlet when the sequence ends and we use that for
a loop.;
#X text 50 177 [Seq] also allows you to record MIDI streams from your
controller. Open help for more details.;
#X text 479 34 Another object that works with MIDI is the [midifile]
of the "mrpeach" library.;
#X obj 68 674 makenote 127 800;
#X text 144 658 duration in milliseconds;
#X floatatom 70 700 5 0 0 0 - - -;
#X floatatom 139 699 5 0 0 0 - - -;
#X obj 78 595 unpack f f;
#X floatatom 78 625 5 0 0 0 - - -;
#X floatatom 143 625 5 0 0 0 - - -;
#X text 77 641 pitch;
#X floatatom 200 406 5 0 0 0 - - -;
#X text 243 405 channel number;
#X text 188 628 velocity;
#X obj 601 360 tgl 15 0 empty empty empty 17 7 0 10 -262144 -1 -1 1
1;
#N canvas 702 94 431 469 markovPitchGenerate 0;
#X obj 41 43 inlet;
#X obj 50 102 bng 15 250 50 0 empty empty empty 17 7 0 10 -262144 -1
-1;
#X obj 90 174 t f f;
#X floatatom 157 129 5 0 0 0 - - -;
#X obj 153 35 inlet;
#X obj 206 46 r finished;
#X msg 154 68 next;
#X obj 29 225 length;
#X obj 29 249 t b f;
#X obj 29 276 random;
#X obj 20 301 + 1;
#X obj 88 329 pack;
#X msg 89 362 nth \$2 \$1;
#X floatatom 219 417 5 0 0 0 - - -;
#X obj 220 448 outlet;
#X obj 155 95 coll pitchMatrix01;
#C restore;
#X obj 29 200 coll pitchMatrix01;
#C restore;
#X obj 92 387 coll pitchMatrix01;
#C restore;
#X obj 94 136 f;
#X connect 0 0 1 0;
#X connect 1 0 18 0;
#X connect 2 0 16 0;
#X connect 2 1 11 1;
#X connect 3 0 18 1;
#X connect 4 0 6 0;
#X connect 5 0 6 0;
#X connect 6 0 15 0;
#X connect 7 0 8 0;
#X connect 8 0 9 0;
#X connect 8 1 9 1;
#X connect 9 0 10 0;
#X connect 10 0 11 0;
#X connect 11 0 12 0;
#X connect 12 0 17 0;
#X connect 13 0 14 0;
#X connect 13 0 18 1;
#X connect 15 0 3 0;
#X connect 16 0 7 0;
#X connect 17 0 13 0;
#X connect 18 0 2 0;
#X restore 452 484 pd markovPitchGenerate;
#X obj 594 458 bng 15 250 50 0 empty empty empty 17 7 0 10 -262144
-1 -1;
#X floatatom 453 518 5 0 0 0 - - -;
#X text 592 441 start new pitch;
#X floatatom 657 349 5 0 0 0 - - -;
#X msg 730 323 150;
#X obj 451 562 makenote 127 800;
#N canvas 367 23 512 492 markovMIDIAnalysis01 0;
#X obj 66 54 inlet;
#X msg 56 349 merge \$1 \$2;
#X obj 160 317 r resetMatrix;
#X msg 163 349 clear;
#X floatatom 94 120 5 0 0 0 - - -;
#X obj 93 160 t f b f;
#X obj 85 204 f;
#X obj 86 255 pack;
#X obj 145 29 unpack f f;
#X floatatom 297 45 5 0 0 0 - - -;
#X floatatom 156 65 5 0 0 0 - - -;
#X obj 56 396 coll pitchMatrix01;
#C restore;
#X msg 262 355 merge \$1 \$2;
#X floatatom 300 126 5 0 0 0 - - -;
#X obj 299 166 t f b f;
#X obj 291 210 f;
#X obj 292 261 pack;
#X obj 262 402 coll pitchMatrix02;
#C restore;
#X connect 0 0 8 0;
#X connect 1 0 11 0;
#X connect 2 0 3 0;
#X connect 3 0 11 0;
#X connect 3 0 17 0;
#X connect 4 0 5 0;
#X connect 5 0 6 1;
#X connect 5 1 6 0;
#X connect 5 2 7 1;
#X connect 6 0 7 0;
#X connect 7 0 1 0;
#X connect 8 0 10 0;
#X connect 8 1 9 0;
#X connect 9 0 13 0;
#X connect 10 0 4 0;
#X connect 12 0 17 0;
#X connect 13 0 14 0;
#X connect 14 0 15 1;
#X connect 14 1 15 0;
#X connect 14 2 16 1;
#X connect 15 0 16 0;
#X connect 16 0 12 0;
#X restore 487 290 pd markovMIDIAnalysis01;
#N canvas 1007 76 431 469 markovPitchGenerate 0;
#X obj 87 33 inlet;
#X obj 96 92 bng 15 250 50 0 empty empty empty 17 7 0 10 -262144 -1
-1;
#X obj 94 136 f;
#X obj 90 174 t f f;
#X floatatom 157 129 5 0 0 0 - - -;
#X obj 153 35 inlet;
#X obj 206 46 r finished;
#X msg 154 68 next;
#X obj 29 225 length;
#X obj 29 249 t b f;
#X obj 29 276 random;
#X obj 20 301 + 1;
#X obj 88 329 pack;
#X msg 89 362 nth \$2 \$1;
#X floatatom 219 417 5 0 0 0 - - -;
#X obj 220 448 outlet;
#X obj 29 200 coll pitchMatrix02;
#C restore;
#X obj 92 387 coll pitchMatrix02;
#C restore;
#X obj 155 95 coll pitchMatrix02;
#C restore;
#X connect 0 0 1 0;
#X connect 1 0 2 0;
#X connect 2 0 3 0;
#X connect 3 0 16 0;
#X connect 3 1 12 1;
#X connect 4 0 2 1;
#X connect 5 0 7 0;
#X connect 6 0 7 0;
#X connect 7 0 18 0;
#X connect 8 0 9 0;
#X connect 9 0 10 0;
#X connect 9 1 10 1;
#X connect 10 0 11 0;
#X connect 11 0 12 0;
#X connect 12 0 13 0;
#X connect 13 0 17 0;
#X connect 14 0 2 1;
#X connect 14 0 15 0;
#X connect 16 0 8 0;
#X connect 17 0 14 0;
#X connect 18 0 4 0;
#X restore 750 496 pd markovPitchGenerate;
#X floatatom 751 530 5 0 0 0 - - -;
#X msg 725 347 200;
#X msg 740 377 250;
#X obj 737 427 metro 200;
#X msg 142 280 read ./files/bach.mid \, bang;
#X obj 454 676 noteout 1;
#X obj 86 759 noteout 2;
#X obj 273 596 unpack f f;
#X floatatom 273 626 5 0 0 0 - - -;
#X floatatom 338 626 5 0 0 0 - - -;
#X obj 749 574 makenote 127 800;
#X obj 850 324 s resetMatrix;
#X obj 856 296 bng 15 250 50 0 empty empty empty 17 7 0 10 -262144
-1 -1;
#X obj 439 415 metro 200;
#N canvas 189 27 888 819 midifile_write 0;
#X obj 324 -2 bng 45 250 50 0 empty empty choose 5 23 0 8 -62784 -260818
-258699;
#X obj 67 51 tgl 45 0 empty empty record 2 23 0 8 -258699 -241291 -24198
0 1;
#X floatatom 553 772 15 0 0 0 tick - -;
#X obj 67 151 metro 2;
#X floatatom 113 109 15 0 0 0 - - -;
#X msg 113 83 2.005;
#X msg 506 590 verbose \$1;
#X text 494 545 verbosity defaults to 1;
#X obj 324 54 savepanel;
#X msg 409 493 240 1 2 3 4 247;
#X text 523 492 a sysex message;
#X obj 553 742 float;
#X floatatom 506 564 5 0 0 0 - - -;
#X msg 324 408 write \$1 \$2 \$3;
#X msg 326 201 29;
#X msg 364 201 30;
#X msg 210 201 0;
#X floatatom 405 275 5 0 0 0 ticks_per_frame - -;
#X text 80 301 (ticks per quarter note if frames per second is zero)
;
#X msg 288 201 25;
#X msg 248 201 24;
#X text 79 322 25 20 will give accurate timing with metro ticks at
2ms;
#X obj 324 375 pack s 25 20;
#X obj 559 663 midifile;
#X text 7 199 time code frames per second:;
#X text 484 432 default is 90 ticks per quarter note;
#X msg 349 433 write filename.mid;
#X msg 374 458 write filename.mid 77;
#X text 534 458 77 ticks per quarter note;
#X msg 442 526 flush;
#X obj 629 96 cnv 15 200 20 empty empty empty 20 12 0 14 -257985 -66577
0;
#X floatatom 515 95 5 0 0 0 note - -;
#X floatatom 515 125 5 0 0 0 velocity - -;
#X obj 559 283 pack 144 0 0;
#X obj 578 129 sel 0;
#X obj 559 156 t b f;
#X obj 559 257 f;
#X text 160 658 Martin Peach \, 2010;
#X text 553 565 set to 3 to debug input;
#X obj 559 75 notein;
#X obj 119 -2 cnv 15 200 20 empty empty empty 20 12 0 14 -257985 -66577
0;
#X text 121 -3 1: open a file for writing:;
#X obj 116 50 cnv 15 200 20 empty empty empty 20 12 0 14 -257985 -66577
0;
#X text 118 49 2: start recording;
#X obj 139 526 cnv 15 300 20 empty empty empty 20 12 0 14 -257985 -66577
0;
#X text 157 524 4: stop recording and save the file:;
#X floatatom 513 180 5 0 0 0 channel - -;
#X obj 610 237 +;
#X msg 578 185 127;
#X msg 610 157 143;
#X floatatom 709 313 5 0 0 0 value - -;
#X floatatom 709 344 5 0 0 0 controller - -;
#X floatatom 707 393 5 0 0 0 channel - -;
#X obj 755 293 ctlin;
#X obj 755 447 pack 176 0 0;
#X obj 755 479 print ctl>;
#X obj 580 324 print note>;
#X obj 755 329 t b f;
#X obj 755 393 f;
#X obj 810 336 + 175;
#X text 646 93 3: input MIDI as lists;
#X connect 0 0 8 0;
#X connect 1 0 3 0;
#X connect 3 0 23 0;
#X connect 4 0 3 1;
#X connect 5 0 4 0;
#X connect 6 0 23 0;
#X connect 8 0 22 0;
#X connect 9 0 23 0;
#X connect 11 0 2 0;
#X connect 12 0 6 0;
#X connect 13 0 23 0;
#X connect 14 0 22 1;
#X connect 15 0 22 1;
#X connect 16 0 22 1;
#X connect 17 0 22 2;
#X connect 19 0 22 1;
#X connect 20 0 22 1;
#X connect 22 0 13 0;
#X connect 23 1 11 1;
#X connect 23 2 11 0;
#X connect 26 0 23 0;
#X connect 27 0 23 0;
#X connect 29 0 23 0;
#X connect 33 0 23 0;
#X connect 33 0 56 0;
#X connect 34 0 48 0;
#X connect 34 1 49 0;
#X connect 35 0 36 0;
#X connect 35 1 33 1;
#X connect 36 0 33 0;
#X connect 39 0 31 0;
#X connect 39 0 35 0;
#X connect 39 1 32 0;
#X connect 39 1 34 0;
#X connect 39 1 33 2;
#X connect 39 2 46 0;
#X connect 39 2 47 1;
#X connect 47 0 36 1;
#X connect 48 0 47 0;
#X connect 49 0 47 0;
#X connect 53 0 50 0;
#X connect 53 0 57 0;
#X connect 53 1 51 0;
#X connect 53 1 54 1;
#X connect 53 2 52 0;
#X connect 53 2 59 0;
#X connect 54 0 55 0;
#X connect 54 0 23 0;
#X connect 57 0 58 0;
#X connect 57 1 54 2;
#X connect 58 0 54 0;
#X connect 59 0 58 1;
#X restore 878 223 pd midifile_write;
#N canvas 214 27 1028 899 midifile_read 0;
#X obj 198 518 bng 15 250 50 0 empty empty step 18 7 0 12 -4160 -257985
-1;
#X obj -148 60 openpanel;
#X obj -148 7 bng 45 250 50 0 empty empty choose 3 23 0 12 -62784 -260818
-258699;
#X obj -40 146 tgl 45 0 empty empty play -45 23 0 12 -24198 -1 -258699
0 1;
#X msg 231 469 rewind;
#X text 81 468 go to start of file;
#X floatatom 340 560 15 0 0 0 current_tick - -;
#X obj 75 292 hradio 15 1 0 16 empty empty track_number 0 -6 0 12 -62784
-241291 -1 0;
#X msg 75 313 dump \$1;
#X msg 194 432 68050;
#X msg 19 257 track \$1;
#X obj 19 217 hradio 15 1 0 16 empty empty track_number 0 -6 0 12 -62784
-241291 -1 0;
#X obj -40 198 metro 2;
#X text 24 535 creation arguments: midi_file_name;
#X text 23 514 output only this track;
#X text 138 312 parse this track to main window;
#X msg 255 493 0;
#X text 82 432 goto tick 68050;
#X floatatom 104 701 5 0 0 0 note - -;
#X floatatom 171 701 5 0 0 1 velocity - -;
#X floatatom 315 615 15 0 0 0 last_tick - -;
#X msg 151 389 verbose \$1;
#X text -26 390 verbosity defaults to 1;
#X text -97 2 1: choose a MIDI file to play;
#X text 13 140 2: start playing it;
#X obj 275 415 spigot;
#X obj 314 381 tgl 25 0 empty empty loop -45 12 0 12 -4160 -257985
-258113 0 1;
#X msg -148 90 read \$1;
#X floatatom 151 365 5 0 0 0 - - -;
#X obj 151 346 hradio 15 1 0 4 empty empty verbosity 0 -6 0 12 -62784
-241291 -1 0;
#X obj 19 234 - 1;
#X text 684 668 note off events;
#X obj 275 533 midifile wowo.mid;
#X obj -95 496 ctlout 123;
#X msg -95 466 123;
#X obj 275 640 route 144 145 146 147 148 149 150 151 152 153 154 155
156 157 158 159;
#X obj 104 676 unpack 0 0;
#X obj 451 692 route 128 129 130 131 132 133 134 135 136 137 138 139
140 141 142 143;
#X msg -121 117 read I_Wanna_Be_Sedated.mid;
#X obj -95 438 bng 15 250 50 0 empty empty all_notes_off 17 7 0 10
-258113 -257985 -1;
#X obj 453 573 t b b;
#X floatatom -26 254 5 0 0 0 - - -;
#X obj 499 588 bng 15 250 50 0 empty empty end 17 7 0 10 -258113 -257985
-1;
#X text 407 532 bangs at end of file:;
#X obj -123 676 print note_on;
#X obj -124 728 print note_off;
#X floatatom 456 422 9 0 0 0 loop_start_tick - -;
#X text 54 234 -1 = play all tracks;
#X obj 315 593 f;
#X text -18 562 MIDI messages are output as lists;
#X text 111 639 select note on events:;
#X obj 275 816 noteout 1;
#X obj 346 816 noteout 2;
#X obj 418 816 noteout 3;
#X obj 489 816 noteout 4;
#X text -78 746 select note on events:;
#X obj 88 747 route 176 177 178 179 180 181 182 183 184 185 186 187
188 189 190 191 192;
#X floatatom 88 814 5 0 0 0 controller - -;
#X floatatom 155 814 5 0 0 1 value - -;
#X obj 88 789 unpack 0 0;
#X obj -124 783 print controller;
#X obj -26 861 ctlout 1;
#X obj -32 835 f;
#X obj -32 809 t b f;
#X obj 499 553 route bang format tracks ticks_per_quarternote;
#X obj 275 441 f 0;
#X text 601 830 Martin Peach \, 2011;
#X floatatom 578 585 3 0 0 1 format - -;
#X floatatom 658 585 5 0 0 1 tracks - -;
#X floatatom 738 585 5 0 0 1 ticks_per_quarternote - -;
#X floatatom 263 55 5 0 0 1 tracks - -;
#X symbolatom 427 105 40 0 0 0 - - -;
#X obj 427 79 prepend set;
#X obj 418 139 unpack 0 0;
#X floatatom 485 192 15 0 0 0 last_tick - -;
#X floatatom 418 165 5 0 0 1 track - -;
#X floatatom 340 105 5 0 0 1 track - -;
#X obj 340 79 unpack 0 s;
#X obj 496 231 unpack 0 0 0 0;
#X floatatom 496 299 3 0 0 1 / - -;
#X floatatom 527 299 3 0 0 1 - - -;
#X floatatom 559 268 5 0 0 1 clocks_per_click - -;
#X floatatom 591 299 5 0 0 1 32nds_per_quarternote - -;
#X floatatom 714 406 15 0 0 0 microsec_per_quarternote - -;
#X obj 574 427 /;
#X floatatom 715 447 15 0 0 0 microsec_per_tick - -;
#X obj 574 468 / 1000;
#X floatatom 574 499 15 0 0 0 millisec_per_tick - -;
#X obj 740 105 print other_meta;
#X obj 263 18 route seq_num name end time_sig microsec_per_quarternote
;
#X obj 652 76 route key_sig;
#X obj 652 133 unpack 0 0 s;
#X symbolatom 733 238 10 0 0 0 key - -;
#X obj 733 212 prepend set;
#X floatatom 652 162 5 0 0 1 +sharps/-flats - -;
#X obj 692 191 tgl 15 0 empty empty minor 17 7 0 10 -262144 -1 -1 0
1;
#X connect 0 0 32 0;
#X connect 1 0 27 0;
#X connect 2 0 1 0;
#X connect 3 0 12 0;
#X connect 4 0 32 0;
#X connect 7 0 8 0;
#X connect 8 0 32 0;
#X connect 9 0 32 0;
#X connect 10 0 32 0;
#X connect 11 0 30 0;
#X connect 12 0 32 0;
#X connect 16 0 32 0;
#X connect 21 0 32 0;
#X connect 25 0 65 0;
#X connect 26 0 25 1;
#X connect 27 0 32 0;
#X connect 28 0 21 0;
#X connect 29 0 28 0;
#X connect 30 0 10 0;
#X connect 30 0 41 0;
#X connect 32 0 35 0;
#X connect 32 0 56 0;
#X connect 32 1 6 0;
#X connect 32 1 48 1;
#X connect 32 2 64 0;
#X connect 34 0 33 0;
#X connect 35 0 36 0;
#X connect 35 0 44 0;
#X connect 35 0 51 0;
#X connect 35 1 52 0;
#X connect 35 2 53 0;
#X connect 35 3 54 0;
#X connect 35 16 37 0;
#X connect 36 0 18 0;
#X connect 36 1 19 0;
#X connect 37 0 45 0;
#X connect 37 0 51 0;
#X connect 37 1 52 0;
#X connect 37 2 53 0;
#X connect 37 3 54 0;
#X connect 38 0 32 0;
#X connect 39 0 34 0;
#X connect 40 0 25 0;
#X connect 40 1 48 0;
#X connect 46 0 65 1;
#X connect 48 0 20 0;
#X connect 56 0 59 0;
#X connect 56 0 60 0;
#X connect 59 0 57 0;
#X connect 59 0 63 0;
#X connect 59 1 58 0;
#X connect 59 1 62 1;
#X connect 62 0 61 0;
#X connect 63 0 62 0;
#X connect 63 1 61 1;
#X connect 64 0 42 0;
#X connect 64 0 40 0;
#X connect 64 1 67 0;
#X connect 64 2 68 0;
#X connect 64 3 69 0;
#X connect 64 3 84 1;
#X connect 64 4 89 0;
#X connect 65 0 32 0;
#X connect 72 0 71 0;
#X connect 73 0 75 0;
#X connect 73 1 74 0;
#X connect 77 0 76 0;
#X connect 77 1 72 0;
#X connect 78 0 79 0;
#X connect 78 1 80 0;
#X connect 78 2 81 0;
#X connect 78 3 82 0;
#X connect 84 0 85 0;
#X connect 84 0 86 0;
#X connect 86 0 87 0;
#X connect 89 0 70 0;
#X connect 89 1 77 0;
#X connect 89 2 73 0;
#X connect 89 3 78 0;
#X connect 89 4 83 0;
#X connect 89 4 84 0;
#X connect 89 5 90 0;
#X connect 90 0 91 0;
#X connect 90 1 88 0;
#X connect 91 0 94 0;
#X connect 91 1 95 0;
#X connect 91 2 93 0;
#X connect 93 0 92 0;
#X restore 878 190 pd midifile_read;
#X text 817 117 midifile reads and writes MIDI files.;
#X msg 527 528 127;
#X msg 556 645 1;
#X obj 770 644 noteout 1;
#X msg 844 621 1;
#X connect 0 0 47 0;
#X connect 1 0 6 0;
#X connect 1 1 3 0;
#X connect 2 0 47 0;
#X connect 3 0 2 0;
#X connect 4 0 3 1;
#X connect 6 0 10 0;
#X connect 6 6 30 0;
#X connect 7 0 12 0;
#X connect 8 0 12 1;
#X connect 9 0 7 0;
#X connect 9 0 26 0;
#X connect 9 0 41 0;
#X connect 9 1 8 0;
#X connect 9 1 50 0;
#X connect 10 0 13 0;
#X connect 10 1 13 1;
#X connect 10 2 13 2;
#X connect 11 0 12 2;
#X connect 13 0 9 0;
#X connect 14 0 16 0;
#X connect 22 0 24 0;
#X connect 22 1 25 0;
#X connect 26 0 27 0;
#X connect 26 1 28 0;
#X connect 27 0 22 0;
#X connect 28 0 22 1;
#X connect 33 0 56 0;
#X connect 33 0 46 0;
#X connect 34 0 36 0;
#X connect 35 0 34 1;
#X connect 35 0 42 1;
#X connect 36 0 40 0;
#X connect 38 0 46 1;
#X connect 38 0 56 1;
#X connect 39 0 38 0;
#X connect 40 0 48 0;
#X connect 40 1 48 1;
#X connect 42 0 43 0;
#X connect 44 0 38 0;
#X connect 45 0 38 0;
#X connect 46 0 42 0;
#X connect 47 0 1 0;
#X connect 50 0 51 0;
#X connect 50 1 52 0;
#X connect 53 0 62 0;
#X connect 53 1 62 1;
#X connect 55 0 54 0;
#X connect 56 0 34 0;
#X connect 60 0 40 1;
#X connect 61 0 48 2;
#X connect 63 0 62 2;
