#N canvas 392 440 1015 818 10;
#X obj 142 254 loadbang;
#X obj 142 306 seq;
#X obj 525 316 pgmin;
#X obj 519 287 bendin;
#X obj 513 349 touchin;
#X obj 490 379 polytouchin;
#X obj 586 466 midiin;
#X obj 611 557 sysexin;
#X obj 564 230 noteout;
#X obj 564 259 ctlout;
#X obj 564 287 bendout;
#X obj 565 349 touchout;
#X obj 565 379 polytouchout;
#X obj 631 466 midiout;
#X obj 565 317 pgmout;
#X obj 519 229 notein;
#X obj 525 259 ctlin;
#X obj 91 318 bng 15 250 50 0 empty empty empty 17 7 0 10 -228856 -1
-1;
#X obj 157 339 spigot;
#X obj 190 314 tgl 15 0 empty loop empty 17 7 0 10 -228856 -1 -1 1
1;
#X text 208 313 loop;
#X obj 142 384 midiparse;
#N canvas 588 58 491 582 voice1 0;
#X obj 200 447 *~;
#X obj 215 409 vline~;
#X obj 105 242 mtof;
#X floatatom 105 272 5 0 0 0 - - -;
#X obj 271 293 t f f;
#X obj 271 348 pack;
#X obj 298 318 * 0.5;
#X obj 271 269 / 127;
#X obj 215 159 t f f;
#X obj 271 243 f;
#X obj 110 68 inlet;
#X floatatom 215 132 5 0 0 0 - - -;
#X floatatom 105 215 5 0 0 0 - - -;
#X obj 200 479 outlet~;
#X msg 215 364 0 10;
#X msg 271 374 \$1 10 \, \$2 40 10;
#X obj 105 298 phasor~;
#X obj 156 282 *~ 0.5;
#X obj 156 306 +~ 0.5;
#X obj 105 335 triangle~;
#X obj 156 258 osc~ 0.75;
#X obj 110 99 unpack float float;
#X obj 215 189 != 0;
#X obj 215 214 sel 0 1;
#X connect 0 0 13 0;
#X connect 1 0 0 1;
#X connect 2 0 3 0;
#X connect 3 0 16 0;
#X connect 4 0 5 0;
#X connect 4 1 6 0;
#X connect 5 0 15 0;
#X connect 6 0 5 1;
#X connect 7 0 4 0;
#X connect 8 0 22 0;
#X connect 8 1 9 1;
#X connect 9 0 7 0;
#X connect 10 0 21 0;
#X connect 11 0 8 0;
#X connect 12 0 2 0;
#X connect 14 0 1 0;
#X connect 15 0 1 0;
#X connect 16 0 19 0;
#X connect 17 0 18 0;
#X connect 18 0 19 1;
#X connect 19 0 0 0;
#X connect 20 0 17 0;
#X connect 21 0 12 0;
#X connect 21 1 11 0;
#X connect 22 0 23 0;
#X connect 23 0 14 0;
#X connect 23 1 9 0;
#X restore 104 508 pd voice1;
#N canvas 948 78 463 550 voice2 0;
#X obj 200 447 *~;
#X obj 215 409 vline~;
#X obj 103 242 mtof;
#X floatatom 103 272 5 0 0 0 - - -;
#X obj 271 293 t f f;
#X obj 271 348 pack;
#X obj 298 318 * 0.5;
#X obj 271 269 / 127;
#X obj 215 159 t f f;
#X obj 271 243 f;
#X obj 110 58 inlet;
#X floatatom 215 132 5 0 0 0 - - -;
#X floatatom 103 215 5 0 0 0 - - -;
#X obj 200 480 outlet~;
#X msg 271 374 \$1 10 \, \$2 40 10;
#X msg 215 364 0 10;
#X obj 103 298 phasor~;
#X obj 154 307 +~ 0.5;
#X obj 103 335 triangle~;
#X obj 154 283 *~ 0.25;
#X obj 154 259 osc~ 0.25;
#X obj 110 89 unpack float float;
#X obj 215 214 sel 0 1;
#X obj 215 189 != 0;
#X connect 0 0 13 0;
#X connect 1 0 0 1;
#X connect 2 0 3 0;
#X connect 3 0 16 0;
#X connect 4 0 5 0;
#X connect 4 1 6 0;
#X connect 5 0 14 0;
#X connect 6 0 5 1;
#X connect 7 0 4 0;
#X connect 8 0 23 0;
#X connect 8 1 9 1;
#X connect 9 0 7 0;
#X connect 10 0 21 0;
#X connect 11 0 8 0;
#X connect 12 0 2 0;
#X connect 14 0 1 0;
#X connect 15 0 1 0;
#X connect 16 0 18 0;
#X connect 17 0 18 1;
#X connect 18 0 0 0;
#X connect 19 0 17 0;
#X connect 20 0 19 0;
#X connect 21 0 12 0;
#X connect 21 1 11 0;
#X connect 22 0 15 0;
#X connect 22 1 9 0;
#X connect 23 0 22 0;
#X restore 167 508 pd voice2;
#X obj 142 472 route 1 2;
#X obj 142 417 poly 2 1;
#X obj 196 542 hsl 128 15 0 1 0 0 empty ganho empty -2 -6 0 10 -240877
-1 -1 5300 0;
#N canvas 232 59 419 353 output 1;
#X obj 146 200 *~;
#X obj 205 150 line~;
#X msg 205 124 \$1 10;
#X obj 205 98 pow 4;
#X obj 205 61 inlet;
#X obj 146 60 inlet~;
#X obj 89 201 *~;
#X obj 89 61 inlet~;
#X obj 105 282 dac~;
#X obj 89 101 /~ 2;
#X obj 146 99 /~ 2;
#N canvas 0 22 450 300 panning 0;
#X obj 68 176 pansig~;
#X obj 190 179 pansig~;
#X obj 133 223 +~;
#X obj 188 221 +~;
#X obj 229 106 osc~ 0.1;
#X obj 107 139 *~ 0.5;
#X obj 229 140 *~ 0.5;
#X obj 274 45 loadbang;
#X obj 68 19 inlet~;
#X obj 190 20 inlet~;
#X obj 188 261 outlet~;
#X obj 133 261 outlet~;
#X msg 152 77 0;
#X obj 107 103 osc~ 0.1;
#X msg 274 78 0.5;
#X connect 0 0 2 0;
#X connect 0 1 3 0;
#X connect 1 0 2 1;
#X connect 1 1 3 1;
#X connect 2 0 11 0;
#X connect 3 0 10 0;
#X connect 4 0 6 0;
#X connect 5 0 0 1;
#X connect 6 0 1 1;
#X connect 7 0 14 0;
#X connect 7 0 12 0;
#X connect 8 0 0 0;
#X connect 9 0 1 0;
#X connect 12 0 13 1;
#X connect 13 0 5 0;
#X connect 14 0 4 1;
#X restore 89 245 pd panning;
#X connect 0 0 11 1;
#X connect 1 0 0 1;
#X connect 1 0 6 1;
#X connect 2 0 1 0;
#X connect 3 0 2 0;
#X connect 4 0 3 0;
#X connect 5 0 10 0;
#X connect 6 0 11 0;
#X connect 7 0 9 0;
#X connect 9 0 6 0;
#X connect 10 0 0 0;
#X connect 11 0 8 0;
#X connect 11 1 8 1;
#X restore 142 569 pd output;
#X obj 142 443 pack f f f;
#X obj 260 379 loadbang;
#X obj 586 84 mrpeach/midifile;
#X text 664 258 Controle;
#X text 664 287 Bend Wheel;
#X text 665 317 Program;
#X text 666 350 Aftertouch;
#X text 666 378 Aftertouch polifônico;
#X msg 239 454 \; loop 1 \; ganho 0.8 \; pd dsp 1;
#X text 47 31 The [seq] object allows us to read a MIDI sequence on
the Pd. However \, it sends "raw" MIDI messages \, which means that
they are not separated into different types of messages.;
#X text 49 78 We use the object [midiparse] to read and route raw messages.
Open your help for more details.;
#X text 50 113 In this patch we use the left outlet which is the message
of MIDI notes \, which we use to control two voices. The [seq] sends
umbang to the right outlet when the sequence ends and we use that for
a loop.;
#X text 50 177 [Seq] also allows you to record MIDI streams from your
controller. Open help for more details.;
#X text 479 34 Another object that works with MIDI is the [midifile]
of the "mrpeach" library.;
#X text 479 123 The Pd has several native objects that handle MIDI
messages \, managing the input and output of a MIDI device connected
to the computer.;
#X text 480 177 Following are a series of objects that work with specific
MIDI messages.;
#X text 480 424 There are also objects that deal with "raw" MIDI messages.
;
#X text 665 230 Notes;
#X text 482 504 Finally \, [sysexin] receives "sysex" messages sent
to the Pd. However \, the Pd does not send them.;
#X obj 68 674 makenote 127 800;
#X text 144 658 duration in milliseconds;
#X floatatom 70 700 5 0 0 0 - - -;
#X floatatom 139 699 5 0 0 0 - - -;
#X obj 78 595 unpack f f;
#X floatatom 78 625 5 0 0 0 - - -;
#X floatatom 143 625 5 0 0 0 - - -;
#X text 77 641 pitch;
#X floatatom 200 406 5 0 0 0 - - -;
#X text 243 405 channel number;
#X obj 467 717 s k01;
#X text 188 628 velocity;
#X obj 527 717 s k02;
#X obj 298 676 makenote 127 800;
#X floatatom 300 702 5 0 0 0 - - -;
#X floatatom 369 701 5 0 0 0 - - -;
#X obj 308 597 unpack f f;
#X floatatom 308 627 5 0 0 0 - - -;
#X floatatom 373 627 5 0 0 0 - - -;
#X text 307 643 pitch;
#X text 418 630 velocity;
#X msg 477 606 300;
#X floatatom 481 637 5 0 0 0 - - -;
#X text 374 660 duration;
#X text 502 604 duration;
#X obj 87 726 noteout 1;
#X obj 317 729 noteout 2;
#X msg 142 280 read ./files/beethovenmoonlite.mid \, bang;
#X connect 0 0 74 0;
#X connect 1 0 21 0;
#X connect 1 1 18 0;
#X connect 17 0 74 0;
#X connect 18 0 17 0;
#X connect 19 0 18 1;
#X connect 21 0 25 0;
#X connect 21 6 55 0;
#X connect 22 0 27 0;
#X connect 23 0 27 1;
#X connect 24 0 22 0;
#X connect 24 0 51 0;
#X connect 24 1 23 0;
#X connect 24 1 63 0;
#X connect 25 0 28 0;
#X connect 25 1 28 1;
#X connect 25 2 28 2;
#X connect 26 0 27 2;
#X connect 28 0 24 0;
#X connect 29 0 36 0;
#X connect 47 0 49 0;
#X connect 47 1 50 0;
#X connect 49 0 72 0;
#X connect 50 0 72 1;
#X connect 51 0 52 0;
#X connect 51 1 53 0;
#X connect 52 0 47 0;
#X connect 53 0 47 1;
#X connect 60 0 61 0;
#X connect 60 1 62 0;
#X connect 61 0 73 0;
#X connect 62 0 73 1;
#X connect 63 0 64 0;
#X connect 63 1 65 0;
#X connect 64 0 60 0;
#X connect 65 0 60 1;
#X connect 68 0 69 0;
#X connect 69 0 60 2;
#X connect 69 0 47 2;
#X connect 74 0 1 0;
