#N canvas 188 202 1528 789 10;
#X obj 382 238 tgl 15 0 empty empty empty 17 7 0 10 -262144 -1 -1 1
1;
#N canvas 1006 667 431 469 markovPitchGenerate 0;
#X obj 41 43 inlet;
#X obj 50 102 bng 15 250 50 0 empty empty empty 17 7 0 10 -262144 -1
-1;
#X obj 90 174 t f f;
#X floatatom 157 129 5 0 0 0 - - -;
#X obj 153 35 inlet;
#X obj 206 46 r finished;
#X msg 154 68 next;
#X obj 29 225 length;
#X obj 29 249 t b f;
#X obj 29 276 random;
#X obj 20 301 + 1;
#X obj 88 329 pack;
#X msg 89 362 nth \$2 \$1;
#X floatatom 219 417 5 0 0 0 - - -;
#X obj 220 448 outlet;
#X obj 155 95 coll pitchMatrix01;
#C restore;
#X obj 94 136 f;
#X obj 29 200 coll pitchMatrix;
#C restore;
#X obj 92 387 coll pitchMatrix;
#C restore;
#X connect 0 0 1 0;
#X connect 1 0 16 0;
#X connect 2 0 17 0;
#X connect 2 1 11 1;
#X connect 3 0 16 1;
#X connect 4 0 6 0;
#X connect 5 0 6 0;
#X connect 6 0 15 0;
#X connect 7 0 8 0;
#X connect 8 0 9 0;
#X connect 8 1 9 1;
#X connect 9 0 10 0;
#X connect 10 0 11 0;
#X connect 11 0 12 0;
#X connect 12 0 18 0;
#X connect 13 0 14 0;
#X connect 13 0 16 1;
#X connect 15 0 3 0;
#X connect 16 0 2 0;
#X connect 17 0 7 0;
#X connect 18 0 13 0;
#X restore 382 377 pd markovPitchGenerate;
#X obj 533 362 bng 15 250 50 0 empty empty empty 17 7 0 10 -262144
-1 -1;
#X floatatom 382 411 5 0 0 0 - - -;
#X text 531 345 start new pitch;
#X obj 382 455 makenote 127 800;
#X obj 382 507 noteout 1;
#X msg 432 401 127;
#X msg 461 494 1;
#N canvas 660 387 357 378 markovMIDIAnalysis 0;
#X obj 37 32 inlet;
#N canvas 172 120 207 236 pair 0;
#X obj -34 29 inlet;
#X obj -34 163 outlet;
#X obj -34 139 pack;
#X text 3 27 Float in;
#X text 6 164 List of paired numbers out;
#X obj -34 83 t f b f;
#X floatatom -34 55 5 0 0 0 - - -;
#X obj -33 109 f;
#X connect 0 0 6 0;
#X connect 2 0 1 0;
#X connect 5 0 7 1;
#X connect 5 1 7 0;
#X connect 5 2 2 1;
#X connect 6 0 5 0;
#X connect 7 0 2 0;
#X restore 37 62 pd pair;
#X msg 37 93 merge \$1 \$2;
#X obj 119 69 r resetMatrix;
#X msg 119 93 clear;
#X obj 37 128 coll pitchMatrix;
#C restore;
#X text 143 128 matrix of loaded notes;
#X connect 0 0 1 0;
#X connect 1 0 2 0;
#X connect 2 0 5 0;
#X connect 3 0 4 0;
#X connect 4 0 5 0;
#X restore 382 128 pd markovMIDIAnalysis;
#X obj 512 106 s resetMatrix;
#X obj 512 80 bng 15 250 50 0 empty empty empty 17 7 0 10 -262144 -1
-1;
#X floatatom 500 441 5 0 0 0 - - -;
#X obj 742 235 tgl 15 0 empty empty empty 17 7 0 10 -262144 -1 -1 1
1;
#N canvas 959 553 431 469 markovPitchGenerate 0;
#X obj 41 43 inlet;
#X obj 50 102 bng 15 250 50 0 empty empty empty 17 7 0 10 -262144 -1
-1;
#X obj 90 174 t f f;
#X floatatom 157 129 5 0 0 0 - - -;
#X obj 153 35 inlet;
#X obj 206 46 r finished;
#X msg 154 68 next;
#X obj 29 225 length;
#X obj 29 249 t b f;
#X obj 29 276 random;
#X obj 20 301 + 1;
#X obj 88 329 pack;
#X msg 89 362 nth \$2 \$1;
#X floatatom 219 417 5 0 0 0 - - -;
#X obj 220 448 outlet;
#X obj 155 95 coll pitchMatrix01;
#C restore;
#X obj 94 136 f;
#X obj 29 200 coll pitchMatrix02;
#C restore;
#X obj 92 387 coll pitchMatrix02;
#C restore;
#X connect 0 0 1 0;
#X connect 1 0 16 0;
#X connect 2 0 17 0;
#X connect 2 1 11 1;
#X connect 3 0 16 1;
#X connect 4 0 6 0;
#X connect 5 0 6 0;
#X connect 6 0 15 0;
#X connect 7 0 8 0;
#X connect 8 0 9 0;
#X connect 8 1 9 1;
#X connect 9 0 10 0;
#X connect 10 0 11 0;
#X connect 11 0 12 0;
#X connect 12 0 18 0;
#X connect 13 0 14 0;
#X connect 13 0 16 1;
#X connect 15 0 3 0;
#X connect 16 0 2 0;
#X connect 17 0 7 0;
#X connect 18 0 13 0;
#X restore 743 373 pd markovPitchGenerate;
#X obj 895 358 bng 15 250 50 0 empty empty empty 17 7 0 10 -262144
-1 -1;
#X floatatom 743 407 5 0 0 0 - - -;
#X text 893 341 start new pitch;
#N canvas 660 387 357 378 markovMIDIAnalysis 0;
#X obj 37 32 inlet;
#N canvas 172 120 207 236 pair 0;
#X obj -34 29 inlet;
#X obj -34 163 outlet;
#X obj -34 139 pack;
#X text 3 27 Float in;
#X text 6 164 List of paired numbers out;
#X obj -34 83 t f b f;
#X floatatom -34 55 5 0 0 0 - - -;
#X obj -33 109 f;
#X connect 0 0 6 0;
#X connect 2 0 1 0;
#X connect 5 0 7 1;
#X connect 5 1 7 0;
#X connect 5 2 2 1;
#X connect 6 0 5 0;
#X connect 7 0 2 0;
#X restore 37 62 pd pair;
#X msg 37 93 merge \$1 \$2;
#X msg 119 93 clear;
#X text 164 130 matrix of loaded notes;
#X obj 37 128 coll pitchMatrix02;
#C restore;
#X obj 119 69 r resetMatrix02;
#X connect 0 0 1 0;
#X connect 1 0 2 0;
#X connect 2 0 5 0;
#X connect 3 0 5 0;
#X connect 6 0 3 0;
#X restore 741 127 pd markovMIDIAnalysis;
#X obj 874 81 bng 15 250 50 0 empty empty empty 17 7 0 10 -262144 -1
-1;
#X obj 874 107 s resetMatrix02;
#X obj 382 95 *;
#X obj 397 68 tgl 15 0 empty empty empty 17 7 0 10 -262144 -1 -1 1
1;
#X text 407 238 Start M01;
#X text 767 231 Start M02;
#X obj 98 70 loadbang;
#X obj 98 122 seq;
#X obj 47 134 bng 15 250 50 0 empty empty empty 17 7 0 10 -228856 -1
-1;
#X obj 113 155 spigot;
#X obj 146 130 tgl 15 0 empty loop empty 17 7 0 10 -228856 -1 -1 1
1;
#X text 164 129 loop;
#X obj 98 200 midiparse;
#N canvas 588 58 491 582 voice1 0;
#X obj 200 447 *~;
#X obj 215 409 vline~;
#X obj 105 242 mtof;
#X floatatom 105 272 5 0 0 0 - - -;
#X obj 271 293 t f f;
#X obj 271 348 pack;
#X obj 298 318 * 0.5;
#X obj 271 269 / 127;
#X obj 215 159 t f f;
#X obj 271 243 f;
#X obj 110 68 inlet;
#X floatatom 215 132 5 0 0 0 - - -;
#X floatatom 105 215 5 0 0 0 - - -;
#X obj 200 479 outlet~;
#X msg 215 364 0 10;
#X msg 271 374 \$1 10 \, \$2 40 10;
#X obj 105 298 phasor~;
#X obj 156 282 *~ 0.5;
#X obj 156 306 +~ 0.5;
#X obj 105 335 triangle~;
#X obj 156 258 osc~ 0.75;
#X obj 110 99 unpack float float;
#X obj 215 189 != 0;
#X obj 215 214 sel 0 1;
#X connect 0 0 13 0;
#X connect 1 0 0 1;
#X connect 2 0 3 0;
#X connect 3 0 16 0;
#X connect 4 0 5 0;
#X connect 4 1 6 0;
#X connect 5 0 15 0;
#X connect 6 0 5 1;
#X connect 7 0 4 0;
#X connect 8 0 22 0;
#X connect 8 1 9 1;
#X connect 9 0 7 0;
#X connect 10 0 21 0;
#X connect 11 0 8 0;
#X connect 12 0 2 0;
#X connect 14 0 1 0;
#X connect 15 0 1 0;
#X connect 16 0 19 0;
#X connect 17 0 18 0;
#X connect 18 0 19 1;
#X connect 19 0 0 0;
#X connect 20 0 17 0;
#X connect 21 0 12 0;
#X connect 21 1 11 0;
#X connect 22 0 23 0;
#X connect 23 0 14 0;
#X connect 23 1 9 0;
#X restore 60 324 pd voice1;
#N canvas 948 78 463 550 voice2 0;
#X obj 200 447 *~;
#X obj 215 409 vline~;
#X obj 103 242 mtof;
#X floatatom 103 272 5 0 0 0 - - -;
#X obj 271 293 t f f;
#X obj 271 348 pack;
#X obj 298 318 * 0.5;
#X obj 271 269 / 127;
#X obj 215 159 t f f;
#X obj 271 243 f;
#X obj 110 58 inlet;
#X floatatom 215 132 5 0 0 0 - - -;
#X floatatom 103 215 5 0 0 0 - - -;
#X obj 200 480 outlet~;
#X msg 271 374 \$1 10 \, \$2 40 10;
#X msg 215 364 0 10;
#X obj 103 298 phasor~;
#X obj 154 307 +~ 0.5;
#X obj 103 335 triangle~;
#X obj 154 283 *~ 0.25;
#X obj 154 259 osc~ 0.25;
#X obj 110 89 unpack float float;
#X obj 215 214 sel 0 1;
#X obj 215 189 != 0;
#X connect 0 0 13 0;
#X connect 1 0 0 1;
#X connect 2 0 3 0;
#X connect 3 0 16 0;
#X connect 4 0 5 0;
#X connect 4 1 6 0;
#X connect 5 0 14 0;
#X connect 6 0 5 1;
#X connect 7 0 4 0;
#X connect 8 0 23 0;
#X connect 8 1 9 1;
#X connect 9 0 7 0;
#X connect 10 0 21 0;
#X connect 11 0 8 0;
#X connect 12 0 2 0;
#X connect 14 0 1 0;
#X connect 15 0 1 0;
#X connect 16 0 18 0;
#X connect 17 0 18 1;
#X connect 18 0 0 0;
#X connect 19 0 17 0;
#X connect 20 0 19 0;
#X connect 21 0 12 0;
#X connect 21 1 11 0;
#X connect 22 0 15 0;
#X connect 22 1 9 0;
#X connect 23 0 22 0;
#X restore 123 324 pd voice2;
#X obj 98 288 route 1 2;
#X obj 98 233 poly 2 1;
#X obj 152 358 hsl 128 15 0 1 0 0 empty ganho empty -2 -6 0 10 -240877
-1 -1 0 0;
#N canvas 232 59 419 353 output 0;
#X obj 146 200 *~;
#X obj 205 150 line~;
#X msg 205 124 \$1 10;
#X obj 205 98 pow 4;
#X obj 205 61 inlet;
#X obj 146 60 inlet~;
#X obj 89 201 *~;
#X obj 89 61 inlet~;
#X obj 105 282 dac~;
#X obj 89 101 /~ 2;
#X obj 146 99 /~ 2;
#N canvas 0 22 450 300 panning 0;
#X obj 68 176 pansig~;
#X obj 190 179 pansig~;
#X obj 133 223 +~;
#X obj 188 221 +~;
#X obj 229 106 osc~ 0.1;
#X obj 107 139 *~ 0.5;
#X obj 229 140 *~ 0.5;
#X obj 274 45 loadbang;
#X obj 68 19 inlet~;
#X obj 190 20 inlet~;
#X obj 188 261 outlet~;
#X obj 133 261 outlet~;
#X msg 152 77 0;
#X obj 107 103 osc~ 0.1;
#X msg 274 78 0.5;
#X connect 0 0 2 0;
#X connect 0 1 3 0;
#X connect 1 0 2 1;
#X connect 1 1 3 1;
#X connect 2 0 11 0;
#X connect 3 0 10 0;
#X connect 4 0 6 0;
#X connect 5 0 0 1;
#X connect 6 0 1 1;
#X connect 7 0 14 0;
#X connect 7 0 12 0;
#X connect 8 0 0 0;
#X connect 9 0 1 0;
#X connect 12 0 13 1;
#X connect 13 0 5 0;
#X connect 14 0 4 1;
#X restore 89 245 pd panning;
#X connect 0 0 11 1;
#X connect 1 0 0 1;
#X connect 1 0 6 1;
#X connect 2 0 1 0;
#X connect 3 0 2 0;
#X connect 4 0 3 0;
#X connect 5 0 10 0;
#X connect 6 0 11 0;
#X connect 7 0 9 0;
#X connect 9 0 6 0;
#X connect 10 0 0 0;
#X connect 11 0 8 0;
#X connect 11 1 8 1;
#X restore 98 385 pd output;
#X obj 98 259 pack f f f;
#X obj 195 247 loadbang;
#X obj 34 500 makenote 127 800;
#X floatatom 34 526 5 0 0 0 - - -;
#X floatatom 103 525 5 0 0 0 - - -;
#X obj 34 411 unpack f f;
#X floatatom 34 441 5 0 0 0 - - -;
#X floatatom 99 441 5 0 0 0 - - -;
#X text 40 459 pitch;
#X floatatom 156 222 5 0 0 0 - - -;
#X text 199 221 channel number;
#X text 105 458 velocity;
#X msg 98 96 read ./files/bach.mid \, bang;
#X obj 229 412 unpack f f;
#X floatatom 229 442 5 0 0 0 - - -;
#X floatatom 294 442 5 0 0 0 - - -;
#X obj 741 96 *;
#X obj 566 -3 bng 15 250 50 0 empty empty empty 17 7 0 10 -262144 -1
-1;
#X obj 756 72 tgl 15 0 empty empty empty 17 7 0 10 -262144 -1 -1 1
1;
#X obj 584 52 tgl 15 0 empty empty empty 17 7 0 10 -262144 -1 -1 1
1;
#X text 384 179 MARKOV Pitch;
#X text 742 173 MARKOV Velocity;
#X obj 35 555 noteout 1;
#X obj 567 219 bng 15 250 50 0 empty empty empty 17 7 0 10 -262144
-1 -1;
#X text 177 -1 ML VARIATIONS MACHINE;
#X floatatom 578 293 5 0 0 0 - - -;
#X floatatom 428 424 5 0 0 0 - - -;
#X msg 613 272 300;
#X msg 195 270 \; loop 1 \; ganho 0.8 \; pd dsp 1;
#X floatatom 174 382 5 0 0 0 - - -;
#X msg 192 335 0;
#X obj 232 334 loadbang;
#X msg 578 270 200;
#X msg 545 270 150;
#X text 170 57 bach or any midimachine;
#X text 595 214 START / STOP variations;
#X text 607 -6 START: Reset matrixes \, Start Collect Midinumbers \,
Start Variations;
#X text 17 472 preview bach voice 1;
#X text 243 470 voice 2;
#X text 566 374 Markove chains variations!;
#X text 531 133 < open MEMORY = collect Matrix >;
#X text 293 360 preview synth;
#X obj 382 344 metro 150;
#X obj 743 335 metro 150;
#X obj 745 560 lop~ 2;
#X floatatom 744 508 5 0 0 0 - - -;
#X obj 749 589 ftom~;
#X obj 764 626 snapshot~;
#X floatatom 764 657 0 0 0 0 - - -;
#X obj 811 570 loadbang;
#X obj 895 570 lop~ 2;
#X floatatom 894 518 5 0 0 0 - - -;
#X obj 899 599 ftom~;
#X obj 914 636 snapshot~;
#X floatatom 914 667 0 0 0 0 - - -;
#X obj 961 580 loadbang;
#X msg 865 595 10;
#X msg 1025 597 1;
#X obj 811 600 metro 10;
#X obj 961 610 metro 10;
#X connect 0 0 80 0;
#X connect 1 0 3 0;
#X connect 2 0 1 1;
#X connect 3 0 83 0;
#X connect 5 0 6 0;
#X connect 5 1 6 1;
#X connect 8 0 6 2;
#X connect 11 0 10 0;
#X connect 12 0 5 2;
#X connect 13 0 81 0;
#X connect 14 0 16 0;
#X connect 15 0 14 1;
#X connect 16 0 89 0;
#X connect 19 0 20 0;
#X connect 21 0 9 0;
#X connect 22 0 21 1;
#X connect 25 0 50 0;
#X connect 26 0 31 0;
#X connect 26 1 28 0;
#X connect 27 0 50 0;
#X connect 28 0 27 0;
#X connect 29 0 28 1;
#X connect 31 0 35 0;
#X connect 31 6 47 0;
#X connect 32 0 37 0;
#X connect 33 0 37 1;
#X connect 34 0 32 0;
#X connect 34 0 43 0;
#X connect 34 1 33 0;
#X connect 34 1 51 0;
#X connect 35 0 38 0;
#X connect 35 1 38 1;
#X connect 35 2 38 2;
#X connect 36 0 37 2;
#X connect 36 0 67 0;
#X connect 38 0 34 0;
#X connect 39 0 66 0;
#X connect 40 0 41 0;
#X connect 40 1 42 0;
#X connect 43 0 44 0;
#X connect 43 1 45 0;
#X connect 44 0 40 0;
#X connect 44 0 21 0;
#X connect 45 0 40 1;
#X connect 45 0 54 0;
#X connect 50 0 26 0;
#X connect 51 0 52 0;
#X connect 51 1 53 0;
#X connect 54 0 18 0;
#X connect 55 0 11 0;
#X connect 55 0 19 0;
#X connect 55 0 57 0;
#X connect 55 0 61 0;
#X connect 56 0 54 1;
#X connect 57 0 56 0;
#X connect 57 0 22 0;
#X connect 61 0 13 0;
#X connect 61 0 0 0;
#X connect 63 0 80 1;
#X connect 63 0 81 1;
#X connect 64 0 5 1;
#X connect 65 0 63 0;
#X connect 68 0 36 0;
#X connect 69 0 68 0;
#X connect 70 0 63 0;
#X connect 71 0 63 0;
#X connect 80 0 1 0;
#X connect 81 0 14 0;
#X connect 82 0 84 0;
#X connect 83 0 82 0;
#X connect 84 0 85 0;
#X connect 85 0 86 0;
#X connect 86 0 5 0;
#X connect 87 0 96 0;
#X connect 88 0 90 0;
#X connect 89 0 88 0;
#X connect 90 0 91 0;
#X connect 91 0 92 0;
#X connect 92 0 64 0;
#X connect 93 0 97 0;
#X connect 94 0 96 1;
#X connect 95 0 97 1;
#X connect 96 0 85 0;
#X connect 97 0 91 0;
