#N canvas 0 125 1906 882 10;
#X obj 237 61 tgl 15 0 empty empty empty 17 7 0 10 -262144 -1 -1 1
1;
#X obj 265 110 metro 250;
#X obj 302 84 *;
#X obj 302 31 random 11;
#X obj 425 33 hsl 256 15 0 50 0 0 empty empty empty -2 -8 0 10 -262144
-1 -1 2550 1;
#X obj 271 153 counter 0 11;
#X obj 338 183 bng 15 250 50 0 empty empty empty 17 7 0 10 -262144
-1 -1;
#X obj 338 209 random 12;
#X obj 127 218 alternate;
#X floatatom 220 225 5 0 0 0 - - -;
#X obj 220 258 tabread toneRow;
#X obj 126 243 1;
#X msg 173 244 2;
#X obj 125 279 gate 2;
#X floatatom 123 307 5 0 0 0 - - -;
#X floatatom 171 301 5 0 0 0 - - -;
#X obj 126 363 +;
#X floatatom 345 236 5 0 0 0 - - -;
#X obj 348 292 t b f;
#X obj 351 322 11;
#X obj 344 355 -;
#X floatatom 123 392 5 0 0 0 - - -;
#X obj 121 424 t f b;
#X obj 149 455 random 5;
#X obj 150 485 sel 0 1 2 3 4;
#X msg 153 514 24;
#X msg 187 514 36;
#X msg 219 513 48;
#X msg 252 513 60;
#X msg 283 513 72;
#X obj 125 546 +;
#X floatatom 342 384 5 0 0 0 - - -;
#X obj 547 83 loadbang;
#X obj 548 186 table toneRow;
#X obj 551 216 table rhythm;
#X floatatom 125 583 5 0 0 0 - - -;
#X floatatom 424 60 5 0 0 0 - - -;
#X msg 552 112 \; toneRow 0 11 10 7 1 3 0 2 9 5 4 8 5 \; rhythm 0 0
0 0 62 62 125 125 250 250 300 1000 \;;
#X obj 394 -10 loadbang;
#X text 397 228 random transposition;
#X text 315 509 random octave and pointillist effect;
#X obj 302 58 tabread rhythm;
#X msg 495 108 0.2;
#X floatatom 835 268 5 0 0 0 - - -;
#X msg 491 81 1;
#X text 439 15 < tempo multiply <;
#X floatatom 671 243 5 0 0 0 - - -;
#X obj 757 314 f;
#X obj 757 345 / 2;
#X obj 800 391 pipe;
#X obj 780 486 line;
#X msg 732 220 2000;
#X obj 683 588 ctlout 2;
#X obj 673 523 hsl 128 15 0 5000 0 0 empty empty empty -2 -8 0 10 -262144
-1 -1 11582 1;
#X obj 594 590 ctlout 7;
#X floatatom 397 105 5 0 0 0 - - -;
#X text 387 590 to hear on normal synth connect 7;
#X msg 491 54 2;
#X floatatom 481 -10 5 0 0 0 - - -;
#X msg 960 496 127;
#X floatatom 349 120 5 0 0 0 - - -;
#X msg 566 6 10;
#X msg 614 -9 5;
#X msg 735 431 0 \, 5000 \$1;
#X msg 822 436 0 \, 5000 \$1;
#X obj 907 239 tgl 15 0 empty empty empty 17 7 0 10 -262144 -1 -1 1
1;
#N canvas 1006 667 431 469 markovPitchGenerate 0;
#X obj 41 43 inlet;
#X obj 50 102 bng 15 250 50 0 empty empty empty 17 7 0 10 -262144 -1
-1;
#X obj 90 174 t f f;
#X floatatom 157 129 5 0 0 0 - - -;
#X obj 153 35 inlet;
#X obj 206 46 r finished;
#X msg 154 68 next;
#X obj 29 225 length;
#X obj 29 249 t b f;
#X obj 29 276 random;
#X obj 20 301 + 1;
#X obj 88 329 pack;
#X msg 89 362 nth \$2 \$1;
#X floatatom 219 417 5 0 0 0 - - -;
#X obj 220 448 outlet;
#X obj 155 95 coll pitchMatrix01;
#C restore;
#X obj 94 136 f;
#X obj 29 200 coll pitchMatrix;
#C restore;
#X obj 92 387 coll pitchMatrix;
#C restore;
#X connect 0 0 1 0;
#X connect 1 0 16 0;
#X connect 2 0 17 0;
#X connect 2 1 11 1;
#X connect 3 0 16 1;
#X connect 4 0 6 0;
#X connect 5 0 6 0;
#X connect 6 0 15 0;
#X connect 7 0 8 0;
#X connect 8 0 9 0;
#X connect 8 1 9 1;
#X connect 9 0 10 0;
#X connect 10 0 11 0;
#X connect 11 0 12 0;
#X connect 12 0 18 0;
#X connect 13 0 14 0;
#X connect 13 0 16 1;
#X connect 15 0 3 0;
#X connect 16 0 2 0;
#X connect 17 0 7 0;
#X connect 18 0 13 0;
#X restore 907 378 pd markovPitchGenerate;
#X obj 1058 363 bng 15 250 50 0 empty empty empty 17 7 0 10 -262144
-1 -1;
#X floatatom 907 412 5 0 0 0 - - -;
#X text 1056 346 start new pitch;
#X obj 907 556 makenote 127 800;
#X obj 907 608 noteout 1;
#X msg 957 402 127;
#X msg 986 595 1;
#N canvas 660 387 357 378 markovMIDIAnalysis 0;
#X obj 37 32 inlet;
#N canvas 172 120 207 236 pair 0;
#X obj -34 29 inlet;
#X obj -34 163 outlet;
#X obj -34 139 pack;
#X text 3 27 Float in;
#X text 6 164 List of paired numbers out;
#X obj -34 83 t f b f;
#X floatatom -34 55 5 0 0 0 - - -;
#X obj -33 109 f;
#X connect 0 0 6 0;
#X connect 2 0 1 0;
#X connect 5 0 7 1;
#X connect 5 1 7 0;
#X connect 5 2 2 1;
#X connect 6 0 5 0;
#X connect 7 0 2 0;
#X restore 37 62 pd pair;
#X msg 37 93 merge \$1 \$2;
#X obj 119 69 r resetMatrix;
#X msg 119 93 clear;
#X obj 37 128 coll pitchMatrix;
#C restore;
#X text 143 128 matrix of loaded notes;
#X connect 0 0 1 0;
#X connect 1 0 2 0;
#X connect 2 0 5 0;
#X connect 3 0 4 0;
#X connect 4 0 5 0;
#X restore 907 129 pd markovMIDIAnalysis;
#X obj 1037 107 s resetMatrix;
#X obj 1037 81 bng 15 250 50 0 empty empty empty 17 7 0 10 -262144
-1 -1;
#X floatatom 1025 542 5 0 0 0 - - -;
#X obj 1267 236 tgl 15 0 empty empty empty 17 7 0 10 -262144 -1 -1
1 1;
#N canvas 959 553 431 469 markovPitchGenerate 0;
#X obj 41 43 inlet;
#X obj 50 102 bng 15 250 50 0 empty empty empty 17 7 0 10 -262144 -1
-1;
#X obj 90 174 t f f;
#X floatatom 157 129 5 0 0 0 - - -;
#X obj 153 35 inlet;
#X obj 206 46 r finished;
#X msg 154 68 next;
#X obj 29 225 length;
#X obj 29 249 t b f;
#X obj 29 276 random;
#X obj 20 301 + 1;
#X obj 88 329 pack;
#X msg 89 362 nth \$2 \$1;
#X floatatom 219 417 5 0 0 0 - - -;
#X obj 220 448 outlet;
#X obj 155 95 coll pitchMatrix01;
#C restore;
#X obj 94 136 f;
#X obj 29 200 coll pitchMatrix02;
#C restore;
#X obj 92 387 coll pitchMatrix02;
#C restore;
#X connect 0 0 1 0;
#X connect 1 0 16 0;
#X connect 2 0 17 0;
#X connect 2 1 11 1;
#X connect 3 0 16 1;
#X connect 4 0 6 0;
#X connect 5 0 6 0;
#X connect 6 0 15 0;
#X connect 7 0 8 0;
#X connect 8 0 9 0;
#X connect 8 1 9 1;
#X connect 9 0 10 0;
#X connect 10 0 11 0;
#X connect 11 0 12 0;
#X connect 12 0 18 0;
#X connect 13 0 14 0;
#X connect 13 0 16 1;
#X connect 15 0 3 0;
#X connect 16 0 2 0;
#X connect 17 0 7 0;
#X connect 18 0 13 0;
#X restore 1268 374 pd markovPitchGenerate;
#X obj 1420 359 bng 15 250 50 0 empty empty empty 17 7 0 10 -262144
-1 -1;
#X floatatom 1268 408 5 0 0 0 - - -;
#X text 1418 342 start new pitch;
#X obj 1399 82 bng 15 250 50 0 empty empty empty 17 7 0 10 -262144
-1 -1;
#X obj 1399 108 s resetMatrix02;
#X text 932 239 Start M01;
#X text 1292 232 Start M02;
#X text 909 180 MARKOV Pitch;
#X text 1267 174 MARKOV Velocity;
#X obj 1047 175 bng 15 250 50 0 empty empty empty 17 7 0 10 -262144
-1 -1;
#X floatatom 1103 294 5 0 0 0 - - -;
#X floatatom 953 533 5 0 0 0 - - -;
#X msg 1138 273 300;
#X msg 1103 271 200;
#X msg 1070 271 150;
#X text 1076 172 START / STOP variations;
#X text 1091 375 Markove chains variations!;
#X text 1056 134 < open MEMORY = collect Matrix >;
#X obj 907 345 metro 150;
#X obj 1268 336 metro 150;
#X floatatom 1673 243 5 0 0 0 - - -;
#X floatatom 1693 392 0 0 0 0 - - -;
#X floatatom 1617 341 5 0 0 0 - - -;
#X floatatom 1439 668 0 0 0 0 - - -;
#X obj 1682 334 line;
#X floatatom 1682 360 5 0 0 0 - - -;
#X obj 1624 428 line;
#X floatatom 1624 454 5 0 0 0 - - -;
#X msg 1177 272 1000;
#X floatatom 1739 263 5 0 0 0 - - -;
#X text 1122 430 manipulate;
#X msg 1682 306 \$1 100;
#X obj 1697 274 + 0;
#X text 1216 554 <test \, change to 500 etc;
#X text 1631 534 <test \, change to 100 \, 10 or 1 etc;
#X msg 1624 400 \$1 100;
#N canvas 660 387 357 378 markovMIDIAnalysis02 0;
#X obj 37 32 inlet;
#N canvas 172 120 207 236 pair 0;
#X obj -34 29 inlet;
#X obj -34 163 outlet;
#X obj -34 139 pack;
#X text 3 27 Float in;
#X text 6 164 List of paired numbers out;
#X obj -34 83 t f b f;
#X floatatom -34 55 5 0 0 0 - - -;
#X obj -33 109 f;
#X connect 0 0 6 0;
#X connect 2 0 1 0;
#X connect 5 0 7 1;
#X connect 5 1 7 0;
#X connect 5 2 2 1;
#X connect 6 0 5 0;
#X connect 7 0 2 0;
#X restore 37 62 pd pair;
#X msg 37 93 merge \$1 \$2;
#X msg 119 93 clear;
#X text 164 130 matrix of loaded notes;
#X obj 37 128 coll pitchMatrix02;
#C restore;
#X obj 119 69 r resetMatrix02;
#X connect 0 0 1 0;
#X connect 1 0 2 0;
#X connect 2 0 5 0;
#X connect 3 0 5 0;
#X connect 6 0 3 0;
#X restore 1266 128 pd markovMIDIAnalysis02;
#X msg 394 12 5;
#X text 106 -32 serialism and MACHINE VARIATIONS;
#X text 938 81 LEARNER 1;
#X text 1310 81 LEARNER 2;
#X text 111 87 turn of after a few min;
#X obj 1480 483 f;
#X obj 1480 508 / 2;
#X obj 1559 506 pipe;
#X msg 1480 530 0 \, 127 \$1;
#X msg 1559 530 0 \, 127 \$1;
#X obj 1480 562 line;
#X floatatom 1480 586 5 0 0 0 - - -;
#X obj 1092 447 f;
#X obj 1092 472 / 2;
#X obj 1171 470 pipe;
#X msg 1092 494 0 \, 127 \$1;
#X msg 1171 494 0 \, 127 \$1;
#X obj 1092 526 line;
#X floatatom 1092 550 5 0 0 0 - - -;
#X connect 0 0 1 0;
#X connect 1 0 5 0;
#X connect 1 0 3 0;
#X connect 1 0 47 0;
#X connect 2 0 1 1;
#X connect 2 0 55 0;
#X connect 2 0 60 0;
#X connect 3 0 41 0;
#X connect 4 0 2 1;
#X connect 4 0 36 0;
#X connect 5 0 9 0;
#X connect 5 3 6 0;
#X connect 6 0 8 0;
#X connect 6 0 7 0;
#X connect 7 0 17 0;
#X connect 8 0 11 0;
#X connect 8 1 12 0;
#X connect 9 0 10 0;
#X connect 10 0 13 1;
#X connect 11 0 13 0;
#X connect 12 0 13 0;
#X connect 13 0 14 0;
#X connect 13 1 15 0;
#X connect 14 0 16 0;
#X connect 15 0 18 0;
#X connect 16 0 21 0;
#X connect 17 0 16 1;
#X connect 18 0 19 0;
#X connect 18 1 20 1;
#X connect 19 0 20 0;
#X connect 20 0 31 0;
#X connect 21 0 22 0;
#X connect 22 0 30 0;
#X connect 22 1 23 0;
#X connect 23 0 24 0;
#X connect 24 0 25 0;
#X connect 24 1 26 0;
#X connect 24 2 27 0;
#X connect 24 3 28 0;
#X connect 24 4 29 0;
#X connect 25 0 30 1;
#X connect 26 0 30 1;
#X connect 27 0 30 1;
#X connect 28 0 30 1;
#X connect 29 0 30 1;
#X connect 30 0 35 0;
#X connect 31 0 16 0;
#X connect 32 0 37 0;
#X connect 35 0 74 0;
#X connect 38 0 117 0;
#X connect 41 0 2 0;
#X connect 42 0 4 0;
#X connect 43 0 116 0;
#X connect 44 0 4 0;
#X connect 46 0 47 1;
#X connect 46 0 43 0;
#X connect 47 0 48 0;
#X connect 48 0 49 0;
#X connect 48 0 49 1;
#X connect 48 0 63 0;
#X connect 49 0 64 0;
#X connect 50 0 53 0;
#X connect 51 0 46 0;
#X connect 53 0 52 0;
#X connect 53 0 54 0;
#X connect 55 0 46 0;
#X connect 57 0 4 0;
#X connect 58 0 4 0;
#X connect 59 0 91 0;
#X connect 61 0 58 0;
#X connect 62 0 58 0;
#X connect 63 0 50 0;
#X connect 64 0 50 0;
#X connect 65 0 98 0;
#X connect 66 0 68 0;
#X connect 67 0 66 1;
#X connect 68 0 129 0;
#X connect 70 0 71 0;
#X connect 70 1 71 1;
#X connect 73 0 71 2;
#X connect 76 0 75 0;
#X connect 77 0 70 2;
#X connect 78 0 99 0;
#X connect 79 0 81 0;
#X connect 80 0 79 1;
#X connect 81 0 122 0;
#X connect 83 0 84 0;
#X connect 89 0 78 0;
#X connect 89 0 65 0;
#X connect 90 0 99 1;
#X connect 90 0 98 1;
#X connect 91 0 70 1;
#X connect 92 0 90 0;
#X connect 93 0 90 0;
#X connect 94 0 90 0;
#X connect 98 0 66 0;
#X connect 98 0 122 1;
#X connect 98 0 129 1;
#X connect 99 0 79 0;
#X connect 100 0 112 0;
#X connect 102 0 115 0;
#X connect 103 0 77 0;
#X connect 103 0 90 0;
#X connect 104 0 105 0;
#X connect 105 0 101 0;
#X connect 106 0 107 0;
#X connect 108 0 90 0;
#X connect 108 0 70 2;
#X connect 109 0 112 1;
#X connect 111 0 104 0;
#X connect 112 0 111 0;
#X connect 115 0 106 0;
#X connect 117 0 4 0;
#X connect 122 0 123 0;
#X connect 123 0 124 0;
#X connect 123 0 124 1;
#X connect 123 0 125 0;
#X connect 124 0 126 0;
#X connect 125 0 127 0;
#X connect 126 0 127 0;
#X connect 127 0 128 0;
#X connect 128 0 103 0;
#X connect 129 0 130 0;
#X connect 130 0 131 0;
#X connect 130 0 131 1;
#X connect 130 0 132 0;
#X connect 131 0 133 0;
#X connect 132 0 134 0;
#X connect 133 0 134 0;
#X connect 134 0 135 0;
#X connect 135 0 70 0;
