#N canvas 275 23 1507 1095 10;
#N canvas 697 437 481 591 machina01 0;
#X obj 101 247 tgl 15 0 empty empty empty 17 7 0 10 -262144 -1 -1 0
1;
#N canvas 1006 667 431 469 markovPitchGenerate 0;
#X obj 41 43 inlet;
#X obj 50 102 bng 15 250 50 0 empty empty empty 17 7 0 10 -262144 -1
-1;
#X obj 90 174 t f f;
#X floatatom 157 129 5 0 0 0 - - -;
#X obj 153 35 inlet;
#X obj 206 46 r finished;
#X msg 154 68 next;
#X obj 29 225 length;
#X obj 29 249 t b f;
#X obj 29 276 random;
#X obj 20 301 + 1;
#X obj 88 329 pack;
#X msg 89 362 nth \$2 \$1;
#X floatatom 219 417 5 0 0 0 - - -;
#X obj 220 448 outlet;
#X obj 155 95 coll pitchMatrix01;
#C restore;
#X obj 94 136 f;
#X obj 29 200 coll pitchMatrix;
#C restore;
#X obj 92 387 coll pitchMatrix;
#C restore;
#X connect 0 0 1 0;
#X connect 1 0 16 0;
#X connect 2 0 17 0;
#X connect 2 1 11 1;
#X connect 3 0 16 1;
#X connect 4 0 6 0;
#X connect 5 0 6 0;
#X connect 6 0 15 0;
#X connect 7 0 8 0;
#X connect 8 0 9 0;
#X connect 8 1 9 1;
#X connect 9 0 10 0;
#X connect 10 0 11 0;
#X connect 11 0 12 0;
#X connect 12 0 18 0;
#X connect 13 0 14 0;
#X connect 13 0 16 1;
#X connect 15 0 3 0;
#X connect 16 0 2 0;
#X connect 17 0 7 0;
#X connect 18 0 13 0;
#X restore 101 383 pd markovPitchGenerate;
#X obj 243 357 bng 15 250 50 0 empty empty empty 17 7 0 10 -262144
-1 -1;
#X floatatom 102 417 5 0 0 0 - - -;
#X text 241 340 start new pitch;
#X floatatom 188 273 5 0 0 0 - - -;
#X obj 102 315 metro 200;
#N canvas 660 387 357 378 markovMIDIAnalysis 0;
#X obj 37 32 inlet;
#N canvas 172 120 207 236 pair 0;
#X obj -34 29 inlet;
#X obj -34 163 outlet;
#X obj -34 139 pack;
#X text 3 27 Float in;
#X text 6 164 List of paired numbers out;
#X obj -34 83 t f b f;
#X floatatom -34 55 5 0 0 0 - - -;
#X obj -33 109 f;
#X connect 0 0 6 0;
#X connect 2 0 1 0;
#X connect 5 0 7 1;
#X connect 5 1 7 0;
#X connect 5 2 2 1;
#X connect 6 0 5 0;
#X connect 7 0 2 0;
#X restore 37 62 pd pair;
#X msg 37 93 merge \$1 \$2;
#X obj 119 69 r resetMatrix;
#X msg 119 93 clear;
#X obj 37 128 coll pitchMatrix;
#C restore;
#X text 143 128 matrix of loaded notes;
#X connect 0 0 1 0;
#X connect 1 0 2 0;
#X connect 2 0 5 0;
#X connect 3 0 4 0;
#X connect 4 0 5 0;
#X restore 112 134 pd markovMIDIAnalysis;
#X msg 265 242 300;
#X msg 268 266 200;
#X obj 212 197 s resetMatrix;
#X obj 212 171 bng 15 250 50 0 empty empty empty 17 7 0 10 -262144
-1 -1;
#X text 135 84 MACHINA 1;
#X text 349 246 interaction of two machines M01=>M02;
#X text 249 133 < open \, coll pitchMatrix = memory;
#X text 260 155 matrix collecting data from melody 1;
#X text 278 385 Markove chain variations! of melody 1;
#X msg 266 288 100;
#X text 321 201 reset matrix;
#X text 126 247 Start M01;
#X obj 91 99 inlet;
#X obj 101 463 outlet;
#X obj 100 216 r startM01;
#X connect 0 0 6 0;
#X connect 1 0 3 0;
#X connect 2 0 1 1;
#X connect 3 0 21 0;
#X connect 5 0 6 1;
#X connect 6 0 1 0;
#X connect 8 0 5 0;
#X connect 9 0 5 0;
#X connect 11 0 10 0;
#X connect 17 0 5 0;
#X connect 20 0 7 0;
#X connect 22 0 0 0;
#X restore 92 100 pd machina01;
#X obj 178 101 s resetMatrix;
#X obj 178 75 bng 15 250 50 0 empty empty empty 17 7 0 10 -262144 -1
-1;
#X obj 96 271 makenote 127 800;
#X obj 96 323 noteout 1;
#X msg 142 244 127;
#X msg 198 292 1;
#X floatatom 188 245 5 0 0 0 - - -;
#X obj -107 441 tgl 15 0 empty empty empty 17 7 0 10 -262144 -1 -1
0 1;
#X floatatom -37 442 5 0 0 0 - - -;
#X floatatom -107 522 5 0 0 0 - - -;
#X obj -106 657 bng 15 250 50 0 empty empty empty 17 7 0 10 -262144
-1 -1;
#X obj -107 555 tabread majorScale;
#X floatatom -107 586 5 0 0 0 - - -;
#X obj -108 721 table majorScale;
#X msg -106 679 \; majorScale 0 0 2 4 5 7 9 11 12;
#X obj -79 655 loadbang;
#N canvas 697 437 481 591 machina02 0;
#X text 135 84 MACHINA 1;
#X obj 91 99 inlet;
#X obj 101 463 outlet;
#X obj 96 215 tgl 15 0 empty empty empty 17 7 0 10 -262144 -1 -1 0
1;
#N canvas 959 553 431 469 markovPitchGenerate 0;
#X obj 41 43 inlet;
#X obj 50 102 bng 15 250 50 0 empty empty empty 17 7 0 10 -262144 -1
-1;
#X obj 90 174 t f f;
#X floatatom 157 129 5 0 0 0 - - -;
#X obj 153 35 inlet;
#X obj 206 46 r finished;
#X msg 154 68 next;
#X obj 29 225 length;
#X obj 29 249 t b f;
#X obj 29 276 random;
#X obj 20 301 + 1;
#X obj 88 329 pack;
#X msg 89 362 nth \$2 \$1;
#X floatatom 219 417 5 0 0 0 - - -;
#X obj 220 448 outlet;
#X obj 155 95 coll pitchMatrix01;
#C restore;
#X obj 94 136 f;
#X obj 29 200 coll pitchMatrix02;
#C restore;
#X obj 92 387 coll pitchMatrix02;
#C restore;
#X connect 0 0 1 0;
#X connect 1 0 16 0;
#X connect 2 0 17 0;
#X connect 2 1 11 1;
#X connect 3 0 16 1;
#X connect 4 0 6 0;
#X connect 5 0 6 0;
#X connect 6 0 15 0;
#X connect 7 0 8 0;
#X connect 8 0 9 0;
#X connect 8 1 9 1;
#X connect 9 0 10 0;
#X connect 10 0 11 0;
#X connect 11 0 12 0;
#X connect 12 0 18 0;
#X connect 13 0 14 0;
#X connect 13 0 16 1;
#X connect 15 0 3 0;
#X connect 16 0 2 0;
#X connect 17 0 7 0;
#X connect 18 0 13 0;
#X restore 95 319 pd markovPitchGenerate;
#X obj 237 293 bng 15 250 50 0 empty empty empty 17 7 0 10 -262144
-1 -1;
#X floatatom 96 353 5 0 0 0 - - -;
#X text 235 276 start new pitch;
#X floatatom 182 209 5 0 0 0 - - -;
#X obj 96 251 metro 200;
#X msg 170 363 127;
#N canvas 660 387 357 378 markovMIDIAnalysis 0;
#X obj 37 32 inlet;
#N canvas 172 120 207 236 pair 0;
#X obj -34 29 inlet;
#X obj -34 163 outlet;
#X obj -34 139 pack;
#X text 3 27 Float in;
#X text 6 164 List of paired numbers out;
#X obj -34 83 t f b f;
#X floatatom -34 55 5 0 0 0 - - -;
#X obj -33 109 f;
#X connect 0 0 6 0;
#X connect 2 0 1 0;
#X connect 5 0 7 1;
#X connect 5 1 7 0;
#X connect 5 2 2 1;
#X connect 6 0 5 0;
#X connect 7 0 2 0;
#X restore 37 62 pd pair;
#X msg 37 93 merge \$1 \$2;
#X msg 119 93 clear;
#X text 164 130 matrix of loaded notes;
#X obj 37 128 coll pitchMatrix02;
#C restore;
#X obj 119 69 r resetMatrix02;
#X connect 0 0 1 0;
#X connect 1 0 2 0;
#X connect 2 0 5 0;
#X connect 3 0 5 0;
#X connect 6 0 3 0;
#X restore 92 135 pd markovMIDIAnalysis;
#X msg 259 178 300;
#X msg 260 204 200;
#X obj 236 108 bng 15 250 50 0 empty empty empty 17 7 0 10 -262144
-1 -1;
#X floatatom 234 358 5 0 0 0 - - -;
#X obj 236 134 s resetMatrix02;
#X text 247 324 Markove chain variations! of melody 1;
#X msg 259 227 100;
#X text 114 211 Start M02;
#X obj 96 184 r startM02;
#X connect 1 0 11 0;
#X connect 3 0 9 0;
#X connect 4 0 6 0;
#X connect 5 0 4 1;
#X connect 6 0 2 0;
#X connect 8 0 9 1;
#X connect 9 0 4 0;
#X connect 12 0 8 0;
#X connect 13 0 8 0;
#X connect 14 0 16 0;
#X connect 18 0 8 0;
#X connect 20 0 3 0;
#X restore 455 104 pd machina02;
#X obj 307 199 *;
#X obj 322 173 tgl 15 0 empty empty empty 17 7 0 10 -262144 -1 -1 0
1;
#X obj 457 262 makenote 127 800;
#X obj 457 314 noteout 1;
#X msg 480 217 127;
#X floatatom 551 242 5 0 0 0 - - -;
#X floatatom 93 153 5 0 0 0 - - -;
#X floatatom 455 165 5 0 0 0 - - -;
#X obj 541 78 bng 15 250 50 0 empty empty empty 17 7 0 10 -262144 -1
-1;
#X obj 541 104 s resetMatrix02;
#X floatatom 680 124 5 0 0 0 - - -;
#X obj 680 50 tgl 15 0 empty empty empty 17 7 0 10 -262144 -1 -1 0
1;
#X obj 843 294 f;
#X obj 843 319 / 2;
#X obj 922 317 pipe;
#X msg 843 341 0 \, 127 \$1;
#X msg 922 341 0 \, 127 \$1;
#X obj 843 373 line;
#X obj 680 103 random 6;
#X obj 680 146 + 1;
#X obj 680 170 pack;
#X msg 680 197 nth \$2 \$1;
#X obj 680 222 coll scales;
#C restore;
#X obj 680 244 + 60;
#X floatatom 680 274 5 0 0 0 - - -;
#X floatatom 779 154 5 0 0 0 - - -;
#X obj 854 60 loadbang;
#X obj 853 158 coll scales;
#C restore;
#X msg 855 92 nstore 0 majorScale 0 2 4 5 7 9 11 \, nstore 1 harmonicMinor
0 2 3 5 7 8 11 \, nstore 2 lydianDominant 0 2 4 6 7 9 10 \, nstore
3 augmented 0 1 3 4 7 8 11;
#X msg 776 57 0;
#X msg 789 79 1;
#X msg 808 125 3;
#X msg 800 103 2;
#X floatatom 843 397 5 0 0 0 - - -;
#X obj 844 425 ctlout 2;
#X text 911 427 < tuning for channels 2 \, 4 \, 6 \, 8 for tunning
;
#X text 794 33 scales;
#X floatatom -113 133 5 0 0 0 - - -;
#X obj -113 59 tgl 15 0 empty empty empty 17 7 0 10 -262144 -1 -1 0
1;
#X obj -113 112 random 6;
#X obj -113 155 + 1;
#X obj -113 179 pack;
#X msg -113 206 nth \$2 \$1;
#X obj -113 241 coll scales;
#C restore;
#X obj -113 283 + 60;
#X floatatom -114 313 5 0 0 0 - - -;
#X floatatom -14 163 5 0 0 0 - - -;
#X msg -17 66 0;
#X msg -4 88 1;
#X msg 15 134 3;
#X msg 7 112 2;
#X text 27 88 scales;
#X obj 190 449 bng 15 250 50 0 empty empty empty 17 7 0 10 -262144
-1 -1;
#X obj 108 638 makenote 127 800;
#X obj 108 690 noteout 1;
#X msg 153 610 127;
#X msg 210 659 1;
#X floatatom 202 611 5 0 0 0 - - -;
#X floatatom 106 530 5 0 0 0 - - -;
#X obj 190 475 s resetMatrix03;
#X obj 310 320 *;
#X obj 325 294 tgl 15 0 empty empty empty 17 7 0 10 -262144 -1 -1 0
1;
#N canvas 317 416 481 591 machina03 0;
#X obj 101 247 tgl 15 0 empty empty empty 17 7 0 10 -262144 -1 -1 0
1;
#N canvas 1006 667 431 469 markovPitchGenerate 0;
#X obj 41 43 inlet;
#X obj 50 102 bng 15 250 50 0 empty empty empty 17 7 0 10 -262144 -1
-1;
#X obj 90 174 t f f;
#X floatatom 157 129 5 0 0 0 - - -;
#X obj 153 35 inlet;
#X obj 206 46 r finished;
#X msg 154 68 next;
#X obj 29 225 length;
#X obj 29 249 t b f;
#X obj 29 276 random;
#X obj 20 301 + 1;
#X obj 88 329 pack;
#X msg 89 362 nth \$2 \$1;
#X floatatom 219 417 5 0 0 0 - - -;
#X obj 220 448 outlet;
#X obj 155 95 coll pitchMatrix01;
#C restore;
#X obj 94 136 f;
#X obj 92 387 coll pitchMatrix03;
#C restore;
#X obj 29 200 coll pitchMatrix03;
#C restore;
#X connect 0 0 1 0;
#X connect 1 0 16 0;
#X connect 2 0 18 0;
#X connect 2 1 11 1;
#X connect 3 0 16 1;
#X connect 4 0 6 0;
#X connect 5 0 6 0;
#X connect 6 0 15 0;
#X connect 7 0 8 0;
#X connect 8 0 9 0;
#X connect 8 1 9 1;
#X connect 9 0 10 0;
#X connect 10 0 11 0;
#X connect 11 0 12 0;
#X connect 12 0 17 0;
#X connect 13 0 14 0;
#X connect 13 0 16 1;
#X connect 15 0 3 0;
#X connect 16 0 2 0;
#X connect 17 0 13 0;
#X connect 18 0 7 0;
#X restore 101 383 pd markovPitchGenerate;
#X obj 243 357 bng 15 250 50 0 empty empty empty 17 7 0 10 -262144
-1 -1;
#X floatatom 102 417 5 0 0 0 - - -;
#X text 241 340 start new pitch;
#X floatatom 188 273 5 0 0 0 - - -;
#X obj 102 315 metro 200;
#N canvas 660 387 357 378 markovMIDIAnalysis 0;
#X obj 37 32 inlet;
#N canvas 172 120 207 236 pair 0;
#X obj -34 29 inlet;
#X obj -34 163 outlet;
#X obj -34 139 pack;
#X text 3 27 Float in;
#X text 6 164 List of paired numbers out;
#X obj -34 83 t f b f;
#X floatatom -34 55 5 0 0 0 - - -;
#X obj -33 109 f;
#X connect 0 0 6 0;
#X connect 2 0 1 0;
#X connect 5 0 7 1;
#X connect 5 1 7 0;
#X connect 5 2 2 1;
#X connect 6 0 5 0;
#X connect 7 0 2 0;
#X restore 37 62 pd pair;
#X msg 37 93 merge \$1 \$2;
#X msg 119 93 clear;
#X text 180 125 matrix of loaded notes;
#X obj 119 69 r resetMatrix03;
#X obj 37 128 coll pitchMatrix03;
#C restore;
#X connect 0 0 1 0;
#X connect 1 0 2 0;
#X connect 2 0 6 0;
#X connect 3 0 6 0;
#X connect 5 0 3 0;
#X restore 112 134 pd markovMIDIAnalysis;
#X msg 265 242 300;
#X msg 268 266 200;
#X obj 212 171 bng 15 250 50 0 empty empty empty 17 7 0 10 -262144
-1 -1;
#X text 349 246 interaction of two machines M01=>M02;
#X text 249 133 < open \, coll pitchMatrix = memory;
#X text 260 155 matrix collecting data from melody 1;
#X text 278 385 Markove chain variations! of melody 1;
#X msg 266 288 100;
#X text 321 201 reset matrix;
#X text 126 247 Start M01;
#X obj 91 99 inlet;
#X obj 101 463 outlet;
#X obj 211 197 s resetMatrix03;
#X text 135 84 MACHINA 3;
#X obj 101 224 r startM03;
#X connect 0 0 6 0;
#X connect 1 0 3 0;
#X connect 2 0 1 1;
#X connect 3 0 19 0;
#X connect 5 0 6 1;
#X connect 6 0 1 0;
#X connect 8 0 5 0;
#X connect 9 0 5 0;
#X connect 10 0 20 0;
#X connect 15 0 5 0;
#X connect 18 0 7 0;
#X connect 22 0 0 0;
#X restore 105 477 pd machina03;
#X msg 735 41 250;
#X msg 559 283 3;
#X msg 562 310 1;
#X obj 92 61 s startM01;
#X obj 92 40 tgl 15 0 empty empty empty 17 7 0 10 -262144 -1 -1 0 1
;
#X obj 455 48 tgl 15 0 empty empty empty 17 7 0 10 -262144 -1 -1 0
1;
#X obj 455 69 s startM02;
#X obj 106 421 tgl 15 0 empty empty empty 17 7 0 10 -262144 -1 -1 0
1;
#X obj 106 442 s startM03;
#X obj -107 494 random 6;
#X msg -61 609 60;
#X floatatom -108 635 5 0 0 0 - - -;
#X obj -108 611 + 48;
#X obj -113 85 metro 1000;
#X obj -107 467 metro 1000;
#X obj 681 76 metro 1000;
#X obj 538 465 bng 15 250 50 0 empty empty empty 17 7 0 10 -262144
-1 -1;
#X obj 456 654 makenote 127 800;
#X obj 456 706 noteout 1;
#X msg 501 626 127;
#X msg 558 675 1;
#X floatatom 550 627 5 0 0 0 - - -;
#X floatatom 454 546 5 0 0 0 - - -;
#X obj 454 437 tgl 15 0 empty empty empty 17 7 0 10 -262144 -1 -1 0
1;
#X obj 454 458 s startM04;
#X obj 538 491 s resetMatrix04;
#N canvas 317 416 481 591 machina04 0;
#X obj 101 247 tgl 15 0 empty empty empty 17 7 0 10 -262144 -1 -1 0
1;
#N canvas 1006 667 431 469 markovPitchGenerate 0;
#X obj 41 43 inlet;
#X obj 50 102 bng 15 250 50 0 empty empty empty 17 7 0 10 -262144 -1
-1;
#X obj 90 174 t f f;
#X floatatom 157 129 5 0 0 0 - - -;
#X obj 153 35 inlet;
#X obj 206 46 r finished;
#X msg 154 68 next;
#X obj 29 225 length;
#X obj 29 249 t b f;
#X obj 29 276 random;
#X obj 20 301 + 1;
#X obj 88 329 pack;
#X msg 89 362 nth \$2 \$1;
#X floatatom 219 417 5 0 0 0 - - -;
#X obj 220 448 outlet;
#X obj 155 95 coll pitchMatrix01;
#C restore;
#X obj 94 136 f;
#X obj 29 200 coll pitchMatrix04;
#C restore;
#X obj 92 387 coll pitchMatrix04;
#C restore;
#X connect 0 0 1 0;
#X connect 1 0 16 0;
#X connect 2 0 17 0;
#X connect 2 1 11 1;
#X connect 3 0 16 1;
#X connect 4 0 6 0;
#X connect 5 0 6 0;
#X connect 6 0 15 0;
#X connect 7 0 8 0;
#X connect 8 0 9 0;
#X connect 8 1 9 1;
#X connect 9 0 10 0;
#X connect 10 0 11 0;
#X connect 11 0 12 0;
#X connect 12 0 18 0;
#X connect 13 0 14 0;
#X connect 13 0 16 1;
#X connect 15 0 3 0;
#X connect 16 0 2 0;
#X connect 17 0 7 0;
#X connect 18 0 13 0;
#X restore 101 383 pd markovPitchGenerate;
#X obj 243 357 bng 15 250 50 0 empty empty empty 17 7 0 10 -262144
-1 -1;
#X floatatom 102 417 5 0 0 0 - - -;
#X text 241 340 start new pitch;
#X floatatom 188 273 5 0 0 0 - - -;
#X obj 102 315 metro 200;
#N canvas 660 387 357 378 markovMIDIAnalysis 0;
#X obj 37 32 inlet;
#N canvas 172 120 207 236 pair 0;
#X obj -34 29 inlet;
#X obj -34 163 outlet;
#X obj -34 139 pack;
#X text 3 27 Float in;
#X text 6 164 List of paired numbers out;
#X obj -34 83 t f b f;
#X floatatom -34 55 5 0 0 0 - - -;
#X obj -33 109 f;
#X connect 0 0 6 0;
#X connect 2 0 1 0;
#X connect 5 0 7 1;
#X connect 5 1 7 0;
#X connect 5 2 2 1;
#X connect 6 0 5 0;
#X connect 7 0 2 0;
#X restore 37 62 pd pair;
#X msg 37 93 merge \$1 \$2;
#X msg 119 93 clear;
#X text 180 125 matrix of loaded notes;
#X obj 119 69 r resetMatrix03;
#X obj 37 128 coll pitchMatrix04;
#C restore;
#X connect 0 0 1 0;
#X connect 1 0 2 0;
#X connect 2 0 6 0;
#X connect 3 0 6 0;
#X connect 5 0 3 0;
#X restore 112 134 pd markovMIDIAnalysis;
#X msg 265 242 300;
#X msg 268 266 200;
#X obj 212 171 bng 15 250 50 0 empty empty empty 17 7 0 10 -262144
-1 -1;
#X text 349 246 interaction of two machines M01=>M02;
#X text 249 133 < open \, coll pitchMatrix = memory;
#X text 260 155 matrix collecting data from melody 1;
#X text 278 385 Markove chain variations! of melody 1;
#X msg 266 288 100;
#X text 321 201 reset matrix;
#X text 126 247 Start M01;
#X obj 91 99 inlet;
#X obj 101 463 outlet;
#X text 135 84 MACHINA 3;
#X obj 212 197 s resetMatrix04;
#X obj 101 224 r startM04;
#X connect 0 0 6 0;
#X connect 1 0 3 0;
#X connect 2 0 1 1;
#X connect 3 0 19 0;
#X connect 5 0 6 1;
#X connect 6 0 1 0;
#X connect 8 0 5 0;
#X connect 9 0 5 0;
#X connect 10 0 21 0;
#X connect 15 0 5 0;
#X connect 18 0 7 0;
#X connect 22 0 0 0;
#X restore 453 493 pd machina04;
#X text 328 515 M03 => M04;
#X obj 348 565 *;
#X obj 363 539 tgl 15 0 empty empty empty 17 7 0 10 -262144 -1 -1 0
1;
#X text 297 153 M01 => M02;
#X obj 354 431 *;
#X obj 369 405 tgl 15 0 empty empty empty 17 7 0 10 -262144 -1 -1 0
1;
#X obj 694 439 tgl 15 0 empty empty empty 17 7 0 10 -262144 -1 -1 0
1;
#X floatatom 764 440 5 0 0 0 - - -;
#X floatatom 694 520 5 0 0 0 - - -;
#X obj 695 655 bng 15 250 50 0 empty empty empty 17 7 0 10 -262144
-1 -1;
#X floatatom 694 584 5 0 0 0 - - -;
#X obj 722 653 loadbang;
#X obj 694 492 random 6;
#X msg 740 607 60;
#X floatatom 693 633 5 0 0 0 - - -;
#X obj 693 609 + 48;
#X obj 694 465 metro 1000;
#X msg 695 677 \; harmonicMinor 0 2 3 5 7 8 11;
#X obj 694 553 tabread harmonicMinor;
#X obj 693 719 table harmonicMinor;
#X text 301 271 M02 => M03;
#X floatatom 509 239 5 0 0 0 - - -;
#X text 334 381 M04 => M01 /but this interaction send 0 when turn of
;
#X text 928 465 maybe copy and connect to others machines;
#X msg 211 697 5;
#X msg 555 705 7;
#X text 147 -218 META Machine /automize turn on/of of machines;
#X obj 344 -180 tgl 15 0 empty empty empty 17 7 0 10 -262144 -1 -1
0 1;
#X floatatom 414 -179 5 0 0 0 - - -;
#X floatatom 344 -99 5 0 0 0 - - -;
#X obj 344 -154 metro 1000;
#X obj 344 -127 random 4;
#X obj 345 -25 bng 15 250 50 0 empty empty empty 17 7 0 10 -262144
-1 -1;
#X obj 367 -25 bng 15 250 50 0 empty empty empty 17 7 0 10 -262144
-1 -1;
#X obj 390 -25 bng 15 250 50 0 empty empty empty 17 7 0 10 -262144
-1 -1;
#X obj 413 -25 bng 15 250 50 0 empty empty empty 17 7 0 10 -262144
-1 -1;
#X obj 324 13 s i01;
#X obj 362 14 s i02;
#X obj 402 15 s i03;
#X obj 443 15 s i04;
#X obj 145 -35 bng 15 250 50 0 empty empty empty 17 7 0 10 -262144
-1 -1;
#X obj 167 -35 bng 15 250 50 0 empty empty empty 17 7 0 10 -262144
-1 -1;
#X obj 190 -35 bng 15 250 50 0 empty empty empty 17 7 0 10 -262144
-1 -1;
#X obj 213 -35 bng 15 250 50 0 empty empty empty 17 7 0 10 -262144
-1 -1;
#X obj 153 12 s m01;
#X obj 191 13 s m02;
#X obj 231 14 s m03;
#X obj 272 14 s m04;
#X obj 344 -65 sel 0 1 2 3;
#X obj 146 -181 tgl 15 0 empty empty empty 17 7 0 10 -262144 -1 -1
0 1;
#X floatatom 216 -180 5 0 0 0 - - -;
#X floatatom 146 -100 5 0 0 0 - - -;
#X obj 146 -155 metro 1000;
#X obj 146 -128 random 4;
#X obj 146 -66 sel 0 1 2 3;
#X obj 311 123 r i01;
#X obj 363 295 r i02;
#X obj 396 397 r i03;
#X obj 393 494 r i04;
#X obj -66 32 r m01;
#X obj 560 25 r m02;
#X obj 19 386 r m03;
#X obj 591 418 r m04;
#X text 466 -111 it can be also learned one META MARKOV matrix;
#X obj 134 196 + 3;
#X obj 432 212 + 3;
#X obj 472 588 + 3;
#X obj 130 589 + 3;
#X connect 0 0 24 0;
#X connect 2 0 1 0;
#X connect 3 0 4 0;
#X connect 3 1 4 1;
#X connect 5 0 3 1;
#X connect 6 0 4 2;
#X connect 7 0 3 2;
#X connect 8 0 95 0;
#X connect 9 0 95 1;
#X connect 10 0 12 0;
#X connect 11 0 15 0;
#X connect 12 0 13 0;
#X connect 13 0 93 0;
#X connect 16 0 11 0;
#X connect 17 0 25 0;
#X connect 17 0 78 0;
#X connect 18 0 17 0;
#X connect 19 0 18 1;
#X connect 20 0 21 0;
#X connect 20 1 21 1;
#X connect 22 0 20 1;
#X connect 23 0 20 2;
#X connect 24 0 18 0;
#X connect 24 0 172 0;
#X connect 25 0 173 0;
#X connect 25 0 30 0;
#X connect 26 0 27 0;
#X connect 28 0 37 0;
#X connect 29 0 96 0;
#X connect 30 0 31 0;
#X connect 31 0 32 0;
#X connect 31 0 32 1;
#X connect 31 0 33 0;
#X connect 32 0 34 0;
#X connect 33 0 35 0;
#X connect 34 0 35 0;
#X connect 35 0 51 0;
#X connect 36 0 28 0;
#X connect 37 0 38 0;
#X connect 38 0 39 0;
#X connect 39 0 40 0;
#X connect 40 0 41 0;
#X connect 41 0 42 0;
#X connect 42 0 17 0;
#X connect 43 0 38 1;
#X connect 44 0 46 0;
#X connect 46 0 45 0;
#X connect 47 0 43 0;
#X connect 48 0 43 0;
#X connect 49 0 43 0;
#X connect 50 0 43 0;
#X connect 51 0 129 0;
#X connect 51 0 52 0;
#X connect 55 0 58 0;
#X connect 56 0 94 0;
#X connect 57 0 55 0;
#X connect 58 0 59 0;
#X connect 59 0 60 0;
#X connect 60 0 61 0;
#X connect 61 0 62 0;
#X connect 62 0 63 0;
#X connect 63 0 0 0;
#X connect 64 0 59 1;
#X connect 65 0 64 0;
#X connect 66 0 64 0;
#X connect 67 0 64 0;
#X connect 68 0 64 0;
#X connect 70 0 77 0;
#X connect 71 0 72 0;
#X connect 71 1 72 1;
#X connect 73 0 71 1;
#X connect 74 0 72 2;
#X connect 75 0 71 2;
#X connect 76 0 175 0;
#X connect 78 0 80 0;
#X connect 79 0 78 1;
#X connect 80 0 76 0;
#X connect 80 0 109 0;
#X connect 81 0 96 1;
#X connect 82 0 21 2;
#X connect 83 0 21 2;
#X connect 85 0 84 0;
#X connect 86 0 87 0;
#X connect 88 0 89 0;
#X connect 90 0 10 0;
#X connect 91 0 93 1;
#X connect 92 0 80 0;
#X connect 93 0 92 0;
#X connect 94 0 57 0;
#X connect 95 0 90 0;
#X connect 96 0 36 0;
#X connect 96 0 30 1;
#X connect 97 0 106 0;
#X connect 98 0 99 0;
#X connect 98 1 99 1;
#X connect 100 0 98 1;
#X connect 101 0 99 2;
#X connect 102 0 98 2;
#X connect 103 0 174 0;
#X connect 104 0 105 0;
#X connect 107 0 103 0;
#X connect 107 0 112 0;
#X connect 109 0 107 0;
#X connect 110 0 109 1;
#X connect 112 0 80 0;
#X connect 113 0 112 1;
#X connect 114 0 124 0;
#X connect 115 0 124 1;
#X connect 116 0 126 0;
#X connect 117 0 125 0;
#X connect 118 0 123 0;
#X connect 119 0 117 0;
#X connect 120 0 116 0;
#X connect 121 0 123 1;
#X connect 122 0 107 0;
#X connect 123 0 122 0;
#X connect 124 0 120 0;
#X connect 126 0 118 0;
#X connect 129 0 20 1;
#X connect 132 0 72 2;
#X connect 133 0 99 2;
#X connect 135 0 138 0;
#X connect 136 0 138 1;
#X connect 137 0 156 0;
#X connect 138 0 139 0;
#X connect 139 0 137 0;
#X connect 140 0 144 0;
#X connect 141 0 145 0;
#X connect 142 0 146 0;
#X connect 143 0 147 0;
#X connect 148 0 152 0;
#X connect 149 0 153 0;
#X connect 150 0 154 0;
#X connect 151 0 155 0;
#X connect 156 0 140 0;
#X connect 156 1 141 0;
#X connect 156 2 142 0;
#X connect 156 3 143 0;
#X connect 157 0 160 0;
#X connect 158 0 160 1;
#X connect 159 0 162 0;
#X connect 160 0 161 0;
#X connect 161 0 159 0;
#X connect 162 0 148 0;
#X connect 162 1 149 0;
#X connect 162 2 150 0;
#X connect 162 3 151 0;
#X connect 163 0 19 0;
#X connect 164 0 79 0;
#X connect 165 0 113 0;
#X connect 166 0 110 0;
#X connect 167 0 56 0;
#X connect 167 0 85 0;
#X connect 168 0 86 0;
#X connect 168 0 29 0;
#X connect 169 0 88 0;
#X connect 169 0 8 0;
#X connect 170 0 104 0;
#X connect 170 0 114 0;
#X connect 172 0 3 0;
#X connect 173 0 20 0;
#X connect 174 0 98 0;
#X connect 175 0 71 0;
