#N canvas 274 133 1644 896 10;
#X obj 462 358 tgl 15 0 empty empty empty 17 7 0 10 -262144 -1 -1 0
1;
#N canvas 1006 667 431 469 markovPitchGenerate 0;
#X obj 41 43 inlet;
#X obj 50 102 bng 15 250 50 0 empty empty empty 17 7 0 10 -262144 -1
-1;
#X obj 90 174 t f f;
#X floatatom 157 129 5 0 0 0 - - -;
#X obj 153 35 inlet;
#X obj 206 46 r finished;
#X msg 154 68 next;
#X obj 29 225 length;
#X obj 29 249 t b f;
#X obj 29 276 random;
#X obj 20 301 + 1;
#X obj 88 329 pack;
#X msg 89 362 nth \$2 \$1;
#X floatatom 219 417 5 0 0 0 - - -;
#X obj 220 448 outlet;
#X obj 155 95 coll pitchMatrix01;
#C restore;
#X obj 94 136 f;
#X obj 29 200 coll pitchMatrix;
#C restore;
#X obj 92 387 coll pitchMatrix;
#C restore;
#X connect 0 0 1 0;
#X connect 1 0 16 0;
#X connect 2 0 17 0;
#X connect 2 1 11 1;
#X connect 3 0 16 1;
#X connect 4 0 6 0;
#X connect 5 0 6 0;
#X connect 6 0 15 0;
#X connect 7 0 8 0;
#X connect 8 0 9 0;
#X connect 8 1 9 1;
#X connect 9 0 10 0;
#X connect 10 0 11 0;
#X connect 11 0 12 0;
#X connect 12 0 18 0;
#X connect 13 0 14 0;
#X connect 13 0 16 1;
#X connect 15 0 3 0;
#X connect 16 0 2 0;
#X connect 17 0 7 0;
#X connect 18 0 13 0;
#X restore 462 494 pd markovPitchGenerate;
#X obj 604 468 bng 15 250 50 0 empty empty empty 17 7 0 10 -262144
-1 -1;
#X floatatom 463 528 5 0 0 0 - - -;
#X text 602 451 start new pitch;
#X floatatom 549 384 5 0 0 0 - - -;
#X obj 461 572 makenote 127 800;
#X obj 461 624 noteout 1;
#X obj 463 426 metro 200;
#X msg 537 538 127;
#X msg 563 593 1;
#N canvas 660 387 357 378 markovMIDIAnalysis 0;
#X obj 37 32 inlet;
#N canvas 172 120 207 236 pair 0;
#X obj -34 29 inlet;
#X obj -34 163 outlet;
#X obj -34 139 pack;
#X text 3 27 Float in;
#X text 6 164 List of paired numbers out;
#X obj -34 83 t f b f;
#X floatatom -34 55 5 0 0 0 - - -;
#X obj -33 109 f;
#X connect 0 0 6 0;
#X connect 2 0 1 0;
#X connect 5 0 7 1;
#X connect 5 1 7 0;
#X connect 5 2 2 1;
#X connect 6 0 5 0;
#X connect 7 0 2 0;
#X restore 37 62 pd pair;
#X msg 37 93 merge \$1 \$2;
#X obj 119 69 r resetMatrix;
#X msg 119 93 clear;
#X obj 37 128 coll pitchMatrix;
#C restore;
#X text 143 128 matrix of loaded notes;
#X connect 0 0 1 0;
#X connect 1 0 2 0;
#X connect 2 0 5 0;
#X connect 3 0 4 0;
#X connect 4 0 5 0;
#X restore 473 245 pd markovMIDIAnalysis;
#X msg 626 353 300;
#X msg 629 377 200;
#X obj 635 584 r v01;
#X floatatom 632 621 5 0 0 0 - - -;
#X obj 145 271 metro 500;
#X obj 145 298 counter;
#X floatatom 145 326 5 0 0 0 - - -;
#X obj 145 352 % 8;
#X floatatom 146 377 5 0 0 0 - - -;
#X obj 146 403 sel 0 1 2 3 4 5 6 7;
#X obj 152 523 makenote 127 800;
#X obj 159 590 noteout 1;
#X msg 151 470 60;
#X msg 189 466 62;
#X msg 228 469 64;
#X msg 269 470 65;
#X msg 306 468 67;
#X msg 343 464 69;
#X msg 380 466 70;
#X msg 417 466 72;
#X obj 573 308 s resetMatrix;
#X obj 573 282 bng 15 250 50 0 empty empty empty 17 7 0 10 -262144
-1 -1;
#X floatatom 307 576 5 0 0 0 - - -;
#X floatatom 601 533 5 0 0 0 - - -;
#X obj 197 714 moses 64;
#X obj 94 806 makenote 127 800;
#X obj 94 858 noteout 1;
#X msg 170 772 127;
#X floatatom 202 783 5 0 0 0 - - -;
#X obj 260 802 makenote 127 800;
#X msg 336 768 127;
#X floatatom 368 779 5 0 0 0 - - -;
#X obj 260 854 noteout 3;
#X floatatom 275 755 5 0 0 0 - - -;
#X floatatom 144 747 5 0 0 0 - - -;
#X obj 943 258 metro 500;
#X obj 943 284 counter;
#X obj 943 214 tgl 15 0 empty empty empty 17 7 0 10 -262144 -1 -1 0
1;
#X floatatom 943 307 5 0 0 0 - - -;
#X obj 943 336 % 8;
#X floatatom 943 361 5 0 0 0 - - -;
#X obj 943 387 sel 0 1 2 3 4 5 6 7;
#X obj 949 507 makenote 127 800;
#X floatatom 1104 560 5 0 0 0 - - -;
#X msg 948 454 80;
#X msg 984 452 82;
#X msg 1025 453 84;
#X msg 1066 454 85;
#X msg 1103 452 87;
#X msg 1140 448 89;
#X msg 1177 450 90;
#X msg 1214 450 92;
#X obj 1268 291 tgl 15 0 empty empty empty 17 7 0 10 -262144 -1 -1
0 1;
#N canvas 959 553 431 469 markovPitchGenerate 0;
#X obj 41 43 inlet;
#X obj 50 102 bng 15 250 50 0 empty empty empty 17 7 0 10 -262144 -1
-1;
#X obj 90 174 t f f;
#X floatatom 157 129 5 0 0 0 - - -;
#X obj 153 35 inlet;
#X obj 206 46 r finished;
#X msg 154 68 next;
#X obj 29 225 length;
#X obj 29 249 t b f;
#X obj 29 276 random;
#X obj 20 301 + 1;
#X obj 88 329 pack;
#X msg 89 362 nth \$2 \$1;
#X floatatom 219 417 5 0 0 0 - - -;
#X obj 220 448 outlet;
#X obj 155 95 coll pitchMatrix01;
#C restore;
#X obj 94 136 f;
#X obj 29 200 coll pitchMatrix02;
#C restore;
#X obj 92 387 coll pitchMatrix02;
#C restore;
#X connect 0 0 1 0;
#X connect 1 0 16 0;
#X connect 2 0 17 0;
#X connect 2 1 11 1;
#X connect 3 0 16 1;
#X connect 4 0 6 0;
#X connect 5 0 6 0;
#X connect 6 0 15 0;
#X connect 7 0 8 0;
#X connect 8 0 9 0;
#X connect 8 1 9 1;
#X connect 9 0 10 0;
#X connect 10 0 11 0;
#X connect 11 0 12 0;
#X connect 12 0 18 0;
#X connect 13 0 14 0;
#X connect 13 0 16 1;
#X connect 15 0 3 0;
#X connect 16 0 2 0;
#X connect 17 0 7 0;
#X connect 18 0 13 0;
#X restore 1268 427 pd markovPitchGenerate;
#X obj 1410 401 bng 15 250 50 0 empty empty empty 17 7 0 10 -262144
-1 -1;
#X floatatom 1269 461 5 0 0 0 - - -;
#X text 1408 384 start new pitch;
#X floatatom 1355 317 5 0 0 0 - - -;
#X obj 1267 505 makenote 127 800;
#X obj 1267 557 noteout 1;
#X obj 1269 359 metro 200;
#X msg 1343 471 127;
#X msg 1369 526 1;
#N canvas 660 387 357 378 markovMIDIAnalysis 0;
#X obj 37 32 inlet;
#N canvas 172 120 207 236 pair 0;
#X obj -34 29 inlet;
#X obj -34 163 outlet;
#X obj -34 139 pack;
#X text 3 27 Float in;
#X text 6 164 List of paired numbers out;
#X obj -34 83 t f b f;
#X floatatom -34 55 5 0 0 0 - - -;
#X obj -33 109 f;
#X connect 0 0 6 0;
#X connect 2 0 1 0;
#X connect 5 0 7 1;
#X connect 5 1 7 0;
#X connect 5 2 2 1;
#X connect 6 0 5 0;
#X connect 7 0 2 0;
#X restore 37 62 pd pair;
#X msg 37 93 merge \$1 \$2;
#X msg 119 93 clear;
#X text 164 130 matrix of loaded notes;
#X obj 37 128 coll pitchMatrix02;
#C restore;
#X obj 119 69 r resetMatrix02;
#X connect 0 0 1 0;
#X connect 1 0 2 0;
#X connect 2 0 5 0;
#X connect 3 0 5 0;
#X connect 6 0 3 0;
#X restore 1265 243 pd markovMIDIAnalysis;
#X msg 1432 286 300;
#X msg 1433 312 200;
#X obj 1441 517 r v01;
#X floatatom 1438 554 5 0 0 0 - - -;
#X obj 1409 216 bng 15 250 50 0 empty empty empty 17 7 0 10 -262144
-1 -1;
#X floatatom 1407 466 5 0 0 0 - - -;
#X obj 1409 242 s resetMatrix02;
#X obj 807 400 *;
#X obj 822 374 tgl 15 0 empty empty empty 17 7 0 10 -262144 -1 -1 0
1;
#X text 496 195 MACHINA 1;
#X obj 812 682 *;
#X obj 845 685 tgl 15 0 empty empty empty 17 7 0 10 -262144 -1 -1 0
1;
#X text 1265 184 MACHINA 2;
#X text 710 357 interaction of two machines M01=>M02;
#X text 724 718 interaction of two machines oposite direction M01<=M02
;
#X text 289 723 everything over 64 is sending to second tube;
#X obj 197 686 *;
#X obj 235 688 tgl 15 0 empty empty empty 17 7 0 10 -262144 -1 -1 0
1;
#X text 180 217 start simple melody 1;
#X text 610 244 < open \, coll pitchMatrix = memory;
#X text 621 266 matrix collecting data from melody 1;
#X text 639 496 Markove chain variations! of melody 1;
#X text 975 207 start simple melody 2;
#X text 1420 432 Markove chain variations! of melody 1;
#X msg 627 399 100;
#X msg 1432 335 100;
#X msg 228 250 300;
#X msg 229 274 200;
#X msg 229 296 100;
#X msg 1036 242 300;
#X msg 1037 266 200;
#X msg 1037 288 100;
#X text 682 312 reset matrix;
#X text 487 358 Start M01;
#X text 1293 287 Start M02;
#X text 287 702 More tubes;
#X obj 144 222 tgl 15 0 empty empty empty 17 7 0 10 -262144 -1 -1 0
1;
#X connect 0 0 8 0;
#X connect 1 0 3 0;
#X connect 2 0 1 1;
#X connect 3 0 6 0;
#X connect 3 0 83 0;
#X connect 5 0 8 1;
#X connect 6 0 7 0;
#X connect 6 1 7 1;
#X connect 8 0 1 0;
#X connect 9 0 6 1;
#X connect 10 0 7 2;
#X connect 12 0 5 0;
#X connect 13 0 5 0;
#X connect 14 0 15 0;
#X connect 16 0 17 0;
#X connect 17 0 18 0;
#X connect 18 0 19 0;
#X connect 19 0 20 0;
#X connect 20 0 21 0;
#X connect 21 0 28 0;
#X connect 21 1 26 0;
#X connect 21 2 30 0;
#X connect 21 3 27 0;
#X connect 21 4 25 0;
#X connect 21 5 26 0;
#X connect 21 6 27 0;
#X connect 21 7 24 0;
#X connect 21 7 31 0;
#X connect 24 0 22 0;
#X connect 24 0 34 0;
#X connect 25 0 22 0;
#X connect 25 0 34 0;
#X connect 26 0 22 0;
#X connect 26 0 34 0;
#X connect 27 0 22 0;
#X connect 27 0 34 0;
#X connect 28 0 22 0;
#X connect 28 0 34 0;
#X connect 29 0 22 0;
#X connect 29 0 34 0;
#X connect 30 0 22 0;
#X connect 30 0 34 0;
#X connect 31 0 22 0;
#X connect 31 0 34 0;
#X connect 33 0 32 0;
#X connect 34 0 11 0;
#X connect 34 0 92 0;
#X connect 35 0 6 2;
#X connect 36 0 46 0;
#X connect 36 1 45 0;
#X connect 37 0 38 0;
#X connect 37 1 38 1;
#X connect 39 0 37 1;
#X connect 40 0 37 2;
#X connect 41 0 44 0;
#X connect 41 1 44 1;
#X connect 42 0 41 1;
#X connect 43 0 41 2;
#X connect 45 0 41 0;
#X connect 46 0 37 0;
#X connect 47 0 48 0;
#X connect 48 0 50 0;
#X connect 49 0 47 0;
#X connect 50 0 51 0;
#X connect 51 0 52 0;
#X connect 52 0 53 0;
#X connect 53 0 60 0;
#X connect 53 0 56 0;
#X connect 53 1 58 0;
#X connect 53 2 62 0;
#X connect 53 3 59 0;
#X connect 53 4 57 0;
#X connect 53 6 59 0;
#X connect 53 7 63 0;
#X connect 55 0 75 0;
#X connect 56 0 54 0;
#X connect 56 0 55 0;
#X connect 57 0 54 0;
#X connect 57 0 55 0;
#X connect 58 0 54 0;
#X connect 58 0 55 0;
#X connect 59 0 54 0;
#X connect 59 0 55 0;
#X connect 60 0 54 0;
#X connect 60 0 55 0;
#X connect 61 0 54 0;
#X connect 61 0 55 0;
#X connect 62 0 54 0;
#X connect 62 0 55 0;
#X connect 63 0 54 0;
#X connect 63 0 55 0;
#X connect 64 0 72 0;
#X connect 65 0 67 0;
#X connect 66 0 65 1;
#X connect 67 0 70 0;
#X connect 67 0 86 0;
#X connect 69 0 72 1;
#X connect 70 0 71 0;
#X connect 70 1 71 1;
#X connect 72 0 65 0;
#X connect 73 0 70 1;
#X connect 74 0 71 2;
#X connect 76 0 69 0;
#X connect 77 0 69 0;
#X connect 78 0 79 0;
#X connect 80 0 82 0;
#X connect 81 0 70 2;
#X connect 83 0 75 0;
#X connect 84 0 83 1;
#X connect 86 0 11 0;
#X connect 87 0 86 1;
#X connect 92 0 36 0;
#X connect 93 0 92 1;
#X connect 100 0 5 0;
#X connect 101 0 69 0;
#X connect 102 0 16 1;
#X connect 103 0 16 1;
#X connect 104 0 16 1;
#X connect 105 0 47 1;
#X connect 106 0 47 1;
#X connect 107 0 47 1;
#X connect 112 0 16 0;
