#N canvas 556 23 766 614 10;
#N canvas 978 208 450 300 loadMIDIfile 0;
#X obj 56 46 inlet;
#X msg 60 91 read;
#X obj 136 44 inlet;
#X msg 137 91 start 65536;
#X obj 60 125 seq;
#X obj 159 130 bng 15 250 50 0 empty empty empty 17 7 0 10 -262144
-1 -1;
#X obj 159 154 outlet;
#X obj 214 156 s finished;
#X obj 60 187 midiparse ----------------;
#X obj 60 227 unpack;
#X obj 61 268 stripnote;
#X obj 62 300 outlet;
#X text 64 329 midi pitches out;
#X text 60 21 open file play file;
#X connect 0 0 1 0;
#X connect 1 0 4 0;
#X connect 2 0 3 0;
#X connect 2 0 4 0;
#X connect 4 0 8 0;
#X connect 4 1 5 0;
#X connect 5 0 6 0;
#X connect 5 0 7 0;
#X connect 8 0 9 0;
#X connect 9 0 10 0;
#X connect 9 1 10 1;
#X connect 10 0 11 0;
#X restore 85 85 pd loadMIDIfile;
#X obj 89 55 bng 15 250 50 0 empty empty empty 17 7 0 10 -262144 -1
-1;
#X obj 173 50 bng 15 250 50 0 empty empty empty 17 7 0 10 -262144 -1
-1;
#X text 91 29 open;
#X text 182 30 play;
#N canvas 898 183 450 300 markovMIDIAnalysis 0;
#X obj 66 54 inlet;
#N canvas 845 234 450 300 pair 0;
#X obj 59 46 inlet;
#X floatatom 61 86 5 0 0 0 - - -;
#X obj 60 126 t f b f;
#X obj 52 170 f;
#X obj 53 221 pack;
#X obj 54 261 outlet;
#X text 103 263 list of paired numebers out;
#X connect 0 0 1 0;
#X connect 1 0 2 0;
#X connect 2 0 3 1;
#X connect 2 1 3 0;
#X connect 2 2 4 1;
#X connect 3 0 4 0;
#X connect 4 0 5 0;
#X restore 65 107 pd pair;
#X msg 65 160 merge \$1 \$2;
#X obj 169 128 r resetMatrix;
#X msg 172 160 clear;
#X obj 65 207 coll pitchMatrix;
#C restore;
#X connect 0 0 1 0;
#X connect 1 0 2 0;
#X connect 2 0 5 0;
#X connect 3 0 4 0;
#X connect 4 0 5 0;
#X restore 92 155 pd markovMIDIAnalysis;
#X obj 90 193 tgl 15 0 empty empty empty 17 7 0 10 -262144 -1 -1 1
1;
#N canvas 909 247 431 469 markovPitchGenerate 0;
#X obj 87 33 inlet;
#X obj 96 92 bng 15 250 50 0 empty empty empty 17 7 0 10 -262144 -1
-1;
#X obj 94 136 f;
#X obj 90 174 t f f;
#X floatatom 157 129 5 0 0 0 - - -;
#X obj 153 35 inlet;
#X obj 206 46 r finished;
#X msg 154 68 next;
#X obj 155 95 coll pitchMatrix;
#C restore;
#X obj 29 200 coll pitchMatrix;
#C restore;
#X obj 29 225 length;
#X obj 29 249 t b f;
#X obj 29 276 random;
#X obj 20 301 + 1;
#X obj 88 329 pack;
#X msg 89 362 nth \$2 \$1;
#X obj 92 387 coll pitchMatrix;
#C restore;
#X floatatom 219 417 5 0 0 0 - - -;
#X obj 220 448 outlet;
#X connect 0 0 1 0;
#X connect 1 0 2 0;
#X connect 2 0 3 0;
#X connect 3 0 9 0;
#X connect 3 1 14 1;
#X connect 4 0 2 1;
#X connect 5 0 7 0;
#X connect 6 0 7 0;
#X connect 7 0 8 0;
#X connect 8 0 4 0;
#X connect 9 0 10 0;
#X connect 10 0 11 0;
#X connect 11 0 12 0;
#X connect 11 1 12 1;
#X connect 12 0 13 0;
#X connect 13 0 14 0;
#X connect 14 0 15 0;
#X connect 15 0 16 0;
#X connect 16 0 17 0;
#X connect 17 0 2 1;
#X connect 17 0 18 0;
#X restore 102 290 pd markovPitchGenerate;
#X obj 244 264 bng 15 250 50 0 empty empty empty 17 7 0 10 -262144
-1 -1;
#X floatatom 103 324 5 0 0 0 - - -;
#X obj 104 416 noteout;
#X obj 386 317 s resetMatrix;
#X obj 390 286 bng 15 250 50 0 empty empty empty 17 7 0 10 -262144
-1 -1;
#X text 242 247 start new pitch;
#X floatatom 156 195 5 0 0 0 - - -;
#X floatatom 191 401 5 0 0 0 - - -;
#X obj 101 368 makenote 127 800;
#X msg 209 205 300;
#N canvas 909 247 431 469 markovPitchGenerate 0;
#X obj 87 33 inlet;
#X obj 96 92 bng 15 250 50 0 empty empty empty 17 7 0 10 -262144 -1
-1;
#X obj 94 136 f;
#X obj 90 174 t f f;
#X floatatom 157 129 5 0 0 0 - - -;
#X obj 153 35 inlet;
#X obj 206 46 r finished;
#X msg 154 68 next;
#X obj 155 95 coll pitchMatrix;
#C restore;
#X obj 29 200 coll pitchMatrix;
#C restore;
#X obj 29 225 length;
#X obj 29 249 t b f;
#X obj 29 276 random;
#X obj 20 301 + 1;
#X obj 88 329 pack;
#X msg 89 362 nth \$2 \$1;
#X obj 92 387 coll pitchMatrix;
#C restore;
#X floatatom 219 417 5 0 0 0 - - -;
#X obj 220 448 outlet;
#X connect 0 0 1 0;
#X connect 1 0 2 0;
#X connect 2 0 3 0;
#X connect 3 0 9 0;
#X connect 3 1 14 1;
#X connect 4 0 2 1;
#X connect 5 0 7 0;
#X connect 6 0 7 0;
#X connect 7 0 8 0;
#X connect 8 0 4 0;
#X connect 9 0 10 0;
#X connect 10 0 11 0;
#X connect 11 0 12 0;
#X connect 11 1 12 1;
#X connect 12 0 13 0;
#X connect 13 0 14 0;
#X connect 14 0 15 0;
#X connect 15 0 16 0;
#X connect 16 0 17 0;
#X connect 17 0 2 1;
#X connect 17 0 18 0;
#X restore 312 126 pd markovPitchGenerate;
#X obj 454 100 bng 15 250 50 0 empty empty empty 17 7 0 10 -262144
-1 -1;
#X floatatom 313 160 5 0 0 0 - - -;
#X text 452 83 start new pitch;
#X floatatom 366 31 5 0 0 0 - - -;
#X obj 311 204 makenote 127 800;
#X obj 330 237 noteout;
#N canvas 909 247 431 469 markovPitchGenerate 0;
#X obj 87 33 inlet;
#X obj 96 92 bng 15 250 50 0 empty empty empty 17 7 0 10 -262144 -1
-1;
#X obj 94 136 f;
#X obj 90 174 t f f;
#X floatatom 157 129 5 0 0 0 - - -;
#X obj 153 35 inlet;
#X obj 206 46 r finished;
#X msg 154 68 next;
#X obj 155 95 coll pitchMatrix;
#C restore;
#X obj 29 200 coll pitchMatrix;
#C restore;
#X obj 29 225 length;
#X obj 29 249 t b f;
#X obj 29 276 random;
#X obj 20 301 + 1;
#X obj 88 329 pack;
#X msg 89 362 nth \$2 \$1;
#X obj 92 387 coll pitchMatrix;
#C restore;
#X floatatom 219 417 5 0 0 0 - - -;
#X obj 220 448 outlet;
#X connect 0 0 1 0;
#X connect 1 0 2 0;
#X connect 2 0 3 0;
#X connect 3 0 9 0;
#X connect 3 1 14 1;
#X connect 4 0 2 1;
#X connect 5 0 7 0;
#X connect 6 0 7 0;
#X connect 7 0 8 0;
#X connect 8 0 4 0;
#X connect 9 0 10 0;
#X connect 10 0 11 0;
#X connect 11 0 12 0;
#X connect 11 1 12 1;
#X connect 12 0 13 0;
#X connect 13 0 14 0;
#X connect 14 0 15 0;
#X connect 15 0 16 0;
#X connect 16 0 17 0;
#X connect 17 0 2 1;
#X connect 17 0 18 0;
#X restore 563 133 pd markovPitchGenerate;
#X obj 705 107 bng 15 250 50 0 empty empty empty 17 7 0 10 -262144
-1 -1;
#X floatatom 564 167 5 0 0 0 - - -;
#X text 703 90 start new pitch;
#X floatatom 617 38 5 0 0 0 - - -;
#X obj 562 211 makenote 127 800;
#X msg 633 7 300;
#X obj 581 244 noteout;
#X obj 89 221 metro 250;
#X obj 299 57 metro 250;
#X obj 550 64 metro 250;
#X msg 683 14 600;
#X msg 393 68 251;
#X msg 659 78 252;
#X msg 594 6 250;
#X msg 362 84 250;
#X obj 365 162 - 12;
#X floatatom 311 183 5 0 0 0 - - -;
#X floatatom 560 191 5 0 0 0 - - -;
#X obj 613 170 + 12;
#X msg 158 237 250;
#X connect 0 0 5 0;
#X connect 1 0 0 0;
#X connect 2 0 0 1;
#X connect 6 0 33 0;
#X connect 6 0 34 0;
#X connect 6 0 35 0;
#X connect 7 0 9 0;
#X connect 8 0 7 1;
#X connect 9 0 16 0;
#X connect 12 0 11 0;
#X connect 14 0 33 1;
#X connect 16 0 10 0;
#X connect 16 1 10 1;
#X connect 16 1 15 0;
#X connect 17 0 14 0;
#X connect 18 0 20 0;
#X connect 19 0 18 1;
#X connect 20 0 41 0;
#X connect 22 0 34 1;
#X connect 23 0 24 0;
#X connect 23 1 24 1;
#X connect 25 0 27 0;
#X connect 26 0 25 1;
#X connect 27 0 44 0;
#X connect 29 0 35 1;
#X connect 29 0 22 0;
#X connect 29 0 14 0;
#X connect 30 0 32 0;
#X connect 30 1 32 1;
#X connect 31 0 29 0;
#X connect 33 0 7 0;
#X connect 34 0 18 0;
#X connect 35 0 25 0;
#X connect 36 0 29 0;
#X connect 37 0 34 1;
#X connect 38 0 35 1;
#X connect 39 0 29 0;
#X connect 40 0 34 1;
#X connect 41 0 42 0;
#X connect 42 0 23 0;
#X connect 43 0 30 0;
#X connect 44 0 43 0;
#X connect 45 0 33 1;
