#N canvas 0 335 1204 726 10;
#X obj 76 174 noteout 1;
#X obj 48 -6 moses 69;
#X floatatom 48 -39 5 0 0 0 - - -;
#X obj 124 33 bng 15 250 50 0 empty empty empty 17 7 0 10 -262144 -1
-1;
#X obj 47 34 bng 15 250 50 0 empty empty empty 17 7 0 10 -262144 -1
-1;
#X obj 124 56 t b b;
#X obj 46 57 t b b;
#X msg 45 94 64;
#X msg 78 95 67;
#X msg 124 97 69;
#X msg 161 97 72;
#X obj 404 175 noteout 1;
#X obj 420 -4 moses 69;
#X floatatom 420 -37 5 0 0 0 - - -;
#X obj 488 30 bng 15 250 50 0 empty empty empty 17 7 0 10 -262144 -1
-1;
#X obj 420 30 bng 15 250 50 0 empty empty empty 17 7 0 10 -262144 -1
-1;
#X msg 415 95 64;
#X msg 448 96 67;
#X msg 496 98 69;
#X obj 531 176 noteout 3;
#X obj 76 139 makenote 127 250;
#X obj 531 141 makenote 127 250;
#X obj 404 140 makenote 127 250;
#X obj 420 58 t b b b;
#X msg 374 97 60;
#X obj 488 58 t b b b;
#X msg 537 98 72;
#X msg 571 99 76;
#X obj 761 200 noteout 1;
#X floatatom 761 32 5 0 0 0 - - -;
#X obj 761 96 t b b;
#X msg 761 123 64;
#X obj 761 166 makenote 127 250;
#X obj 761 68 spigot;
#X obj 761 3 == 69;
#X floatatom 761 -33 5 0 0 0 - - -;
#X msg 794 124 69;
#X text 837 22 playing only one number 69 from stream;
#X text 415 205 two tubes with two accords;
#X connect 1 0 4 0;
#X connect 1 1 3 0;
#X connect 2 0 1 0;
#X connect 3 0 5 0;
#X connect 4 0 6 0;
#X connect 5 0 9 0;
#X connect 5 1 10 0;
#X connect 6 0 7 0;
#X connect 6 1 8 0;
#X connect 7 0 20 0;
#X connect 8 0 20 0;
#X connect 9 0 20 0;
#X connect 10 0 20 0;
#X connect 12 0 15 0;
#X connect 12 1 14 0;
#X connect 13 0 12 0;
#X connect 14 0 25 0;
#X connect 15 0 23 0;
#X connect 16 0 22 0;
#X connect 17 0 22 0;
#X connect 18 0 21 0;
#X connect 20 0 0 0;
#X connect 20 1 0 1;
#X connect 21 0 19 0;
#X connect 21 1 19 1;
#X connect 22 0 11 0;
#X connect 22 1 11 1;
#X connect 23 0 24 0;
#X connect 23 1 16 0;
#X connect 23 2 17 0;
#X connect 24 0 22 0;
#X connect 25 0 18 0;
#X connect 25 1 26 0;
#X connect 25 2 27 0;
#X connect 26 0 21 0;
#X connect 27 0 21 0;
#X connect 29 0 33 0;
#X connect 29 0 33 1;
#X connect 30 0 31 0;
#X connect 30 1 36 0;
#X connect 31 0 32 0;
#X connect 32 0 28 0;
#X connect 32 1 28 1;
#X connect 33 0 30 0;
#X connect 34 0 29 0;
#X connect 35 0 34 0;
#X connect 36 0 32 0;
