#N canvas 308 23 1526 1114 10;
#X obj 147 85 metro 100;
#X obj 156 121 random 2;
#X floatatom 161 153 5 0 0 0 - - -;
#X obj 159 198 t b f;
#X obj 213 224 sel 0 1;
#X obj 147 51 tgl 15 0 empty empty empty 17 7 0 10 -262144 -1 -1 0
1;
#X obj 212 253 bng 15 250 50 0 empty empty empty 17 7 0 10 -262144
-1 -1;
#X obj 244 251 bng 15 250 50 0 empty empty empty 17 7 0 10 -262144
-1 -1;
#X obj 157 290 f;
#X obj 199 300 +;
#X msg 214 277 -1;
#X msg 249 279 1;
#X floatatom 154 343 5 0 0 0 - - -;
#X obj 145 481 noteout 1;
#X obj 153 433 flush;
#X msg 121 267 60;
#X obj 145 388 makenote 127 100;
#X obj 95 237 loadbang;
#X floatatom 219 58 5 0 0 0 - - -;
#X msg 218 29 100;
#X obj 575 88 metro 100;
#X obj 584 124 random 2;
#X floatatom 589 156 5 0 0 0 - - -;
#X obj 587 201 t b f;
#X obj 641 227 sel 0 1;
#X obj 575 54 tgl 15 0 empty empty empty 17 7 0 10 -262144 -1 -1 0
1;
#X obj 640 256 bng 15 250 50 0 empty empty empty 17 7 0 10 -262144
-1 -1;
#X obj 672 254 bng 15 250 50 0 empty empty empty 17 7 0 10 -262144
-1 -1;
#X obj 585 293 f;
#X obj 627 303 +;
#X msg 642 280 -1;
#X msg 677 282 1;
#X floatatom 582 346 5 0 0 0 - - -;
#X obj 573 484 noteout 1;
#X obj 581 436 flush;
#X msg 549 270 60;
#X obj 573 391 makenote 127 100;
#X obj 523 240 loadbang;
#X floatatom 647 61 5 0 0 0 - - -;
#X msg 646 32 100;
#X obj 810 233 f;
#X obj 810 258 / 2;
#X obj 889 256 pipe;
#X obj 810 312 line;
#X floatatom 810 336 5 0 0 0 - - -;
#X msg 810 280 0 \, 127 \$1;
#X msg 889 280 0 \, 127 \$1;
#X obj 188 1019 noteout 1;
#X obj 215 619 tgl 15 0 empty empty empty 17 7 0 10 -262144 -1 -1 1
1;
#X floatatom 292 646 5 0 0 0 - - -;
#X floatatom 215 700 5 0 0 0 - - -;
#X obj 366 572 bng 15 250 50 0 empty empty empty 17 7 0 10 -262144
-1 -1;
#X obj 215 763 tabread majorScale;
#X floatatom 215 794 5 0 0 0 - - -;
#X obj 439 564 loadbang;
#X floatatom 183 931 5 0 0 0 - - -;
#X obj 183 907 + 48;
#X obj 215 645 metro 100;
#X obj 215 672 drunk 24 4;
#X msg 331 590 10;
#X obj 216 729 % 7;
#X msg 412 588 \; majorScale 0 0 2 4 5 7 9 11;
#X obj 415 633 table majorScale;
#X obj 230 431 flush;
#X text 286 434 provide note offs for held notes;
#X obj 133 723 / 7;
#X obj 132 759 int;
#X floatatom 136 786 5 0 0 0 - - -;
#X obj 138 825 * 12;
#X obj 183 859 +;
#X floatatom 183 882 5 0 0 0 - - -;
#X obj 340 684 drunk;
#X floatatom 342 727 5 0 0 0 - - -;
#X floatatom 350 815 5 0 0 0 - - -;
#X msg 333 650 20 40 10;
#X obj 185 968 makenote 100 250;
#X obj 732 584 metro 100;
#X obj 741 620 random 2;
#X floatatom 746 652 5 0 0 0 - - -;
#X obj 744 697 t b f;
#X obj 798 723 sel 0 1;
#X obj 732 550 tgl 15 0 empty empty empty 17 7 0 10 -262144 -1 -1 0
1;
#X obj 797 752 bng 15 250 50 0 empty empty empty 17 7 0 10 -262144
-1 -1;
#X obj 829 750 bng 15 250 50 0 empty empty empty 17 7 0 10 -262144
-1 -1;
#X obj 743 806 f;
#X obj 784 799 +;
#X msg 799 776 -1;
#X msg 834 778 1;
#X floatatom 739 842 5 0 0 0 - - -;
#X obj 730 980 noteout 1;
#X obj 738 932 flush;
#X msg 678 762 60;
#X obj 730 887 makenote 127 100;
#X obj 680 736 loadbang;
#X floatatom 804 557 5 0 0 0 - - -;
#X msg 803 528 100;
#X obj 904 705 drunk;
#X floatatom 906 748 5 0 0 0 - - -;
#X floatatom 914 836 5 0 0 0 - - -;
#X obj 931 595 bng 15 250 50 0 empty empty empty 17 7 0 10 -262144
-1 -1;
#X msg 908 632 10;
#X msg 898 673 20 40 10;
#X obj 891 575 bng 15 250 50 0 empty empty empty 17 7 0 10 -262144
-1 -1;
#X obj 964 567 loadbang;
#X text 183 555 random walk with majorScale;
#X msg 292 942 250;
#X obj 348 783 + 100;
#X obj 403 898 * 2;
#X floatatom 907 936 5 0 0 0 - - -;
#X obj 905 903 * 1;
#X obj 970 902 hsl 128 15 1 12 0 0 empty empty empty -2 -8 0 10 -262144
-1 -1 5500 1;
#X obj 1029 796 metro 100;
#X obj 1029 762 tgl 15 0 empty empty empty 17 7 0 10 -262144 -1 -1
0 1;
#X obj 1038 832 random 12;
#X floatatom 1095 766 5 0 0 0 - - -;
#X floatatom 1052 861 5 0 0 0 - - -;
#X obj 912 804 + 80;
#X floatatom 396 939 5 0 0 0 - - -;
#X connect 0 0 1 0;
#X connect 1 0 2 0;
#X connect 2 0 3 0;
#X connect 3 0 8 0;
#X connect 3 1 4 0;
#X connect 4 0 6 0;
#X connect 4 1 7 0;
#X connect 5 0 0 0;
#X connect 6 0 10 0;
#X connect 7 0 11 0;
#X connect 8 0 9 0;
#X connect 8 0 12 0;
#X connect 9 0 8 1;
#X connect 10 0 9 1;
#X connect 11 0 9 1;
#X connect 12 0 16 0;
#X connect 14 0 13 0;
#X connect 14 1 13 1;
#X connect 15 0 8 1;
#X connect 16 0 14 0;
#X connect 16 1 14 1;
#X connect 17 0 15 0;
#X connect 18 0 0 1;
#X connect 18 0 16 2;
#X connect 19 0 18 0;
#X connect 20 0 21 0;
#X connect 21 0 22 0;
#X connect 21 0 40 1;
#X connect 22 0 23 0;
#X connect 23 0 28 0;
#X connect 23 1 24 0;
#X connect 24 0 26 0;
#X connect 24 1 27 0;
#X connect 25 0 20 0;
#X connect 26 0 30 0;
#X connect 27 0 31 0;
#X connect 28 0 29 0;
#X connect 28 0 32 0;
#X connect 29 0 28 1;
#X connect 30 0 29 1;
#X connect 31 0 29 1;
#X connect 32 0 36 0;
#X connect 32 0 40 0;
#X connect 34 0 33 0;
#X connect 34 1 33 1;
#X connect 35 0 28 1;
#X connect 36 0 34 0;
#X connect 36 1 34 1;
#X connect 37 0 35 0;
#X connect 38 0 20 1;
#X connect 38 0 36 2;
#X connect 39 0 38 0;
#X connect 40 0 41 0;
#X connect 41 0 42 0;
#X connect 41 0 42 1;
#X connect 41 0 45 0;
#X connect 42 0 46 0;
#X connect 43 0 44 0;
#X connect 44 0 36 1;
#X connect 45 0 43 0;
#X connect 46 0 43 0;
#X connect 48 0 57 0;
#X connect 49 0 57 1;
#X connect 50 0 60 0;
#X connect 50 0 65 0;
#X connect 51 0 61 0;
#X connect 51 0 59 0;
#X connect 52 0 53 0;
#X connect 53 0 69 1;
#X connect 54 0 51 0;
#X connect 55 0 75 0;
#X connect 56 0 55 0;
#X connect 57 0 58 0;
#X connect 57 0 71 0;
#X connect 58 0 50 0;
#X connect 59 0 58 0;
#X connect 59 0 74 0;
#X connect 60 0 52 0;
#X connect 65 0 66 0;
#X connect 66 0 67 0;
#X connect 67 0 68 0;
#X connect 68 0 69 0;
#X connect 69 0 70 0;
#X connect 70 0 56 0;
#X connect 71 0 72 0;
#X connect 72 0 106 0;
#X connect 73 0 75 1;
#X connect 73 0 107 0;
#X connect 74 0 71 0;
#X connect 75 0 47 0;
#X connect 75 1 47 1;
#X connect 76 0 77 0;
#X connect 76 0 96 0;
#X connect 77 0 78 0;
#X connect 78 0 79 0;
#X connect 79 0 84 0;
#X connect 79 1 80 0;
#X connect 80 0 82 0;
#X connect 80 1 83 0;
#X connect 81 0 76 0;
#X connect 82 0 86 0;
#X connect 83 0 87 0;
#X connect 84 0 85 0;
#X connect 84 0 88 0;
#X connect 85 0 84 1;
#X connect 86 0 85 1;
#X connect 87 0 85 1;
#X connect 88 0 92 0;
#X connect 90 0 89 0;
#X connect 90 1 89 1;
#X connect 91 0 84 1;
#X connect 92 0 90 0;
#X connect 92 1 90 1;
#X connect 93 0 91 0;
#X connect 94 0 76 1;
#X connect 95 0 94 0;
#X connect 96 0 97 0;
#X connect 97 0 116 0;
#X connect 98 0 92 1;
#X connect 98 0 109 0;
#X connect 99 0 100 0;
#X connect 101 0 96 0;
#X connect 102 0 101 0;
#X connect 103 0 102 0;
#X connect 105 0 75 2;
#X connect 106 0 73 0;
#X connect 107 0 75 2;
#X connect 107 0 117 0;
#X connect 109 0 92 2;
#X connect 109 0 108 0;
#X connect 110 0 109 1;
#X connect 111 0 113 0;
#X connect 112 0 111 0;
#X connect 113 0 115 0;
#X connect 114 0 111 1;
#X connect 115 0 110 0;
#X connect 116 0 98 0;
