#N canvas 88 41 1320 662 12;
#X declare -path else;
#X obj 111 219 vstplugin~;
#X msg -43 75 open -e ValhallaVintageVerb;
#X obj 372 187 *~ 0.75;
#X obj 368 131 *~;
#X floatatom 356 36 5 0 0 0 - - - 0;
#X floatatom 446 142 5 0 0 0 - - - 0;
#X obj 445 111 line;
#X obj 464 4 bng 15 250 50 0 empty empty empty 17 7 0 10 #fcfcfc #000000
#000000;
#X msg 520 69 0 300;
#X msg -47 37 open -e /Library/Audio/Plug-Ins/VST3/DDSPEffect.vst3
;
#X obj 320 413 osc~ 2000;
#X floatatom 312 375 5 0 0 0 - - - 0;
#X obj 696 179 random 12;
#X floatatom 696 206 5 0 0 0 - - - 0;
#X obj 696 233 + 48;
#X floatatom 696 261 5 0 0 0 - - - 0;
#X obj 696 126 tgl 15 0 empty empty empty 17 7 0 10 #fcfcfc #000000
#000000 0 1;
#X floatatom 737 263 5 0 0 0 - - - 0;
#X msg 740 239 50;
#X obj 746 211 loadbang;
#X text 726 125 stream 1 with pattern;
#X msg 774 154 100;
#X floatatom 693 318 5 0 0 0 - - - 0;
#X obj 696 287 expr 3*cos($f1) + (2*$f2)/2;
#X obj 904 170 random 12;
#X floatatom 904 197 5 0 0 0 - - - 0;
#X obj 904 224 + 48;
#X floatatom 904 252 5 0 0 0 - - - 0;
#X obj 904 117 tgl 15 0 empty empty empty 17 7 0 10 #fcfcfc #000000
#000000 0 1;
#X obj 904 143 metro 40;
#X msg 814 156 500;
#X msg 796 181 40;
#N canvas 219 289 450 355 open 0;
#X obj 36 294 outlet~;
#X obj 91 294 outlet~;
#X obj 108 124 bng 15 250 50 0 empty empty file 17 7 0 10 #fcfcfc #000000
#000000;
#X msg 36 64 symbol;
#X obj 36 40 loadbang;
#X obj 28 133 openpanel;
#X obj 108 145 bng 15 250 50 0 empty empty play 17 7 0 10 #00fc04 #000000
#000000;
#X obj 108 166 bng 15 250 50 0 empty empty stop 17 7 0 10 #fc0400 #000000
#000000;
#X obj 36 204 symbol;
#X obj 35 255 readsf~ 2;
#X obj 108 188 tgl 15 0 \$0-loop \$0-loop loop 17 7 0 10 #fcfcfc #000000
#000000 0 1;
#X msg 120 227 0;
#X obj 112 256 spigot;
#X msg 35 227 open \$1 \, 1;
#X text 107 104 Player;
#X obj 148 235 r \$0-loop;
#X connect 2 0 5 0;
#X connect 4 0 3 0;
#X connect 5 0 8 1;
#X connect 6 0 8 0;
#X connect 7 0 11 0;
#X connect 8 0 13 0;
#X connect 9 0 0 0;
#X connect 9 1 1 0;
#X connect 9 2 12 0;
#X connect 11 0 9 0;
#X connect 12 0 8 0;
#X connect 13 0 9 0;
#X connect 15 0 12 1;
#X coords 0 -1 1 1 70 110 2 100 100;
#X restore 246 75 pd open;
#X obj 140 476 *~;
#X floatatom 140 419 0 0 0 0 - - - 0;
#X obj 228 456 line~;
#X floatatom 44 433 0 0 0 0 - - - 0;
#X obj 44 547 cos~;
#X obj 44 503 +~;
#X obj 140 444 osc~ 0;
#X obj 243 428 pack 0 50;
#X floatatom 231 376 0 0 0 0 - - - 0;
#X obj 228 404 / 100;
#X text 202 354 in hundredths;
#X text 41 390 carrier;
#X text 40 408 frequency;
#X text 125 395 frequency;
#X text 126 378 modulation;
#X obj 44 460 phasor~;
#X obj 15 611 hip~;
#X obj 810 630 mtof;
#X floatatom 810 519 5 0 0 0 - - - 0;
#X obj 810 575 line;
#X obj 810 395 tgl 15 0 empty empty empty 17 7 0 10 #fcfcfc #000000
#000000 0 1;
#X obj 837 419 + 500;
#X obj 810 470 bng 15 250 50 0 empty empty empty 17 7 0 10 #fcfcfc
#000000 #000000;
#X floatatom 810 601 5 0 0 0 - - - 0;
#X obj 810 494 random 127;
#X msg 810 547 \$1 1500;
#X obj 837 394 random 1500;
#X obj 810 447 metro 15000;
#X obj 744 47 declare -path else;
#X obj 525 581 hsl 128 15 -0.999 0.999 0 0 empty feedback empty -2
-6 0 8 #dcdcdc #000000 #000000 0 1;
#X text 563 604 feedback;
#X floatatom 522 603 0 0 0 0 - - - 0;
#X obj 284 655 fbdelay~ 200 -gain;
#X obj 290 528 osc~ 0.1;
#X floatatom 290 494 5 0 0 0 - - - 0;
#X floatatom 437 574 5 0 1000 0 - - - 0;
#X floatatom 371 522 5 1 100 0 - - - 0;
#X obj 293 472 hsl 128 15 0.01 3 1 0 empty rate empty -2 -8 0 10 #dcdcdc
#000000 #000000 0 1;
#X text 255 495 rate;
#X obj 440 551 hsl 128 15 60 200 1 0 empty depth empty -2 -8 0 10 #dcdcdc
#000000 #000000 0 1;
#X obj 374 498 hsl 128 15 0 50 0 0 empty delay empty -2 -8 0 10 #dcdcdc
#000000 #000000 0 1;
#X obj 345 609 rescale~;
#X obj 522 626 f2s~ 10;
#X obj 371 546 f2s~ 10;
#X obj 437 597 f2s~ 10;
#X text 411 521 delay min.;
#X text 479 573 max;
#X obj 298 765 dac~;
#X msg 328 679 0.5;
#X msg 392 733 0;
#X obj 298 736 *~ 0.5;
#X obj 364 74 osc~;
#X obj 52 721 loadbang;
#X msg 125 543 \; rate 0.2 \; depth 100 \; delay 20 \; feedback 0.85
;
#X msg 125 628 \; rate 0.1 \; depth 30 \; delay 10 \; feedback -0.75
;
#X msg 125 713 \; rate 0.05 \; depth 15 \; delay 5 \; feedback 0.91
;
#X obj 537 309 *~ 0.75;
#X floatatom 531 179 5 0 0 0 - - - 0;
#X obj 539 217 osc~;
#X msg 382 702 0.2;
#X text 614 212 MAIN;
#X msg 443 27 1 500;
#X obj 522 33 del 500;
#X obj 691 350 * 5;
#X obj 696 152 metro 500;
#X obj 715 425 midi;
#X obj 718 480 bng 16 250 50 0 empty empty empty 0 -6 0 10 #dcdcdc
#000000 #000000;
#X text 739 481 <= when finished;
#X text 436 450 click to open file =>;
#X obj 589 420 tgl 17 0 empty empty empty 17 7 0 10 #dcdcdc #000000
#000000 0 1;
#X text 612 421 Play/stop;
#X obj 589 480 print midi;
#X obj 589 451 else/midi midi-seq.mid;
#X floatatom 606 68 5 0 0 0 - - - 0;
#X obj 598 100 phasor~;
#X obj 429 387 sig~;
#X msg 37 101 param_list;
#X obj 183 275 print;
#X obj -29 243 hsl 128 15 0 1 0 0 empty empty empty -2 -8 0 10 #fcfcfc
#000000 #000000 0 1;
#X text 18 225 0-1;
#X msg -31 270 param_set 2 \$1;
#X obj -35 318 osc~ 0.25;
#X obj -28 447 snapshot~;
#X floatatom -28 477 6 0 0 0 - - - 0;
#X obj -3 389 metro 50;
#X obj 74 341 tgl 15 0 empty empty empty 17 7 0 10 #fcfcfc #000000
#000000 0 1;
#X msg 850 362 60;
#X text 926 337 D;
#X msg 911 360 62;
#X text 991 337 E;
#X text 1044 336 F;
#X msg 973 361 64;
#X msg 1029 360 65;
#X text 1096 335 G;
#X text 1153 334 A;
#X text 1220 334 B;
#X text 1282 334 C;
#X msg 1081 359 67;
#X msg 1137 357 69;
#X msg 1268 357 72;
#X obj 850 304 sel 0;
#X obj 911 303 sel 1;
#X obj 973 302 sel 2;
#X obj 1029 300 sel 3;
#X obj 1081 300 sel 4;
#X obj 1137 299 sel 5;
#X obj 1204 299 sel 6;
#X obj 1268 300 sel 7;
#X floatatom 1059 394 5 0 0 0 - - - 0;
#X floatatom 1063 239 5 0 0 0 - - - 0;
#X text 862 337 C;
#X text 1114 240 C Major Scale (MIDI Note);
#X msg 1204 357 71;
#X obj 1068 147 tgl 15 0 empty empty empty 17 7 0 10 #fcfcfc #000000
#000000 0 1;
#X obj 1068 200 random 8;
#X obj 1067 173 metro 1000;
#X floatatom 1138 144 5 0 0 0 - - - 0;
#X msg 391 768 1;
#X msg 1164 170 300;
#X text 1194 149 trumpet;
#X connect 0 0 65 0;
#X connect 0 1 65 0;
#X connect 0 2 110 0;
#X connect 1 0 0 0;
#X connect 2 0 0 0;
#X connect 2 0 0 1;
#X connect 3 0 2 0;
#X connect 4 0 7 0;
#X connect 4 0 84 0;
#X connect 5 0 3 1;
#X connect 6 0 5 0;
#X connect 7 0 94 0;
#X connect 7 0 95 0;
#X connect 8 0 6 0;
#X connect 9 0 0 0;
#X connect 11 0 10 0;
#X connect 12 0 13 0;
#X connect 13 0 14 0;
#X connect 14 0 15 0;
#X connect 15 0 23 0;
#X connect 16 0 97 0;
#X connect 17 0 23 1;
#X connect 18 0 17 0;
#X connect 19 0 18 0;
#X connect 21 0 97 1;
#X connect 22 0 96 0;
#X connect 23 0 22 0;
#X connect 24 0 25 0;
#X connect 25 0 26 0;
#X connect 26 0 27 0;
#X connect 27 0 23 1;
#X connect 28 0 29 0;
#X connect 29 0 24 0;
#X connect 30 0 97 1;
#X connect 31 0 97 1;
#X connect 32 0 0 0;
#X connect 32 1 0 1;
#X connect 33 0 38 1;
#X connect 34 0 39 0;
#X connect 35 0 33 1;
#X connect 36 0 48 0;
#X connect 37 0 49 0;
#X connect 38 0 37 0;
#X connect 39 0 33 0;
#X connect 40 0 35 0;
#X connect 41 0 42 0;
#X connect 42 0 40 0;
#X connect 48 0 38 0;
#X connect 51 0 58 0;
#X connect 52 0 56 0;
#X connect 53 0 60 0;
#X connect 54 0 60 1;
#X connect 55 0 57 0;
#X connect 56 0 50 0;
#X connect 57 0 51 0;
#X connect 58 0 52 0;
#X connect 59 0 54 0;
#X connect 60 0 55 0;
#X connect 60 0 59 0;
#X connect 62 0 64 0;
#X connect 64 0 75 0;
#X connect 65 0 83 0;
#X connect 66 0 74 0;
#X connect 67 0 66 0;
#X connect 68 0 77 0;
#X connect 69 0 76 0;
#X connect 70 0 67 0;
#X connect 72 0 68 0;
#X connect 73 0 69 0;
#X connect 74 0 65 1;
#X connect 75 0 65 2;
#X connect 76 0 74 1;
#X connect 77 0 74 2;
#X connect 81 0 83 1;
#X connect 82 0 83 1;
#X connect 83 0 80 0;
#X connect 83 0 80 1;
#X connect 84 0 3 0;
#X connect 85 0 88 0;
#X connect 90 0 91 0;
#X connect 91 0 89 0;
#X connect 92 0 83 1;
#X connect 94 0 6 0;
#X connect 95 0 8 0;
#X connect 96 0 4 0;
#X connect 97 0 12 0;
#X connect 102 0 105 0;
#X connect 105 0 104 0;
#X connect 105 0 4 0;
#X connect 105 1 99 0;
#X connect 106 0 107 0;
#X connect 109 0 0 0;
#X connect 111 0 113 0;
#X connect 113 0 0 0;
#X connect 114 0 115 0;
#X connect 115 0 116 0;
#X connect 116 0 111 0;
#X connect 117 0 115 0;
#X connect 118 0 117 0;
#X connect 119 0 141 0;
#X connect 121 0 141 0;
#X connect 124 0 141 0;
#X connect 125 0 141 0;
#X connect 130 0 141 0;
#X connect 131 0 141 0;
#X connect 132 0 141 0;
#X connect 133 0 119 0;
#X connect 134 0 121 0;
#X connect 135 0 124 0;
#X connect 136 0 125 0;
#X connect 137 0 130 0;
#X connect 138 0 131 0;
#X connect 139 0 145 0;
#X connect 140 0 132 0;
#X connect 141 0 4 0;
#X connect 142 0 133 0;
#X connect 142 0 134 0;
#X connect 142 0 135 0;
#X connect 142 0 136 0;
#X connect 142 0 137 0;
#X connect 142 0 138 0;
#X connect 142 0 139 0;
#X connect 142 0 140 0;
#X connect 145 0 141 0;
#X connect 146 0 148 0;
#X connect 147 0 142 0;
#X connect 148 0 147 0;
#X connect 149 0 148 1;
#X connect 149 0 146 0;
#X connect 150 0 83 1;
#X connect 151 0 149 0;
