#N canvas 40 23 1320 662 12;
#X declare -path else;
#X obj 111 219 vstplugin~;
#X msg -43 75 open -e ValhallaVintageVerb;
#X obj 372 187 *~ 0.75;
#X obj 368 131 *~;
#X floatatom 356 36 5 0 0 0 - - -;
#X floatatom 446 142 5 0 0 0 - - -;
#X obj 445 111 line;
#X obj 464 4 bng 15 250 50 0 empty empty empty 17 7 0 10 -262144 -1
-1;
#X msg 520 69 0 300;
#X msg -47 37 open -e /Library/Audio/Plug-Ins/VST3/DDSPEffect.vst3
;
#X obj 696 179 random 12;
#X floatatom 696 206 5 0 0 0 - - -;
#X obj 696 233 + 48;
#X floatatom 696 261 5 0 0 0 - - -;
#X obj 696 126 tgl 15 0 empty empty empty 17 7 0 10 -262144 -1 -1 0
1;
#X floatatom 737 263 5 0 0 0 - - -;
#X msg 740 239 50;
#X obj 746 211 loadbang;
#X text 726 125 stream 1 with pattern;
#X msg 774 154 100;
#X floatatom 693 318 5 0 0 0 - - -;
#X obj 696 287 expr 3*cos($f1) + (2*$f2)/2;
#X obj 904 170 random 12;
#X floatatom 904 197 5 0 0 0 - - -;
#X obj 904 224 + 48;
#X floatatom 904 252 5 0 0 0 - - -;
#X obj 904 117 tgl 15 0 empty empty empty 17 7 0 10 -262144 -1 -1 0
1;
#X obj 904 143 metro 40;
#X msg 814 156 500;
#X msg 796 181 40;
#N canvas 219 289 450 355 open 0;
#X obj 36 294 outlet~;
#X obj 91 294 outlet~;
#X obj 108 124 bng 15 250 50 0 empty empty file 17 7 0 10 -262144 -1
-1;
#X msg 36 64 symbol;
#X obj 36 40 loadbang;
#X obj 28 133 openpanel;
#X obj 108 145 bng 15 250 50 0 empty empty play 17 7 0 10 -4034 -1
-1;
#X obj 108 166 bng 15 250 50 0 empty empty stop 17 7 0 10 -258113 -1
-1;
#X obj 36 204 symbol;
#X obj 35 255 readsf~ 2;
#X obj 108 188 tgl 15 0 \$0-loop \$0-loop loop 17 7 0 10 -262144 -1
-1 0 1;
#X msg 120 227 0;
#X obj 112 256 spigot;
#X msg 35 227 open \$1 \, 1;
#X text 107 104 Player;
#X obj 148 235 r \$0-loop;
#X connect 2 0 5 0;
#X connect 4 0 3 0;
#X connect 5 0 8 1;
#X connect 6 0 8 0;
#X connect 7 0 11 0;
#X connect 8 0 13 0;
#X connect 9 0 0 0;
#X connect 9 1 1 0;
#X connect 9 2 12 0;
#X connect 11 0 9 0;
#X connect 12 0 8 0;
#X connect 13 0 9 0;
#X connect 15 0 12 1;
#X coords 0 -1 1 1 70 110 2 100 100;
#X restore 246 75 pd open;
#X obj 810 630 mtof;
#X floatatom 810 519 5 0 0 0 - - -;
#X obj 810 575 line;
#X obj 810 395 tgl 15 0 empty empty empty 17 7 0 10 -262144 -1 -1 0
1;
#X obj 837 419 + 500;
#X obj 810 470 bng 15 250 50 0 empty empty empty 17 7 0 10 -262144
-1 -1;
#X floatatom 810 601 5 0 0 0 - - -;
#X obj 810 494 random 127;
#X msg 810 547 \$1 1500;
#X obj 837 394 random 1500;
#X obj 810 447 metro 15000;
#X obj 744 47 declare -path else;
#X obj 136 428 dac~;
#X msg 166 342 0.5;
#X msg 230 396 0;
#X obj 136 399 *~ 0.5;
#X obj 364 74 osc~;
#X obj 537 309 *~ 0.75;
#X floatatom 531 179 5 0 0 0 - - -;
#X obj 539 217 osc~;
#X msg 220 365 0.2;
#X text 614 212 MAIN;
#X msg 443 27 1 500;
#X obj 522 33 del 500;
#X obj 691 350 * 5;
#X obj 696 152 metro 500;
#X obj 715 425 midi;
#X obj 718 480 bng 16 250 50 0 empty empty empty 0 -6 0 10 -228856
-1 -1;
#X text 739 481 <= when finished;
#X text 436 450 click to open file =>;
#X obj 589 420 tgl 17 0 empty empty empty 17 7 0 10 -228856 -1 -1 0
1;
#X text 612 421 Play/stop;
#X obj 589 480 print midi;
#X obj 589 451 else/midi midi-seq.mid;
#X floatatom 606 68 5 0 0 0 - - -;
#X obj 598 100 phasor~;
#X obj 429 387 sig~;
#X msg 37 101 param_list;
#X obj 183 275 print;
#X obj -29 243 hsl 128 15 0 1 0 0 empty empty empty -2 -8 0 10 -262144
-1 -1 0 1;
#X text 18 225 0-1;
#X msg -31 270 param_set 2 \$1;
#X obj -35 318 osc~ 0.25;
#X obj -28 447 snapshot~;
#X floatatom -28 477 6 0 0 0 - - -;
#X obj -3 389 metro 50;
#X obj 74 341 tgl 15 0 empty empty empty 17 7 0 10 -262144 -1 -1 0
1;
#X msg 850 362 60;
#X text 926 337 D;
#X msg 911 360 62;
#X text 991 337 E;
#X text 1044 336 F;
#X msg 973 361 64;
#X msg 1029 360 65;
#X text 1096 335 G;
#X text 1153 334 A;
#X text 1220 334 B;
#X text 1282 334 C;
#X msg 1081 359 67;
#X msg 1137 357 69;
#X msg 1268 357 72;
#X obj 850 304 sel 0;
#X obj 911 303 sel 1;
#X obj 973 302 sel 2;
#X obj 1029 300 sel 3;
#X obj 1081 300 sel 4;
#X obj 1137 299 sel 5;
#X obj 1204 299 sel 6;
#X obj 1268 300 sel 7;
#X floatatom 1059 394 5 0 0 0 - - -;
#X floatatom 1063 239 5 0 0 0 - - -;
#X text 862 337 C;
#X text 1114 240 C Major Scale (MIDI Note);
#X msg 1204 357 71;
#X obj 1068 147 tgl 15 0 empty empty empty 17 7 0 10 -262144 -1 -1
0 1;
#X obj 1068 200 random 8;
#X obj 1067 173 metro 1000;
#X floatatom 1138 144 5 0 0 0 - - -;
#X msg 229 431 1;
#X msg 1164 170 300;
#X text 1194 149 trumpet;
#X obj 62 10 loadbang;
#X connect 0 0 46 0;
#X connect 0 1 46 0;
#X connect 0 2 69 0;
#X connect 1 0 0 0;
#X connect 2 0 0 0;
#X connect 2 0 0 1;
#X connect 3 0 2 0;
#X connect 4 0 7 0;
#X connect 4 0 47 0;
#X connect 5 0 3 1;
#X connect 6 0 5 0;
#X connect 7 0 53 0;
#X connect 7 0 54 0;
#X connect 8 0 6 0;
#X connect 9 0 0 0;
#X connect 10 0 11 0;
#X connect 11 0 12 0;
#X connect 12 0 13 0;
#X connect 13 0 21 0;
#X connect 14 0 56 0;
#X connect 15 0 21 1;
#X connect 16 0 15 0;
#X connect 17 0 16 0;
#X connect 19 0 56 1;
#X connect 20 0 55 0;
#X connect 21 0 20 0;
#X connect 22 0 23 0;
#X connect 23 0 24 0;
#X connect 24 0 25 0;
#X connect 25 0 21 1;
#X connect 26 0 27 0;
#X connect 27 0 22 0;
#X connect 28 0 56 1;
#X connect 29 0 56 1;
#X connect 30 0 0 0;
#X connect 30 1 0 1;
#X connect 32 0 39 0;
#X connect 33 0 37 0;
#X connect 34 0 41 0;
#X connect 35 0 41 1;
#X connect 36 0 38 0;
#X connect 37 0 31 0;
#X connect 38 0 32 0;
#X connect 39 0 33 0;
#X connect 40 0 35 0;
#X connect 41 0 36 0;
#X connect 41 0 40 0;
#X connect 44 0 46 1;
#X connect 45 0 46 1;
#X connect 46 0 43 0;
#X connect 46 0 43 1;
#X connect 47 0 3 0;
#X connect 49 0 50 0;
#X connect 50 0 48 0;
#X connect 51 0 46 1;
#X connect 53 0 6 0;
#X connect 54 0 8 0;
#X connect 55 0 4 0;
#X connect 56 0 10 0;
#X connect 61 0 64 0;
#X connect 64 0 63 0;
#X connect 64 0 4 0;
#X connect 64 1 58 0;
#X connect 65 0 66 0;
#X connect 68 0 0 0;
#X connect 70 0 72 0;
#X connect 72 0 0 0;
#X connect 73 0 74 0;
#X connect 74 0 75 0;
#X connect 75 0 70 0;
#X connect 76 0 74 0;
#X connect 77 0 76 0;
#X connect 78 0 100 0;
#X connect 80 0 100 0;
#X connect 83 0 100 0;
#X connect 84 0 100 0;
#X connect 89 0 100 0;
#X connect 90 0 100 0;
#X connect 91 0 100 0;
#X connect 92 0 78 0;
#X connect 93 0 80 0;
#X connect 94 0 83 0;
#X connect 95 0 84 0;
#X connect 96 0 89 0;
#X connect 97 0 90 0;
#X connect 98 0 104 0;
#X connect 99 0 91 0;
#X connect 100 0 4 0;
#X connect 101 0 92 0;
#X connect 101 0 93 0;
#X connect 101 0 94 0;
#X connect 101 0 95 0;
#X connect 101 0 96 0;
#X connect 101 0 97 0;
#X connect 101 0 98 0;
#X connect 101 0 99 0;
#X connect 104 0 100 0;
#X connect 105 0 107 0;
#X connect 106 0 101 0;
#X connect 107 0 106 0;
#X connect 108 0 107 1;
#X connect 108 0 105 0;
#X connect 109 0 46 1;
#X connect 110 0 108 0;
#X connect 112 0 9 0;
