#N canvas 171 23 1189 640 12;
#X declare -lib else;
#X declare -lib else -path else;
#X obj 111 219 vstplugin~;
#X msg 70 76 open -e ValhallaVintageVerb;
#X obj 348 182 *~ 0.75;
#X obj 344 126 *~;
#X floatatom 337 33 5 0 0 0 - - - 0;
#X floatatom 446 142 5 0 0 0 - - - 0;
#X obj 445 111 line;
#X obj 464 4 bng 15 250 50 0 empty empty empty 17 7 0 10 #fcfcfc #000000
#000000;
#X msg 520 69 0 300;
#X msg -38 127 open -e /Library/Audio/Plug-Ins/VST3/DDSPEffect.vst3
;
#X floatatom 242 243 5 0 0 0 - - - 0;
#X obj 696 179 random 12;
#X floatatom 696 206 5 0 0 0 - - - 0;
#X obj 696 233 + 48;
#X floatatom 696 261 5 0 0 0 - - - 0;
#X obj 696 126 tgl 15 0 empty empty empty 17 7 0 10 #fcfcfc #000000
#000000 0 1;
#X floatatom 737 263 5 0 0 0 - - - 0;
#X msg 740 239 50;
#X obj 746 211 loadbang;
#X text 726 125 stream 1 with pattern;
#X msg 774 154 100;
#X floatatom 693 318 5 0 0 0 - - - 0;
#X obj 696 287 expr 3*cos($f1) + (2*$f2)/2;
#X obj 904 170 random 12;
#X floatatom 904 197 5 0 0 0 - - - 0;
#X obj 904 224 + 48;
#X floatatom 904 252 5 0 0 0 - - - 0;
#X obj 904 117 tgl 15 0 empty empty empty 17 7 0 10 #fcfcfc #000000
#000000 0 1;
#X obj 904 143 metro 40;
#X msg 814 156 500;
#X msg 796 181 40;
#N canvas 219 289 450 355 open 0;
#X obj 36 294 outlet~;
#X obj 91 294 outlet~;
#X obj 108 124 bng 15 250 50 0 empty empty file 17 7 0 10 #fcfcfc #000000
#000000;
#X msg 36 64 symbol;
#X obj 36 40 loadbang;
#X obj 28 133 openpanel;
#X obj 108 145 bng 15 250 50 0 empty empty play 17 7 0 10 #00fc04 #000000
#000000;
#X obj 108 166 bng 15 250 50 0 empty empty stop 17 7 0 10 #fc0400 #000000
#000000;
#X obj 36 204 symbol;
#X obj 35 255 readsf~ 2;
#X obj 108 188 tgl 15 0 \$0-loop \$0-loop loop 17 7 0 10 #fcfcfc #000000
#000000 0 1;
#X msg 120 227 0;
#X obj 112 256 spigot;
#X msg 35 227 open \$1 \, 1;
#X text 107 104 Player;
#X obj 148 235 r \$0-loop;
#X connect 2 0 5 0;
#X connect 4 0 3 0;
#X connect 5 0 8 1;
#X connect 6 0 8 0;
#X connect 7 0 11 0;
#X connect 8 0 13 0;
#X connect 9 0 0 0;
#X connect 9 1 1 0;
#X connect 9 2 12 0;
#X connect 11 0 9 0;
#X connect 12 0 8 0;
#X connect 13 0 9 0;
#X connect 15 0 12 1;
#X coords 0 -1 1 1 70 110 2 100 100;
#X restore 969 21 pd open;
#X obj 525 581 hsl 128 15 -0.999 0.999 0 0 empty feedback empty -2
-6 0 8 #dcdcdc #000000 #000000 0 1;
#X text 563 604 feedback;
#X floatatom 522 603 0 0 0 0 - - - 0;
#X obj 290 528 osc~ 0.1;
#X floatatom 290 494 5 0 0 0 - - - 0;
#X floatatom 437 574 5 0 1000 0 - - - 0;
#X floatatom 371 522 5 1 100 0 - - - 0;
#X obj 293 472 hsl 128 15 0.01 3 1 0 empty rate empty -2 -8 0 10 #dcdcdc
#000000 #000000 0 1;
#X text 255 495 rate;
#X obj 440 551 hsl 128 15 60 200 1 0 empty depth empty -2 -8 0 10 #dcdcdc
#000000 #000000 0 1;
#X obj 374 498 hsl 128 15 0 50 0 0 empty delay empty -2 -8 0 10 #dcdcdc
#000000 #000000 0 1;
#X obj 345 609 rescale~;
#X obj 522 626 f2s~ 10;
#X obj 371 546 f2s~ 10;
#X obj 437 597 f2s~ 10;
#X text 411 521 delay min.;
#X text 479 573 max;
#X obj 298 765 dac~;
#X msg 381 680 0.5;
#X msg 383 723 0;
#X obj 298 736 *~ 0.5;
#X obj 340 69 osc~;
#X obj 52 721 loadbang;
#X msg 125 543 \; rate 0.2 \; depth 100 \; delay 20 \; feedback 0.85
;
#X msg 125 628 \; rate 0.1 \; depth 30 \; delay 10 \; feedback -0.75
;
#X msg 125 713 \; rate 0.05 \; depth 15 \; delay 5 \; feedback 0.91
;
#X msg 382 702 0.2;
#X msg 443 27 1 500;
#X obj 522 33 del 500;
#X obj 691 350 * 5;
#X obj 696 152 metro 500;
#X obj 718 480 bng 16 250 50 0 empty empty empty 0 -6 0 10 #dcdcdc
#000000 #000000;
#X text 739 481 <= when finished;
#X text 436 450 click to open file =>;
#X obj 589 420 tgl 17 0 empty empty empty 17 7 0 10 #dcdcdc #000000
#000000 0 1;
#X text 612 421 Play/stop;
#X obj 589 480 print midi;
#X obj 589 451 else/midi midi-seq.mid;
#X floatatom 606 68 5 0 0 0 - - - 0;
#X obj 598 100 phasor~;
#X obj 422 323 sig~;
#X obj 665 17 declare -lib else;
#X obj 682 81 declare -lib else -path else;
#X obj 284 655 else/fbdelay~ 100 2000;
#X obj -36 92 loadbang;
#X connect 0 0 75 0;
#X connect 0 1 75 0;
#X connect 1 0 0 0;
#X connect 2 0 0 0;
#X connect 2 0 0 1;
#X connect 3 0 2 0;
#X connect 4 0 7 0;
#X connect 4 0 53 0;
#X connect 5 0 3 1;
#X connect 6 0 5 0;
#X connect 7 0 59 0;
#X connect 7 0 60 0;
#X connect 8 0 6 0;
#X connect 9 0 0 0;
#X connect 11 0 12 0;
#X connect 12 0 13 0;
#X connect 13 0 14 0;
#X connect 14 0 22 0;
#X connect 15 0 62 0;
#X connect 16 0 22 1;
#X connect 17 0 16 0;
#X connect 18 0 17 0;
#X connect 20 0 62 1;
#X connect 21 0 61 0;
#X connect 22 0 21 0;
#X connect 23 0 24 0;
#X connect 24 0 25 0;
#X connect 25 0 26 0;
#X connect 26 0 22 1;
#X connect 27 0 28 0;
#X connect 28 0 23 0;
#X connect 29 0 62 1;
#X connect 30 0 62 1;
#X connect 32 0 34 0;
#X connect 34 0 44 0;
#X connect 35 0 43 0;
#X connect 36 0 35 0;
#X connect 37 0 46 0;
#X connect 38 0 45 0;
#X connect 39 0 36 0;
#X connect 41 0 37 0;
#X connect 42 0 38 0;
#X connect 43 0 75 1;
#X connect 44 0 75 2;
#X connect 45 0 43 1;
#X connect 46 0 43 2;
#X connect 50 0 52 1;
#X connect 51 0 52 1;
#X connect 52 0 49 0;
#X connect 52 0 49 1;
#X connect 53 0 3 0;
#X connect 54 0 57 0;
#X connect 58 0 52 1;
#X connect 59 0 6 0;
#X connect 60 0 8 0;
#X connect 61 0 4 0;
#X connect 62 0 11 0;
#X connect 66 0 69 0;
#X connect 69 0 68 0;
#X connect 69 0 72 0;
#X connect 69 1 63 0;
#X connect 70 0 71 0;
#X connect 72 0 0 0;
#X connect 72 0 0 1;
#X connect 75 0 52 0;
#X connect 76 0 9 0;
