#N canvas 296 220 916 567 10;
#X obj 283 425 dac~;
#X obj 46 214 grannie-basher;
#X obj 565 63 noise~;
#X obj 455 93 adc~;
#X obj 578 128 fiddle~;
#X floatatom 626 193 5 0 0 0 - - -;
#X floatatom 675 156 5 0 0 0 - - -;
#X floatatom 645 237 5 0 0 0 - - -;
#X floatatom 612 295 5 0 0 0 - - -;
#X obj 607 243 * 10;
#X msg 548 178;
#X floatatom 588 172 5 0 0 0 - - -;
#X connect 1 0 0 0;
#X connect 1 1 0 1;
#X connect 3 0 4 0;
#X connect 3 1 4 0;
#X connect 4 2 11 0;
#X connect 4 3 6 0;
#X connect 5 0 9 0;
#X connect 6 0 9 0;
#X connect 7 0 9 1;
#X connect 8 0 1 0;
#X connect 8 0 1 1;
#X connect 9 0 8 0;
#X coords 0 0 1 1 400 140 0;
