#N canvas 198 58 1701 964 12;
#X obj 323 354 print done;
#X obj 216 318 textfile;
#X obj 241 354 print list;
#X msg 391 289 print;
#X floatatom 214 420 5 0 0 0 - - -;
#X msg 502 207 bang;
#X obj 213 491 int;
#X obj 212 682 makenote 127 800;
#X floatatom 214 708 5 0 0 0 - - -;
#X floatatom 283 707 5 0 0 0 - - -;
#X floatatom 213 633 5 0 0 0 - - -;
#X floatatom 278 633 5 0 0 0 - - -;
#X text 212 649 pitch;
#X text 323 636 velocity;
#X obj 231 735 noteout 1;
#X floatatom 572 112 4 0 0 0 - - -;
#X obj 503 161 bng 25 250 50 0 empty empty empty 17 7 0 10 -262144
-1 -1;
#X obj 503 101 tgl 15 0 empty empty empty 17 7 0 10 -262144 -1 -1 1
1;
#X obj 1146 326 textfile;
#X floatatom 1108 372 5 0 0 0 - - -;
#X floatatom 213 522 5 0 0 0 - - -;
#X obj 213 459 / 6;
#X text 1131 96 maybe use temp temperature as velocity;
#X obj 1142 437 int;
#X floatatom 1138 472 5 0 0 0 - - -;
#X text 1205 404 < callibrate means change number to 0 -127;
#X text 277 461 < callibrate;
#X text 1165 505 connnect to velocity?;
#X text 530 96 play;
#X msg 621 97 120;
#X msg 622 118 240;
#X msg 622 144 500;
#X msg 623 170 90;
#X text 434 20 < CLICK to upload txt;
#X msg 221 20 read moist2.txt cr \, rewind;
#X msg 1121 230 read temperature.txt cr \, rewind;
#X text 1127 139 generaly: copy from csv column and save it as tx;
#X obj 1145 405 * 42;
#X floatatom 374 664 0 0 0 0 - - -;
#X text 409 667 duration in milliseconds;
#X obj 963 453 int;
#X floatatom 959 488 5 0 0 0 - - -;
#X obj 966 421 * 6;
#X obj 503 135 metro 120;
#X obj 221 -3 loadbang;
#X obj 1121 207 loadbang;
#X connect 1 0 2 0;
#X connect 1 0 4 0;
#X connect 1 1 0 0;
#X connect 3 0 1 0;
#X connect 4 0 21 0;
#X connect 5 0 1 0;
#X connect 5 0 18 0;
#X connect 6 0 20 0;
#X connect 7 0 8 0;
#X connect 7 1 9 0;
#X connect 8 0 14 0;
#X connect 9 0 14 1;
#X connect 10 0 7 0;
#X connect 11 0 7 1;
#X connect 15 0 17 0;
#X connect 15 0 43 1;
#X connect 16 0 5 0;
#X connect 17 0 43 0;
#X connect 18 0 19 0;
#X connect 19 0 37 0;
#X connect 19 0 42 0;
#X connect 20 0 10 0;
#X connect 21 0 6 0;
#X connect 23 0 24 0;
#X connect 24 0 38 0;
#X connect 29 0 15 0;
#X connect 30 0 15 0;
#X connect 31 0 15 0;
#X connect 32 0 15 0;
#X connect 34 0 1 0;
#X connect 35 0 18 0;
#X connect 37 0 23 0;
#X connect 38 0 7 2;
#X connect 40 0 41 0;
#X connect 41 0 11 0;
#X connect 42 0 40 0;
#X connect 43 0 16 0;
#X connect 44 0 34 0;
#X connect 45 0 35 0;
