#N canvas 82 23 1295 697 10;
#X floatatom 176 49 5 0 0 0 - - -;
#X floatatom 262 52 5 0 0 0 - - -;
#X msg 31 106 stop;
#X msg 70 48 start;
#X floatatom 504 37 5 0 0 0 - - -;
#X obj 128 -31 bng 15 250 50 0 empty empty empty 20 8 0 8 -262144 -1
-1;
#X obj 128 251 /~ 20;
#X obj 234 248 /~ 20;
#X obj 340 247 /~ 20;
#X obj 14 75 loadbang;
#N canvas 0 22 450 300 (subpatch) 0;
#X array had1a 64 float 0;
#X coords 0 1 63 -1 200 140 1 0 0;
#X restore 73 447 graph;
#N canvas 0 22 450 300 (subpatch) 0;
#X array had2a 64 float 0;
#X coords 0 1 63 -1 200 140 1 0 0;
#X restore 331 445 graph;
#N canvas 0 22 450 300 (subpatch) 0;
#X array had3a 64 float 0;
#X coords 0 1 63 -1 200 140 1 0 0;
#X restore 592 446 graph;
#X text 301 325 You can see the graphs if you scroll down;
#X text 301 338 but the redrawings may cause clicks in the audio;
#X obj 713 381 /~;
#X obj 755 382 /~;
#X obj 801 381 /~;
#X floatatom 816 299 5 0 0 0 - - -;
#X floatatom 733 301 5 0 0 0 - - -;
#X obj 907 359 hsl 128 15 -20 120 0 0 empty empty empty -2 -8 0 10
-262144 -1 -1 3629 1;
#X floatatom 776 303 5 0 0 0 - - -;
#X obj 780 247 hsl 128 15 -10 100 0 0 empty empty empty -2 -8 0 10
-262144 -1 -1 1155 1;
#X floatatom 914 408 5 0 0 0 - - -;
#X obj 16 -2 metro 50;
#X obj 18 -28 tgl 15 0 empty empty empty 20 8 0 8 -262144 -1 -1 45
100;
#X floatatom 69 -29 5 0 0 0 - - -;
#X msg 36 -66 0;
#X obj 713 347 +~;
#X obj 755 345 +~;
#X obj 799 344 +~;
#X msg 837 179 10;
#X text 980 -50 << UWAGA SUPRADYNAMIC;
#X msg 32 -140 100;
#X msg -19 -69 1000;
#X msg 109 -65 25;
#X floatatom 1021 227 5 0 0 0 - - -;
#X obj 334 -50 line;
#X msg -17 -25 10000;
#X text 959 340 -20 do 20;
#X text 57 -142 < UWAGA WAZNE!!!;
#X msg 740 202 0;
#X msg -10 -157 28;
#X floatatom 846 215 5 0 0 0 - - -;
#X obj 740 174 loadbang;
#X text 954 412 << delikatnie zmieniaj z SHIFTEM;
#X msg 934 486 0.12;
#X msg 1011 452 0.22;
#X text 1087 463 << SUPRAdzwiek;
#X msg 1019 491 0.5;
#X msg 912 461 0.01;
#X obj 1146 137 loadbang;
#X floatatom 195 277 5 0 0 0 - - -;
#X floatatom 221 51 5 0 0 0 - - -;
#X floatatom 311 52 5 0 0 0 - - -;
#X text 315 380 a=3 \, b=2.7 \, c=1.7 \, d=2 \, e=9;
#X msg 160 278 1;
#X obj 602 -18 hsl 254 15 0 0.1 0 0 empty empty empty -2 -8 0 10 -262144
-1 -1 1265 0;
#X obj 1052 -76 line;
#X obj 714 -121 line;
#X obj 117 356 loadbang;
#X obj 176 -27 loadbang;
#X msg 1088 177 8;
#X msg 1117 118 7;
#X msg 1113 91 6;
#X obj 500 -124 loadbang;
#X floatatom 567 -47 5 0 0 0 - - -;
#X msg 133 -93 45;
#X msg 867 -49 0.0816;
#X msg 923 -43 0.096;
#X obj 929 -78 line;
#X msg 137 -161 74;
#X obj 252 -104 line;
#X msg 169 -143 28;
#X obj 57 -162 loadbang;
#X msg 649 -69 0.004;
#X obj 208 -131 line;
#X msg 682 -73 0.008;
#X msg 214 357 -15;
#X text 301 -154 < UWAGA;
#X msg 128 146 set 0.1 0 0;
#X obj 295 -75 line;
#X obj 375 -24 line;
#X text 461 -50 <UWAGA!;
#X obj 953 -129 line;
#X text 158 -96 <dron;
#X msg 177 24 0.2;
#X msg 221 24 4;
#X msg 262 24 8;
#X msg 311 25 1;
#X msg 529 -88 0.005;
#X msg 584 25 0.005;
#X msg 333 -74 0.1 \, 1 10000;
#X msg 788 -68 0.053;
#X msg 852 -76 0.056;
#X msg 825 -108 0.077;
#X msg 872 -110 0.094;
#X obj 695 84 hsl 128 15 0.077 0.094 0 0 empty empty empty -2 -8 0
10 -262144 -1 -1 0 1;
#X obj 692 59 line;
#X text 139 -66 <MainDRON!;
#X text 832 -147 <POCZATEK!!!SUPER!!;
#X msg 929 -104 0.002 \, 0.053 10000;
#X text 426 -75 <UWAGA!!!!!!;
#X text 331 -127 <UWAGAsuper!;
#X msg 106 -112 4;
#X msg 84 -130 25;
#X floatatom 692 105 5 0 0 0 - - -;
#X msg 321 -102 8.3 \, 8 10000;
#X text 809 32 <SUPER HIGH!!!!!;
#X obj 502 157 line;
#X msg 502 131 0.077 \, 0.094 20000;
#X text 619 130 <SUPER HIGH SSzybko!!!!!;
#X msg 1052 -98 0.002 \, 0.053 10000;
#X text 1073 -158 <poczatek SZYBKIE 20tys;
#X text 1163 -97 <SZYBKIE 10tys;
#X obj 522 668 clip~ -3 3;
#X obj 380 668 clip~ -3 3;
#X obj 238 671 clip~ -3 3;
#X floatatom 718 671 5 0 0 0 - - -;
#X obj 718 689 hsl 128 15 0 1 0 0 empty empty empty -2 -8 0 10 -262144
-1 -1 0 1;
#X text 807 667 0 <-> 1;
#X msg 775 641 0.5;
#X msg 737 646 1;
#X obj 751 602 loadbang;
#X obj 820 742 line;
#X msg 820 716 0 \, 1 5000;
#X msg 705 657 0;
#X msg 810 633 0.968;
#X floatatom 915 696 5 0 0 0 - - -;
#X obj 915 572 tgl 15 0 empty empty empty 17 7 0 10 -262144 -1 -1 0
500;
#X obj 915 647 bng 15 250 50 0 empty empty empty 17 7 0 10 -262144
-1 -1;
#X obj 915 671 random 2;
#X obj 915 746 line;
#X floatatom 916 773 5 0 0 0 - - -;
#X floatatom 985 601 5 0 0 0 - - -;
#X msg 984 568 200;
#X msg 946 562 500;
#X msg 915 718 \$1 1500;
#X obj 915 624 metro 500;
#X obj 238 611 expr~ ($v1)/sqrt(1-$v4*pow(($v2) \, 2)-$v4*pow(($v3)
\, 2)) \; ($v2)/sqrt(1-$v4*pow(($v1) \, 2)-$v4*pow(($v3) \, 2)) \;
($v3)/sqrt(1-$v4*pow(($v1) \, 2)-$v4*pow(($v2) \, 2));
#X msg 991 531 1000;
#X obj -9 27 hsl 128 15 25 100 0 0 empty empty empty -2 -8 0 10 -262144
-1 -1 0 1;
#X obj 376 36 r~ pulse01;
#X obj 404 84 r~ pulse02;
#X obj 713 413 s~ o01;
#X obj 753 413 s~ o02;
#X obj 799 413 s~ o03;
#X text 411 -101 <UWAGA_SUPER!!!!!;
#X text 492 4 <CLICK!!!;
#X msg 714 -147 0.002 \, 0.053 30000;
#X obj 504 66 v dt2;
#X msg 1149 202 20;
#X obj 176 80 v a2;
#X obj 221 81 v b2;
#X obj 262 81 v f2;
#X obj 312 83 v g2;
#X obj 127 186 fexpr~ $y1+(-1*pow($y2 \, 2) - pow($y3 \, 2) - a2*$y1
+ a2*f2)*dt2 \; $y2 +($y1*$y2 - b2*$y1*$y3 - $y2 + g2)*dt2 \; $y3+(b2*$y1*$y2
+ $y1*$y3 - $y3)*dt2;
#X obj 128 308 tabsend~ had1a;
#X obj 234 288 tabsend~ had2a;
#X obj 345 301 tabsend~ had3a;
#X msg 449 3 0.036;
#X msg 454 39 0.096;
#X msg 374 -48 0.25 \, 1 30000;
#X msg 692 33 0.077 \, 0.094 50000;
#X msg 252 -125 8 \, 4 30000;
#X msg 175 -112 1000;
#X msg 543 -141 0.0005;
#X msg 601 -141 0.0004;
#X msg 658 -141 0.0008;
#X msg 1104 228 24;
#X msg 1140 240 30;
#X msg 672 -112 0.001;
#X text -12 -144 <dron;
#X msg 51 -117 180;
#X msg 953 -155 0.0002 \, 0.0053 20000;
#X obj 601 -113 loadbang;
#X msg 208 -152 0.75 \, 0.2 20000;
#X floatatom 721 713 5 0 0 0 - - -;
#X msg 759 623 0.2;
#X msg 728 -83 0.01;
#X obj 824 537 dac~;
#X obj 815 497 *~ 0.5;
#X msg 863 479 0;
#X msg 894 479 1;
#X connect 0 0 152 0;
#X connect 1 0 154 0;
#X connect 2 0 156 0;
#X connect 3 0 156 0;
#X connect 4 0 150 0;
#X connect 5 0 3 0;
#X connect 5 0 80 0;
#X connect 6 0 157 0;
#X connect 7 0 158 0;
#X connect 8 0 159 0;
#X connect 9 0 2 0;
#X connect 15 0 144 0;
#X connect 15 0 181 0;
#X connect 16 0 145 0;
#X connect 16 0 181 0;
#X connect 17 0 146 0;
#X connect 17 0 181 0;
#X connect 18 0 30 1;
#X connect 19 0 28 1;
#X connect 20 0 23 0;
#X connect 21 0 29 1;
#X connect 22 0 19 0;
#X connect 22 0 21 0;
#X connect 22 0 18 0;
#X connect 23 0 17 1;
#X connect 23 0 16 1;
#X connect 23 0 15 1;
#X connect 24 0 5 0;
#X connect 25 0 24 0;
#X connect 26 0 24 1;
#X connect 27 0 26 0;
#X connect 27 0 25 0;
#X connect 28 0 15 0;
#X connect 29 0 16 0;
#X connect 30 0 17 0;
#X connect 31 0 43 0;
#X connect 33 0 26 0;
#X connect 33 0 25 0;
#X connect 34 0 26 0;
#X connect 34 0 25 0;
#X connect 35 0 26 0;
#X connect 35 0 25 0;
#X connect 36 0 20 0;
#X connect 37 0 54 0;
#X connect 38 0 26 0;
#X connect 38 0 25 0;
#X connect 41 0 22 0;
#X connect 42 0 26 0;
#X connect 42 0 25 0;
#X connect 43 0 22 0;
#X connect 44 0 41 0;
#X connect 46 0 23 0;
#X connect 47 0 23 0;
#X connect 49 0 23 0;
#X connect 50 0 23 0;
#X connect 51 0 151 0;
#X connect 52 0 6 1;
#X connect 52 0 7 1;
#X connect 52 0 8 1;
#X connect 53 0 153 0;
#X connect 54 0 155 0;
#X connect 56 0 52 0;
#X connect 57 0 4 0;
#X connect 58 0 57 0;
#X connect 59 0 57 0;
#X connect 60 0 78 0;
#X connect 61 0 86 0;
#X connect 61 0 87 0;
#X connect 61 0 88 0;
#X connect 61 0 89 0;
#X connect 62 0 36 0;
#X connect 63 0 36 0;
#X connect 64 0 36 0;
#X connect 65 0 90 0;
#X connect 66 0 57 0;
#X connect 67 0 26 0;
#X connect 67 0 25 0;
#X connect 68 0 57 0;
#X connect 69 0 57 0;
#X connect 70 0 57 0;
#X connect 71 0 26 0;
#X connect 71 0 25 0;
#X connect 72 0 53 0;
#X connect 73 0 26 0;
#X connect 73 0 25 0;
#X connect 74 0 33 0;
#X connect 75 0 57 0;
#X connect 76 0 0 0;
#X connect 77 0 57 0;
#X connect 78 0 52 0;
#X connect 80 0 156 0;
#X connect 81 0 1 0;
#X connect 82 0 54 0;
#X connect 84 0 57 0;
#X connect 86 0 0 0;
#X connect 87 0 53 0;
#X connect 88 0 1 0;
#X connect 89 0 54 0;
#X connect 90 0 66 0;
#X connect 91 0 4 0;
#X connect 92 0 37 0;
#X connect 93 0 57 0;
#X connect 94 0 57 0;
#X connect 95 0 57 0;
#X connect 96 0 57 0;
#X connect 97 0 57 0;
#X connect 97 0 106 0;
#X connect 98 0 97 0;
#X connect 101 0 70 0;
#X connect 104 0 26 0;
#X connect 104 0 25 0;
#X connect 105 0 25 0;
#X connect 105 0 26 0;
#X connect 107 0 81 0;
#X connect 109 0 97 0;
#X connect 110 0 109 0;
#X connect 112 0 58 0;
#X connect 115 0 30 0;
#X connect 116 0 29 0;
#X connect 117 0 28 0;
#X connect 119 0 139 3;
#X connect 119 0 177 0;
#X connect 121 0 119 0;
#X connect 122 0 119 0;
#X connect 123 0 126 0;
#X connect 124 0 119 0;
#X connect 125 0 124 0;
#X connect 126 0 119 0;
#X connect 127 0 119 0;
#X connect 128 0 137 0;
#X connect 129 0 138 0;
#X connect 130 0 131 0;
#X connect 131 0 128 0;
#X connect 132 0 133 0;
#X connect 133 0 119 0;
#X connect 134 0 138 1;
#X connect 135 0 134 0;
#X connect 135 0 129 0;
#X connect 136 0 134 0;
#X connect 136 0 129 0;
#X connect 137 0 132 0;
#X connect 138 0 130 0;
#X connect 139 0 117 0;
#X connect 139 1 116 0;
#X connect 139 2 115 0;
#X connect 140 0 134 0;
#X connect 140 0 129 0;
#X connect 141 0 26 0;
#X connect 141 0 25 0;
#X connect 142 0 156 0;
#X connect 149 0 59 0;
#X connect 151 0 36 0;
#X connect 156 0 6 0;
#X connect 156 0 139 0;
#X connect 156 1 7 0;
#X connect 156 1 139 1;
#X connect 156 2 8 0;
#X connect 156 2 139 2;
#X connect 160 0 4 0;
#X connect 161 0 4 0;
#X connect 162 0 82 0;
#X connect 163 0 98 0;
#X connect 164 0 72 0;
#X connect 165 0 26 0;
#X connect 165 0 38 0;
#X connect 166 0 57 0;
#X connect 167 0 57 0;
#X connect 168 0 57 0;
#X connect 169 0 36 0;
#X connect 170 0 36 0;
#X connect 171 0 57 0;
#X connect 173 0 26 0;
#X connect 173 0 25 0;
#X connect 174 0 84 0;
#X connect 176 0 76 0;
#X connect 178 0 119 0;
#X connect 179 0 57 0;
#X connect 181 0 180 0;
#X connect 181 0 180 1;
#X connect 182 0 181 1;
#X connect 183 0 181 1;
