#N canvas 114 133 1280 697 10;
#X obj 221 81 v b;
#X floatatom 176 48 5 0 0 0 - - -;
#X floatatom 262 53 5 0 0 0 - - -;
#X msg 31 106 stop;
#X msg 75 77 start;
#X floatatom 504 37 5 0 0 0 - - -;
#X obj 128 -31 bng 15 250 50 0 empty empty empty 20 8 0 8 -262144 -1
-1;
#X text 548 42 <- experiment with these numbers;
#X text 553 74 if you hear a buzz \, you have probably gone unstable
bang on the top again;
#X obj 128 251 /~ 20;
#X obj 234 248 /~ 20;
#X obj 340 247 /~ 20;
#X obj 14 75 loadbang;
#X text 248 146 the 'set' commands sets the initial previous values
;
#N canvas 0 22 450 300 (subpatch) 0;
#X array four1a 64 float 0;
#X coords 0 1 63 -1 200 140 1;
#X restore 73 447 graph;
#N canvas 0 22 450 300 (subpatch) 0;
#X array four2a 64 float 0;
#X coords 0 1 63 -1 200 140 1;
#X restore 331 445 graph;
#N canvas 0 22 450 300 (subpatch) 0;
#X array four3a 64 float 0;
#X coords 0 1 63 -1 200 140 1;
#X restore 592 446 graph;
#X text 301 325 You can see the graphs if you scroll down;
#X text 301 338 but the redrawings may cause clicks in the audio;
#X obj 713 381 /~;
#X obj 755 382 /~;
#X obj 799 381 /~;
#X floatatom 816 299 5 0 0 0 - - -;
#X floatatom 733 301 5 0 0 0 - - -;
#X obj 907 359 hsl 128 15 -20 1220 0 0 empty empty empty -2 -8 0 10
-262144 -1 -1 481 1;
#X floatatom 776 303 5 0 0 0 - - -;
#X obj 780 247 hsl 128 15 -10 100 0 0 empty empty empty -2 -8 0 10
-262144 -1 -1 1155 1;
#X floatatom 914 408 5 0 0 0 - - -;
#X obj 16 -2 metro 50;
#X obj 18 -28 tgl 15 0 empty empty empty 20 8 0 8 -262144 -1 -1 50
36;
#X floatatom 69 -29 5 0 0 0 - - -;
#X msg 71 -70 1;
#X msg 36 -66 0;
#X obj 713 347 +~;
#X obj 755 345 +~;
#X obj 799 344 +~;
#X msg 837 179 10;
#X msg 947 282 5;
#X msg 950 167 1.496;
#X text 980 -50 << UWAGA SUPRADYNAMIC;
#X msg -22 -109 100;
#X msg -19 -69 1000;
#X msg 1007 158 -1.496;
#X msg 109 -65 25;
#X floatatom 1021 227 5 0 0 0 - - -;
#X obj 947 107 hsl 128 15 -2 1 0 0 empty empty empty -2 -8 0 10 -262144
-1 -1 0 1;
#X floatatom 943 130 5 0 0 0 - - -;
#X obj 367 -1 line;
#X obj 250 -105 line;
#X msg 1068 368 0.5;
#X msg -17 -25 10000;
#X text 959 340 -20 do 20;
#X msg 999 291 -4;
#X text 7 -108 < UWAGA WAZNE!!!;
#X text 1105 325 << SUPRAdzwiek;
#X msg 905 168 -1;
#X msg 179 -122 120;
#X msg 740 171 0;
#X text 989 85 -2 do 1;
#X obj 498 -130 hsl 534 15 0 12700 0 0 empty empty empty -2 -8 0 10
-262144 -1 -1 0 1;
#X floatatom 502 -107 5 0 0 0 - - -;
#X msg 19 -131 28;
#X floatatom 846 215 5 0 0 0 - - -;
#X obj 740 143 loadbang;
#X msg 1061 327 -0.5;
#X text 954 412 << delikatnie zmieniaj z SHIFTEM;
#X msg 934 486 0.12;
#X msg 1011 452 0.22;
#X text 1087 463 << SUPRAdzwiek;
#X msg 1019 491 0.5;
#X msg 912 461 0.01;
#X obj 1182 148 loadbang;
#X text 735 32 comment;
#X floatatom 195 277 5 0 0 0 - - -;
#X msg 314 171 set 1.2 2.3 4.4;
#X obj 176 79 v a;
#X obj 262 82 v c;
#X floatatom 221 51 5 0 0 0 - - -;
#X text 447 117 c+(a*$y3)-(($y3*$y3*$y3)/3)-($y1*$y1)*dt;
#X text 315 380 a=3 \, b=2.7 \, c=1.7 \, d=2 \, e=9;
#X msg 160 278 1;
#X msg 177 23 0.2;
#X msg 221 24 0.01;
#X msg 262 25 -0.4;
#X msg 517 -55 0.08;
#X obj 602 -18 hsl 254 15 0 0.096 0 0 empty empty empty -2 -8 0 10
-262144 -1 -1 0 0;
#X msg 214 357 -2;
#X obj 1052 -76 line;
#X obj 737 -76 line;
#X obj 117 356 loadbang;
#X obj 217 -6 loadbang;
#X msg 1113 91 6;
#X msg 1066 31 2;
#X msg 1111 62 5;
#X obj 566 -118 loadbang;
#X msg 992 23 0.005;
#X msg 983 -5 0.003;
#X msg 1106 19 3;
#X msg 1150 20 4;
#X obj 128 308 tabsend~ four1a;
#X obj 234 288 tabsend~ four2a;
#X obj 345 301 tabsend~ four3a;
#X floatatom 567 -47 5 0 0 0 - - -;
#X msg 77 -129 36;
#X msg 128 146 set 0.5 3.7 -1.7;
#X msg 867 -49 0.0816;
#X msg 923 -43 0.096;
#X msg 916 -15 0.099;
#X obj 929 -78 line;
#X msg -11 -138 74;
#X obj 317 -31 line;
#X msg 1054 -98 0.03 \, 0.072 5000;
#X msg 929 -104 0.03 \, 0.072 100000;
#X text 1155 -96 <SZYBKIE;
#X msg 169 -143 28;
#X obj 67 -163 loadbang;
#X text 350 -125 < UWAGA REAL POCZATEK;
#X text 850 -99 POCZATEK!!!;
#X obj 224 676 clip~ -3.15 3.15;
#X obj 360 673 clip~ -3.15 3.15;
#X obj 498 676 clip~ -3.15 3.15;
#X obj 250 600 expr~ ($v1)/sqrt(1-$v4*pow(($v2) \, 2)-$v4*pow(($v3)
\, 2)) \; ($v2)/sqrt(1-$v4*pow(($v1) \, 2)-$v4*pow(($v3) \, 2)) \;
($v3)/sqrt(1-$v4*pow(($v1) \, 2)-$v4*pow(($v2) \, 2));
#X floatatom 622 606 5 0 0 0 - - -;
#X obj 708 679 hsl 128 15 0 1 0 0 empty empty empty -2 -8 0 10 -262144
-1 -1 0 1;
#X text 797 657 0 <-> 1;
#X msg 768 640 0.5;
#X obj 747 613 loadbang;
#X obj 854 646 line;
#X msg 854 620 0 \, 1 5000;
#X msg 695 647 0;
#X obj 872 696 line;
#X msg 872 670 1 \, 0 5000;
#X obj 927 637 line;
#X msg 927 611 0 \, 1 50000;
#X msg 819 581 0.968;
#X floatatom 1030 719 5 0 0 0 - - -;
#X obj 1030 595 tgl 15 0 empty empty empty 17 7 0 10 -262144 -1 -1
0 500;
#X obj 1030 670 bng 15 250 50 0 empty empty empty 17 7 0 10 -262144
-1 -1;
#X obj 1030 694 random 2;
#X obj 1030 769 line;
#X floatatom 1023 799 5 0 0 0 - - -;
#X floatatom 1100 624 5 0 0 0 - - -;
#X msg 1056 528 500;
#X msg 1122 735;
#X msg 1030 741 \$1 1500;
#X msg 1106 554 5000;
#X obj 1030 647 metro 500;
#X obj 400 251 s~ object01;
#X obj 519 254 s~ object02;
#X obj 635 241 s~ object03;
#X obj 589 291 s~ line01;
#X obj 578 325 s~ line02;
#X obj 586 356 s~ line03;
#X msg 462 -1 0.09;
#X text 494 14 <WAZNE;
#X msg 455 22 0.1;
#X msg 455 47 0.12;
#X text 440 -57 <UWAGA!!!;
#X obj 511 -80 loadbang;
#X obj 713 413 s~ u01;
#X obj 755 413 s~ u02;
#X obj 799 413 s~ u03;
#X msg 317 -52 0.009 \, 0.01 30000;
#X msg 250 -126 0.1 \, 0.2 30000;
#X text 467 -30 <UWAGA!!!!MAIN!;
#X msg 1099 591 2000;
#X msg 366 -25 -0.3 \, -0.4 30000;
#X msg 177 -45 0.21;
#X msg 617 -154 1800;
#X msg 577 -155 1000;
#X msg 486 -155 100;
#X msg 519 -154 170;
#X msg 436 -150 50;
#X msg 402 -147 36;
#X text 1088 529 <UWAGA dobry SOUND!;
#X obj 282 -56 line;
#X msg 282 -77 0.2 \, 0.01 30000;
#X text 389 -79 UwagaNew!!!!!;
#X msg 240 -50 0.18;
#X text 865 583 <UwagaSOUNDlepszy;
#X text 308 54 <uzyjSHIFT;
#X msg 549 -157 666;
#X msg 304 7 -0.2;
#X obj 365 28 bng 15 250 50 0 empty empty empty 17 7 0 10 -262144 -1
-1;
#X obj 824 537 dac~;
#X obj 815 497 *~ 0.5;
#X msg 863 479 0;
#X obj 846 436 tgl 15 0 empty empty empty 17 7 0 10 -262144 -1 -1 0
1;
#X msg 140 -150 2;
#X msg 106 -130 50;
#X msg 1088 177 150;
#X msg 1149 202 100;
#X msg 1121 260 300;
#X symbolatom 1124 148 10 0 0 0 - - -;
#X msg 1117 118 18;
#X msg 568 -82 0.008;
#X msg 649 -69 0.01;
#X msg 682 -73 0.013;
#X msg 1147 101 23;
#X msg 1110 293 27;
#X msg 649 -96 0.03;
#X msg 738 -102 0.03 \, 0.072 50000;
#X msg 826 618 1;
#X floatatom 714 706 5 0 0 0 - - -;
#X msg 766 719 0.3;
#X obj 504 66 v dt11;
#X obj 124 195 fexpr~ $y1+(a*$y1 + $y2*$y3)*dt11 \; $y2 +(b*$y1 + c*$y2
- $y1*$y3)*dt11 \; $y3+(-$y3 - $y1*$y2)*dt11;
#X msg 894 479 1;
#X connect 1 0 75 0;
#X connect 2 0 76 0;
#X connect 3 0 206 0;
#X connect 4 0 206 0;
#X connect 5 0 205 0;
#X connect 6 0 104 0;
#X connect 6 0 4 0;
#X connect 9 0 99 0;
#X connect 10 0 100 0;
#X connect 11 0 101 0;
#X connect 12 0 3 0;
#X connect 19 0 159 0;
#X connect 19 0 185 0;
#X connect 20 0 160 0;
#X connect 20 0 185 0;
#X connect 21 0 161 0;
#X connect 21 0 185 0;
#X connect 22 0 35 1;
#X connect 23 0 33 1;
#X connect 24 0 27 0;
#X connect 25 0 34 1;
#X connect 26 0 23 0;
#X connect 26 0 25 0;
#X connect 26 0 22 0;
#X connect 27 0 21 1;
#X connect 27 0 20 1;
#X connect 27 0 19 1;
#X connect 28 0 6 0;
#X connect 29 0 28 0;
#X connect 30 0 28 1;
#X connect 31 0 30 0;
#X connect 31 0 29 0;
#X connect 32 0 30 0;
#X connect 32 0 29 0;
#X connect 33 0 19 0;
#X connect 34 0 20 0;
#X connect 35 0 21 0;
#X connect 36 0 62 0;
#X connect 37 0 44 0;
#X connect 38 0 44 0;
#X connect 40 0 30 0;
#X connect 40 0 29 0;
#X connect 41 0 30 0;
#X connect 41 0 29 0;
#X connect 42 0 44 0;
#X connect 43 0 30 0;
#X connect 43 0 29 0;
#X connect 44 0 24 0;
#X connect 45 0 46 0;
#X connect 46 0 24 0;
#X connect 47 0 2 0;
#X connect 48 0 1 0;
#X connect 49 0 44 0;
#X connect 50 0 30 0;
#X connect 50 0 29 0;
#X connect 52 0 44 0;
#X connect 55 0 44 0;
#X connect 56 0 30 0;
#X connect 57 0 26 0;
#X connect 59 0 30 0;
#X connect 59 0 29 0;
#X connect 59 0 60 0;
#X connect 61 0 30 0;
#X connect 61 0 29 0;
#X connect 62 0 26 0;
#X connect 63 0 57 0;
#X connect 64 0 44 0;
#X connect 66 0 27 0;
#X connect 67 0 27 0;
#X connect 69 0 27 0;
#X connect 70 0 27 0;
#X connect 71 0 199 0;
#X connect 73 0 9 1;
#X connect 73 0 10 1;
#X connect 73 0 11 1;
#X connect 77 0 0 0;
#X connect 80 0 73 0;
#X connect 81 0 1 0;
#X connect 82 0 77 0;
#X connect 83 0 2 0;
#X connect 84 0 5 0;
#X connect 85 0 5 0;
#X connect 86 0 73 0;
#X connect 87 0 85 0;
#X connect 88 0 85 0;
#X connect 89 0 86 0;
#X connect 90 0 81 0;
#X connect 90 0 82 0;
#X connect 90 0 83 0;
#X connect 91 0 44 0;
#X connect 92 0 44 0;
#X connect 93 0 44 0;
#X connect 95 0 45 0;
#X connect 96 0 45 0;
#X connect 97 0 44 0;
#X connect 98 0 44 0;
#X connect 102 0 85 0;
#X connect 103 0 29 0;
#X connect 103 0 30 0;
#X connect 104 0 206 0;
#X connect 105 0 85 0;
#X connect 106 0 85 0;
#X connect 107 0 5 0;
#X connect 108 0 85 0;
#X connect 109 0 30 0;
#X connect 109 0 29 0;
#X connect 110 0 77 0;
#X connect 111 0 87 0;
#X connect 112 0 108 0;
#X connect 114 0 30 0;
#X connect 114 0 29 0;
#X connect 115 0 103 0;
#X connect 118 0 33 0;
#X connect 119 0 34 0;
#X connect 120 0 35 0;
#X connect 121 0 118 0;
#X connect 121 1 119 0;
#X connect 121 2 120 0;
#X connect 122 0 121 3;
#X connect 123 0 121 3;
#X connect 123 0 203 0;
#X connect 125 0 123 0;
#X connect 126 0 129 0;
#X connect 127 0 123 0;
#X connect 128 0 127 0;
#X connect 129 0 123 0;
#X connect 130 0 123 0;
#X connect 131 0 130 0;
#X connect 132 0 123 0;
#X connect 133 0 132 0;
#X connect 134 0 123 0;
#X connect 135 0 144 0;
#X connect 136 0 146 0;
#X connect 137 0 138 0;
#X connect 138 0 135 0;
#X connect 139 0 140 0;
#X connect 140 0 123 0;
#X connect 141 0 146 1;
#X connect 142 0 141 0;
#X connect 142 0 136 0;
#X connect 144 0 139 0;
#X connect 145 0 141 0;
#X connect 145 0 136 0;
#X connect 146 0 137 0;
#X connect 153 0 5 0;
#X connect 155 0 5 0;
#X connect 156 0 5 0;
#X connect 158 0 84 0;
#X connect 162 0 110 0;
#X connect 163 0 48 0;
#X connect 165 0 141 0;
#X connect 165 0 136 0;
#X connect 166 0 47 0;
#X connect 167 0 1 0;
#X connect 168 0 59 0;
#X connect 169 0 59 0;
#X connect 170 0 59 0;
#X connect 171 0 59 0;
#X connect 172 0 59 0;
#X connect 173 0 59 0;
#X connect 175 0 77 0;
#X connect 176 0 175 0;
#X connect 178 0 77 0;
#X connect 181 0 59 0;
#X connect 182 0 2 0;
#X connect 183 0 182 0;
#X connect 183 0 178 0;
#X connect 183 0 181 0;
#X connect 185 0 184 0;
#X connect 185 0 184 1;
#X connect 186 0 185 1;
#X connect 188 0 30 0;
#X connect 188 0 29 0;
#X connect 189 0 30 0;
#X connect 189 0 29 0;
#X connect 190 0 44 0;
#X connect 191 0 44 0;
#X connect 192 0 44 0;
#X connect 194 0 44 0;
#X connect 195 0 102 0;
#X connect 196 0 85 0;
#X connect 197 0 85 0;
#X connect 198 0 44 0;
#X connect 199 0 44 0;
#X connect 200 0 85 0;
#X connect 201 0 88 0;
#X connect 202 0 123 0;
#X connect 204 0 123 0;
#X connect 206 0 9 0;
#X connect 206 0 121 0;
#X connect 206 0 147 0;
#X connect 206 1 10 0;
#X connect 206 1 121 1;
#X connect 206 1 148 0;
#X connect 206 2 11 0;
#X connect 206 2 121 2;
#X connect 206 2 149 0;
#X connect 207 0 185 1;
